<?xml version="1.0" encoding="utf-8"?>
<!-- Generator: Adobe Illustrator 24.1.0, SVG Export Plug-In . SVG Version: 6.00 Build 0)  -->
<svg version="1.1" id="LOGOS" xmlns="http://www.w3.org/2000/svg" xmlns:xlink="http://www.w3.org/1999/xlink" x="0px" y="0px"
	 viewBox="0 0 301 132" style="enable-background:new 0 0 301 132;" xml:space="preserve">
<style type="text/css">
	.st0{fill-rule:evenodd;clip-rule:evenodd;fill:#8E134A;}
	.st1{fill-rule:evenodd;clip-rule:evenodd;fill:#CA2171;}
	.st2{fill:#CA2171;}
</style>
<path d="M117.1,68.4c0-7.4,4.3-11.7,14.3-11.7c3.7,0,7.4,0.4,10.9,1.3l-0.9,6.6c-3.3-0.6-6.6-0.9-9.9-1c-5.3,0-7,1.8-7,6.1v15.5
	c0,4.3,1.7,6.1,7,6.1c3.3-0.1,6.6-0.4,9.9-1l0.9,6.6c-3.6,0.9-7.3,1.3-10.9,1.3c-10,0-14.3-4.3-14.3-11.7L117.1,68.4z"/>
<path d="M158.7,98.3c-10.1,0-12.8-5.6-12.8-11.6v-7.4c0-6,2.7-11.6,12.8-11.6s12.8,5.6,12.8,11.6v7.4
	C171.6,92.7,168.8,98.3,158.7,98.3z M158.7,73.9c-3.9,0-5.4,1.8-5.4,5.1v7.9c0,3.3,1.5,5.1,5.4,5.1s5.4-1.8,5.4-5.1V79
	C164.2,75.7,162.6,73.9,158.7,73.9z"/>
<path d="M194,97.7V77.1c0-1.6-0.7-2.3-2.4-2.3s-5,1.1-7.7,2.5v20.4h-7.4V68.2h5.6l0.7,2.5c3.7-1.8,7.7-2.9,11.8-3.1
	c4.9,0,6.6,3.4,6.6,8.7v21.4H194z"/>
<path d="M216.6,98.3c-3.5-0.1-6.9-0.6-10.2-1.7l1-5.6c2.9,0.8,5.8,1.2,8.8,1.3c3.3,0,3.8-0.7,3.8-3c0-1.8-0.4-2.7-5.1-3.9
	c-7.2-1.8-8.1-3.6-8.1-9.2c0-5.9,2.6-8.5,11-8.5c3,0,5.9,0.3,8.8,1l-0.7,5.9c-2.7-0.5-5.4-0.8-8.1-0.8c-3.2,0-3.8,0.7-3.8,2.5
	c0,2.4,0.2,2.5,4.2,3.6c8.2,2.2,9,3.3,9,9.3C227.2,94.8,225.4,98.3,216.6,98.3z"/>
<path d="M239.4,68.2v20.6c0,1.6,0.7,2.4,2.4,2.4s5-1.1,7.7-2.5V68.2h7.4v29.5h-5.6l-0.7-2.5c-3.7,1.8-7.7,2.9-11.8,3.1
	c-4.9,0-6.7-3.4-6.7-8.7V68.2H239.4z"/>
<path d="M263.2,97.7V56.2l7.4-1v42.5H263.2z"/>
<path class="st0" d="M61.6,84.3c-3.8,0-6.8-3.1-6.8-6.8c0-3.8,3.1-6.8,6.8-6.8c3.8,0,6.8,3.1,6.8,6.8C68.4,81.2,65.4,84.3,61.6,84.3
	C61.6,84.3,61.6,84.3,61.6,84.3"/>
<path class="st1" d="M74.9,80.6c-1.7,0-3.2-1.4-3.2-3.2c0-1.7,1.4-3.2,3.2-3.2c1.7,0,3.2,1.4,3.2,3.2c0,0,0,0,0,0
	C78.1,79.2,76.7,80.6,74.9,80.6C74.9,80.6,74.9,80.6,74.9,80.6"/>
<path class="st1" d="M86.4,83.6L86.4,83.6c-0.5,1.6-2.2,2.6-3.8,2.1c-1.6-0.5-2.6-2.2-2.1-3.8s2.2-2.6,3.8-2.1
	c1.5,0.4,2.5,2,2.2,3.5C86.5,83.4,86.5,83.5,86.4,83.6"/>
<path class="st1" d="M84.2,75.5c-1.7,0.4-3.4-0.6-3.8-2.3c-0.4-1.7,0.6-3.4,2.3-3.8c1.7-0.4,3.4,0.6,3.8,2.3c0,0,0,0,0,0
	c0.1,0.4,0.1,0.8,0,1.2C86.4,74.2,85.4,75.2,84.2,75.5"/>
<path class="st1" d="M95.4,83.2c-0.4,1.6-2,2.5-3.6,2.1c-1.6-0.4-2.5-2-2.1-3.6c0.4-1.6,2-2.5,3.6-2.1c1.5,0.4,2.4,1.8,2.2,3.3
	C95.4,83,95.4,83.1,95.4,83.2"/>
<path class="st1" d="M92.8,75.3c-1.7,0.3-3.3-0.9-3.5-2.6s0.9-3.3,2.6-3.5s3.3,0.9,3.5,2.6c0,0.2,0,0.5,0,0.7
	C95.3,73.9,94.3,75.1,92.8,75.3"/>
<path class="st1" d="M90.7,94.2L90.7,94.2c-0.9,1.5-2.8,2.1-4.3,1.3c-1.5-0.9-2.1-2.8-1.3-4.3c0.9-1.5,2.8-2.1,4.3-1.3
	c1.1,0.6,1.7,1.8,1.6,3C91,93.3,90.9,93.8,90.7,94.2"/>
<path class="st1" d="M89.5,65.2C88,66,86.1,65.5,85.2,64c-0.9-1.5-0.3-3.4,1.2-4.3c1.5-0.8,3.4-0.3,4.3,1.2c0.3,0.6,0.5,1.2,0.4,1.8
	C91,63.7,90.4,64.7,89.5,65.2"/>
<path class="st2" d="M61.7,109.2C44.2,109.2,30,95,30.1,77.5c0-17.5,14.2-31.7,31.8-31.6c6.9,0,13.7,2.3,19.2,6.5l-3.9,5
	c-11.1-8.5-27-6.4-35.5,4.8s-6.4,27,4.8,35.5c9.1,6.9,21.7,6.9,30.8,0l3.9,5.1C75.5,107,68.7,109.3,61.7,109.2z"/>
<path d="M125.3,47.5v-5.7h-5.2v5.7h-2.6V33.9h2.6v5.7h5.2v-5.7h2.7v13.6H125.3z M137.7,47.5h-2.1l-0.2-0.7c-0.9,0.6-1.9,0.9-3,0.9
	c-1.9,0-2.7-1.2-2.7-2.9c0-2,0.9-2.8,3-2.8h2.4v-1c0-1.1-0.3-1.5-1.9-1.5c-1,0-1.9,0.1-2.8,0.3l-0.4-1.9c1.1-0.3,2.3-0.5,3.5-0.5
	c3.2,0,4.1,1.1,4.1,3.5L137.7,47.5z M135.1,43.7h-1.9c-0.8,0-1.1,0.2-1.1,1s0.2,1,1,1c0.7,0,1.3-0.2,1.9-0.5L135.1,43.7z M143,47.7
	c-1.2,0-2.4-0.2-3.5-0.6l0.4-1.9c1,0.3,2,0.4,3,0.4c1.1,0,1.3-0.2,1.3-1s-0.1-0.9-1.8-1.3c-2.5-0.6-2.8-1.2-2.8-3.1s0.9-2.8,3.8-2.8
	c1,0,2.1,0.1,3.1,0.3l-0.3,2c-0.9-0.2-1.9-0.3-2.8-0.3c-1.1,0-1.3,0.2-1.3,0.8c0,0.8,0.1,0.8,1.4,1.2c2.9,0.7,3.1,1.1,3.1,3.1
	S146.1,47.7,143,47.7z M154.7,47.5v-6.8c0-0.5-0.2-0.8-0.8-0.8c-0.9,0.1-1.8,0.4-2.7,0.8v6.8h-2.5V33.7l2.6,0.4v4.3
	c1.2-0.6,2.4-0.9,3.7-0.9c1.7,0,2.3,1.1,2.3,2.9v7.1H154.7z M159.4,36.3v-2.4h2.6v2.4H159.4z M159.4,47.5v-9.8h2.6v9.8H159.4z
	 M164,37.7c0-2.5,1.5-3.9,5-3.9c1.3,0,2.6,0.2,3.8,0.5l-0.3,2.2c-1.1-0.2-2.3-0.3-3.4-0.3c-1.8,0-2.4,0.6-2.4,2v5.2
	c0,1.4,0.6,2,2.4,2c1.1,0,2.3-0.1,3.4-0.3l0.3,2.2c-1.2,0.3-2.5,0.4-3.8,0.4c-3.5,0-5-1.4-5-3.9L164,37.7z M178.4,47.7
	c-3.5,0-4.4-1.8-4.4-3.9v-2.5c0-2,0.9-3.9,4.4-3.9s4.4,1.8,4.4,3.9v2.5C182.9,45.8,181.9,47.7,178.4,47.7L178.4,47.7z M178.4,39.5
	c-1.4,0-1.9,0.6-1.9,1.7v2.6c0,1.1,0.5,1.7,1.9,1.7s1.9-0.6,1.9-1.7v-2.6C180.3,40.1,179.8,39.5,178.4,39.5L178.4,39.5z M190.1,39.7
	c-0.9,0.4-1.8,0.9-2.7,1.4v6.3h-2.6v-9.8h2.2l0.2,1.1c0.8-0.5,1.7-1,2.7-1.3L190.1,39.7z M200.3,44.2c0,2.2-1,3.5-3.4,3.5
	c-0.9,0-1.8-0.1-2.7-0.3v4l-2.6,0.4V37.7h2l0.3,0.8c0.9-0.7,2.1-1,3.2-1c2.1,0,3.1,1.2,3.1,3.4L200.3,44.2z M194.2,45.3
	c0.7,0.2,1.5,0.3,2.3,0.3c0.9,0,1.3-0.4,1.3-1.3v-3.5c0-0.8-0.3-1.2-1.3-1.2c-0.8,0-1.6,0.3-2.3,0.9V45.3z"/>
</svg>
