<?xml version="1.0" encoding="utf-8"?>
<!-- Generator: Adobe Illustrator 23.0.6, SVG Export Plug-In . SVG Version: 6.00 Build 0)  -->
<svg version="1.1" id="Layer_1" xmlns="http://www.w3.org/2000/svg" xmlns:xlink="http://www.w3.org/1999/xlink" x="0px" y="0px"
	 viewBox="0 0 240 90" enable-background="new 0 0 240 90" xml:space="preserve">
<g>
	<g id="Layer_1_4_">
		<g>
			<g>
				<polygon fill="#1A476F" points="15.5,57 19.9,62.2 19.9,27.8 15.5,33 				"/>
				<polygon fill="#205B98" points="19.9,62.2 28.4,66.4 28.4,23.6 19.9,27.8 				"/>
				<polygon fill="#2D72B8" points="53.5,33 49.1,27.8 49.1,62.2 53.5,57 				"/>
				<polygon fill="#5294CF" points="40.6,66.4 49.1,62.2 49.1,27.8 40.6,23.6 				"/>
				<rect x="28.4" y="23.6" fill="#2D72B8" width="12.2" height="42.8"/>
			</g>
		</g>
	</g>
	<g>
		<path fill="#454545" d="M78.1,39.5l-6.4-16.4H70l-6.6,16.4H65l2-5.1h7.5l2,5.1H78.1z M67.5,33.1l3.3-8.4l3.2,8.4H67.5z"/>
		<path fill="#454545" d="M91.8,27.3c-0.8,0-1.5,0.2-2.2,0.6c-0.7,0.4-1.2,1-1.6,1.7c-0.2-0.8-0.6-1.4-1.3-1.7
			c-0.6-0.4-1.3-0.6-2.1-0.6c-1,0-1.8,0.2-2.4,0.6s-1.1,1-1.5,1.7h-0.1v-2h-1.3v11.9h1.4v-6.6c0-0.6,0.1-1.2,0.2-1.7
			c0.1-0.5,0.3-1,0.6-1.4s0.7-0.7,1.1-0.9c0.5-0.2,1-0.3,1.6-0.3c0.5,0,0.8,0.1,1.2,0.2s0.6,0.4,0.8,0.6c0.2,0.3,0.3,0.6,0.4,0.9
			s0.1,0.7,0.1,1.1v8h1.4v-6.7c0-0.6,0.1-1.1,0.2-1.6s0.3-1,0.5-1.4c0.2-0.4,0.6-0.7,1-1c0.4-0.2,0.9-0.4,1.6-0.4
			c1,0,1.8,0.3,2.2,0.8c0.4,0.5,0.6,1.3,0.6,2.2v8h1.4v-8C95.8,28.7,94.5,27.3,91.8,27.3z"/>
		<path fill="#454545" d="M103.4,39.7c0.4-0.1,0.8-0.3,1.1-0.5c0.3-0.2,0.6-0.4,0.9-0.7s0.5-0.6,0.8-1h0c0,0.3,0,0.6,0.1,0.8
			s0.1,0.5,0.2,0.7c0.1,0.2,0.3,0.3,0.5,0.4s0.5,0.1,0.9,0.1c0.2,0,0.4,0,0.5,0c0.1,0,0.3,0,0.4-0.1v-1.2c-0.1,0.1-0.3,0.1-0.5,0.1
			c-0.6,0-0.9-0.3-0.9-0.9v-6.3c0-0.8-0.1-1.4-0.4-1.9c-0.3-0.5-0.6-0.9-1-1.2s-0.9-0.5-1.4-0.6c-0.5-0.1-1-0.1-1.6-0.1
			c-0.7,0-1.3,0.1-1.9,0.2c-0.6,0.2-1.1,0.4-1.5,0.7c-0.4,0.3-0.8,0.7-1,1.2c-0.2,0.5-0.4,1.1-0.4,1.8h1.4c0-1,0.3-1.7,0.9-2.1
			c0.6-0.4,1.3-0.7,2.3-0.7c0.4,0,0.8,0,1.2,0.1c0.4,0.1,0.7,0.2,1,0.4c0.3,0.2,0.5,0.4,0.7,0.7s0.2,0.7,0.2,1.2
			c0,0.3,0,0.6-0.1,0.8c-0.1,0.2-0.2,0.4-0.4,0.5c-0.2,0.1-0.3,0.2-0.6,0.2c-0.2,0-0.5,0.1-0.8,0.1c-0.8,0.1-1.6,0.2-2.3,0.3
			c-0.8,0.1-1.4,0.3-2,0.5c-0.6,0.2-1.1,0.6-1.5,1.1s-0.6,1.1-0.6,1.9c0,0.6,0.1,1.1,0.3,1.6c0.2,0.4,0.5,0.8,0.9,1.1
			s0.8,0.5,1.3,0.6c0.5,0.1,1,0.2,1.6,0.2C102.4,39.9,102.9,39.8,103.4,39.7z M100.1,38c-0.2-0.2-0.4-0.5-0.6-0.7s-0.2-0.6-0.2-1
			c0-0.6,0.2-1,0.5-1.3c0.3-0.3,0.8-0.6,1.3-0.7c0.5-0.2,1.1-0.3,1.8-0.4c0.7-0.1,1.3-0.2,1.9-0.3c0.2,0,0.4-0.1,0.7-0.2
			c0.3-0.1,0.4-0.2,0.5-0.4h0v1.9c0,0.6-0.1,1.1-0.3,1.6c-0.2,0.5-0.5,0.9-0.9,1.2s-0.8,0.6-1.3,0.7c-0.5,0.2-1,0.3-1.6,0.3
			c-0.3,0-0.7-0.1-1-0.2S100.4,38.2,100.1,38z"/>
		<polygon fill="#454545" points="119.3,38.3 111.2,38.3 119,28.7 119,27.7 110,27.7 110,28.9 117.2,28.9 109.4,38.4 109.4,39.5 
			119.3,39.5 		"/>
		<path fill="#454545" d="M131.4,36c0.2-0.8,0.4-1.6,0.4-2.4c0-0.9-0.1-1.7-0.4-2.4s-0.6-1.4-1.1-2c-0.5-0.6-1.1-1-1.8-1.4
			c-0.7-0.3-1.5-0.5-2.4-0.5c-0.9,0-1.7,0.2-2.4,0.5c-0.7,0.3-1.3,0.8-1.8,1.4c-0.5,0.6-0.8,1.2-1.1,2c-0.2,0.8-0.4,1.6-0.4,2.4
			c0,0.9,0.1,1.7,0.4,2.4c0.2,0.8,0.6,1.4,1.1,2c0.5,0.6,1.1,1,1.8,1.3c0.7,0.3,1.5,0.5,2.4,0.5c0.9,0,1.7-0.2,2.4-0.5
			c0.7-0.3,1.3-0.8,1.8-1.3C130.8,37.5,131.1,36.8,131.4,36z M129.2,37.1c-0.3,0.5-0.8,0.9-1.3,1.2s-1.1,0.4-1.8,0.4
			c-0.7,0-1.3-0.1-1.8-0.4c-0.5-0.3-1-0.7-1.3-1.2c-0.3-0.5-0.6-1-0.8-1.6c-0.2-0.6-0.3-1.2-0.3-1.9s0.1-1.2,0.3-1.9
			c0.2-0.6,0.4-1.1,0.8-1.6s0.8-0.9,1.3-1.1c0.5-0.3,1.1-0.4,1.8-0.4c0.7,0,1.3,0.1,1.8,0.4s1,0.7,1.3,1.1c0.3,0.5,0.6,1,0.8,1.6
			c0.2,0.6,0.3,1.2,0.3,1.9s-0.1,1.2-0.3,1.9C129.8,36.1,129.6,36.6,129.2,37.1z"/>
		<path fill="#454545" d="M142.1,32.1v7.4h1.4v-7.6c0-0.7-0.1-1.3-0.2-1.9s-0.4-1-0.7-1.4c-0.3-0.4-0.8-0.7-1.3-0.9
			s-1.3-0.3-2.1-0.3c-0.8,0-1.6,0.2-2.3,0.7c-0.7,0.4-1.2,1-1.5,1.7h0v-2h-1.4v11.9h1.4v-6.9c0-0.6,0.1-1.1,0.3-1.6
			c0.2-0.5,0.4-0.9,0.7-1.3c0.3-0.4,0.7-0.6,1.2-0.9s1-0.3,1.6-0.3c0.6,0,1.1,0.1,1.5,0.3c0.4,0.2,0.7,0.4,0.9,0.8
			c0.2,0.3,0.4,0.7,0.5,1.1S142.1,31.6,142.1,32.1z"/>
		<path fill="#454545" d="M157.3,23.1l-6.2,16.4h3.6l1.3-3.7h6.1l1.2,3.7h3.7L161,23.1H157.3z M157,33.2l2.1-6h0l2.1,6H157z"/>
		<path fill="#454545" d="M176.1,33.9c0,1.2-0.2,2.1-0.6,2.6c-0.4,0.5-1,0.8-1.9,0.8c-0.8,0-1.3-0.2-1.6-0.7s-0.5-1.2-0.5-2.2v-6.7
			h-3.3V35c0,0.7,0.1,1.4,0.2,2c0.1,0.6,0.4,1.1,0.7,1.5s0.8,0.7,1.3,1s1.3,0.3,2.2,0.3c0.7,0,1.4-0.2,2-0.5
			c0.7-0.3,1.2-0.8,1.6-1.5h0.1v1.7h3.1V27.6h-3.3V33.9z"/>
		<path fill="#454545" d="M187.6,27.5c-0.4,0.1-0.7,0.3-1.1,0.5c-0.3,0.2-0.6,0.5-0.9,0.8c-0.3,0.3-0.5,0.7-0.6,1h0v-2.2h-3.1v11.9
			h3.3v-5.4c0-0.5,0.1-1,0.2-1.5c0.1-0.5,0.3-0.9,0.5-1.2c0.3-0.3,0.6-0.6,1-0.8s0.9-0.3,1.5-0.3c0.2,0,0.4,0,0.6,0s0.4,0,0.6,0.1
			v-3c-0.3-0.1-0.5-0.1-0.7-0.1C188.4,27.3,188,27.4,187.6,27.5z"/>
		<path fill="#454545" d="M200.7,29c-0.5-0.5-1.2-1-1.9-1.3c-0.8-0.3-1.6-0.4-2.5-0.4s-1.8,0.1-2.5,0.4c-0.8,0.3-1.4,0.7-1.9,1.3
			c-0.5,0.5-1,1.2-1.2,2c-0.3,0.8-0.4,1.6-0.4,2.6s0.1,1.8,0.4,2.6c0.3,0.8,0.7,1.4,1.2,2s1.2,1,1.9,1.3c0.8,0.3,1.6,0.4,2.5,0.4
			s1.8-0.1,2.5-0.4c0.8-0.3,1.4-0.7,1.9-1.3c0.5-0.5,1-1.2,1.2-2c0.3-0.8,0.4-1.6,0.4-2.6s-0.1-1.8-0.4-2.6
			C201.6,30.2,201.2,29.6,200.7,29z M199,35c-0.1,0.5-0.2,0.9-0.5,1.2c-0.2,0.4-0.5,0.6-0.9,0.9s-0.8,0.3-1.4,0.3
			c-0.6,0-1-0.1-1.4-0.3s-0.7-0.5-0.9-0.9c-0.2-0.4-0.4-0.8-0.5-1.2c-0.1-0.5-0.1-0.9-0.1-1.4c0-0.5,0-0.9,0.1-1.4
			c0.1-0.5,0.2-0.9,0.5-1.2c0.2-0.4,0.5-0.6,0.9-0.9c0.4-0.2,0.8-0.3,1.4-0.3c0.6,0,1,0.1,1.4,0.3c0.4,0.2,0.7,0.5,0.9,0.9
			c0.2,0.4,0.4,0.8,0.5,1.2c0.1,0.5,0.1,0.9,0.1,1.4C199.1,34.1,199.1,34.5,199,35z"/>
		<path fill="#454545" d="M210.2,27.5c-0.4,0.1-0.7,0.3-1.1,0.5c-0.3,0.2-0.6,0.5-0.9,0.8c-0.3,0.3-0.5,0.7-0.6,1h0v-2.2h-3.1v11.9
			h3.3v-5.4c0-0.5,0.1-1,0.2-1.5c0.1-0.5,0.3-0.9,0.5-1.2c0.3-0.3,0.6-0.6,1-0.8s0.9-0.3,1.5-0.3c0.2,0,0.4,0,0.6,0s0.4,0,0.6,0.1
			v-3c-0.3-0.1-0.5-0.1-0.7-0.1C211,27.3,210.6,27.4,210.2,27.5z"/>
		<path fill="#454545" d="M224.2,38.4c-0.1-0.5-0.1-1-0.1-1.5v-6.2c0-0.7-0.2-1.3-0.5-1.7c-0.3-0.4-0.7-0.8-1.2-1
			c-0.5-0.2-1.1-0.4-1.7-0.5s-1.2-0.1-1.8-0.1c-0.7,0-1.3,0.1-2,0.2c-0.7,0.1-1.2,0.3-1.8,0.7s-1,0.7-1.3,1.2s-0.5,1.1-0.6,1.9h3.3
			c0.1-0.6,0.3-1.1,0.6-1.4c0.4-0.3,0.9-0.4,1.5-0.4c0.3,0,0.6,0,0.8,0.1c0.3,0,0.5,0.1,0.7,0.2c0.2,0.1,0.3,0.3,0.5,0.5
			s0.2,0.5,0.2,0.8c0,0.3-0.1,0.6-0.3,0.8s-0.5,0.3-0.9,0.4c-0.4,0.1-0.8,0.2-1.3,0.2s-1,0.1-1.4,0.2c-0.5,0.1-1,0.2-1.5,0.3
			c-0.5,0.1-0.9,0.3-1.3,0.6c-0.4,0.3-0.7,0.6-0.9,1c-0.2,0.4-0.4,1-0.4,1.7c0,0.6,0.1,1.1,0.3,1.6c0.2,0.4,0.5,0.8,0.9,1.1
			c0.4,0.3,0.8,0.5,1.3,0.6c0.5,0.1,1,0.2,1.6,0.2c0.7,0,1.5-0.1,2.2-0.3c0.7-0.2,1.3-0.6,1.8-1.1c0,0.2,0,0.4,0.1,0.6
			c0,0.2,0.1,0.4,0.1,0.6h3.3C224.4,39.3,224.3,38.9,224.2,38.4z M220.8,34.9c0,0.2,0,0.4-0.1,0.7c0,0.3-0.1,0.6-0.3,0.9
			c-0.2,0.3-0.4,0.6-0.8,0.8c-0.4,0.2-0.9,0.3-1.5,0.3c-0.3,0-0.5,0-0.8-0.1c-0.2,0-0.5-0.1-0.6-0.2c-0.2-0.1-0.3-0.3-0.4-0.5
			s-0.2-0.4-0.2-0.7c0-0.3,0.1-0.6,0.2-0.8c0.1-0.2,0.2-0.4,0.4-0.5c0.2-0.1,0.4-0.2,0.6-0.3c0.2-0.1,0.5-0.1,0.7-0.2
			c0.3,0,0.5-0.1,0.8-0.1c0.3,0,0.5-0.1,0.7-0.1c0.2,0,0.5-0.1,0.7-0.2c0.2-0.1,0.4-0.2,0.5-0.3V34.9z"/>
		<path fill="#454545" d="M70.4,49.2h-6v13.4h1.6v-5.8h4.4c1.3,0,2.3-0.4,3-1.1c0.6-0.8,1-1.7,1-2.7c0-1.2-0.4-2.1-1.1-2.8
			C72.6,49.6,71.6,49.2,70.4,49.2z M71.9,55c-0.5,0.4-1.2,0.5-2.1,0.5h-3.7v-4.9h3.7c0.7,0,1.3,0.1,1.7,0.3l0,0
			c0.8,0.4,1.2,1.1,1.2,2.1C72.7,54,72.4,54.6,71.9,55z"/>
		<path fill="#454545" d="M80.6,52.7c-1.4,0-2.5,0.5-3.3,1.4c-0.8,1-1.2,2.3-1.2,3.9c0,1.5,0.4,2.8,1.2,3.7C78,62.6,79,63,80.4,63
			c1.6,0,2.8-0.5,3.5-1.5c0.8-1,1.1-2.3,1.1-3.9c0-1.6-0.4-2.9-1.3-3.7C82.9,53.1,81.8,52.7,80.6,52.7z M82.9,60.5
			c-0.4,0.9-1.2,1.3-2.3,1.3c-1,0-1.8-0.4-2.3-1.1c-0.5-0.7-0.7-1.6-0.7-2.7c0-1.1,0.2-2.1,0.7-2.9c0.5-0.8,1.2-1.2,2.3-1.2
			c1.2,0,2,0.5,2.5,1.4c0.3,0.6,0.5,1.4,0.5,2.3C83.5,58.7,83.3,59.6,82.9,60.5z"/>
		<path fill="#454545" d="M93.8,58c-0.4-0.3-1.2-0.5-2.4-0.8l-1.1-0.3c-0.5-0.1-0.9-0.3-1.1-0.4c-0.5-0.3-0.7-0.7-0.7-1.1
			c0-0.4,0.2-0.8,0.5-1c0.3-0.3,0.9-0.4,1.5-0.4c1,0,1.7,0.2,2.1,0.7c0.2,0.3,0.4,0.6,0.4,1h1.4c0-0.6-0.2-1.1-0.6-1.6
			c-0.6-0.8-1.7-1.3-3.2-1.3c-1.1,0-2,0.3-2.7,0.8c-0.7,0.6-1,1.3-1,2.2c0,0.8,0.3,1.4,1,1.8c0.4,0.3,1,0.5,1.9,0.7l1.3,0.3
			c0.7,0.2,1.2,0.3,1.5,0.5c0.4,0.2,0.6,0.6,0.6,1.1c0,0.6-0.3,1-0.8,1.3c-0.5,0.3-1.1,0.4-1.7,0.4c-1.1,0-1.9-0.3-2.3-0.8
			c-0.2-0.3-0.4-0.7-0.4-1.2h-1.4c0.1,0.9,0.4,1.7,1,2.3c0.6,0.6,1.6,1,3.1,1c1.4,0,2.4-0.3,3-0.9c0.7-0.6,1-1.4,1-2.2
			C94.8,59,94.5,58.4,93.8,58z"/>
		<path fill="#454545" d="M98.6,50.2h-1.5v2.8h-1.3v1.2h1.3v6.7c0,0.6,0.1,1.1,0.4,1.5c0.3,0.4,0.8,0.6,1.5,0.6c0.2,0,0.5,0,0.7,0
			c0.2,0,0.3-0.1,0.5-0.1v-1.1c-0.1,0-0.2,0-0.2,0c-0.5,0-0.8,0-1-0.1c-0.3-0.1-0.4-0.4-0.4-0.8v-6.6h1.6v-1.2h-1.6V50.2z"/>
		<path fill="#454545" d="M108.5,54.5l-0.2-0.2c-0.3-0.4-0.6-0.7-0.9-0.9c-0.6-0.4-1.2-0.6-2-0.6c-1.1,0-2.1,0.5-2.9,1.4
			c-0.8,0.9-1.2,2.2-1.2,3.8c0,1.7,0.4,3,1.2,3.7c0.8,0.7,1.7,1.1,2.7,1.1c0.7,0,1.4-0.1,1.8-0.4c0.5-0.2,0.8-0.6,1.2-1.1l0.2-0.3
			l0,0.3c0,1.4-0.1,2.3-0.3,2.9c-0.4,0.9-1.3,1.4-2.6,1.4c-0.8,0-1.4-0.2-1.8-0.6c-0.2-0.2-0.4-0.6-0.5-1h-1.5
			c0.1,0.9,0.5,1.6,1.2,2.1c0.7,0.5,1.6,0.7,2.6,0.7c1.9,0,3.2-0.7,3.8-2c0.4-0.7,0.5-1.7,0.5-2.9V53h-1.3V54.5z M108.1,60
			c-0.5,1.1-1.4,1.7-2.6,1.7c-0.8,0-1.4-0.3-1.9-0.9c-0.5-0.6-0.7-1.5-0.7-2.6c0-1,0.1-1.7,0.3-2.3c0.4-1.1,1.3-1.7,2.5-1.7
			c0.8,0,1.5,0.3,2,0.9c0.5,0.6,0.8,1.6,0.8,2.8C108.5,58.6,108.4,59.3,108.1,60z"/>
		<path fill="#454545" d="M116.9,52.7c-0.6,0-1.2,0.2-1.7,0.7c-0.5,0.5-0.8,0.9-0.9,1.2l-0.2,0.5v-2.1h-1.4v9.7h1.5v-5.6
			c0-0.7,0.2-1.4,0.7-1.9c0.5-0.6,1.1-0.8,2-0.8c0.1,0,0.2,0,0.3,0c0.1,0,0.1,0,0.2,0v-1.6c-0.1,0-0.2,0-0.3,0
			C116.9,52.7,116.9,52.7,116.9,52.7z"/>
		<path fill="#454545" d="M127.1,56.2c-0.1-0.7-0.3-1.2-0.6-1.7c-0.3-0.5-0.8-0.9-1.5-1.3c-0.6-0.3-1.3-0.5-2-0.5
			c-1.4,0-2.5,0.5-3.3,1.5c-0.8,1-1.3,2.3-1.3,3.8c0,1.6,0.4,2.8,1.3,3.7c0.8,0.9,1.9,1.3,3.1,1.3c0.5,0,0.9,0,1.3-0.1
			c0.7-0.2,1.3-0.5,1.8-1c0.3-0.3,0.6-0.6,0.8-1.1c0.2-0.4,0.3-0.8,0.4-1.1h-1.5c-0.1,0.4-0.3,0.8-0.6,1.1c-0.5,0.6-1.3,0.9-2.1,0.9
			c-1,0-1.7-0.3-2.1-1c-0.5-0.6-0.7-1.5-0.7-2.5l0-0.1h7.2C127.2,57.3,127.2,56.6,127.1,56.2z M120,57.1l0-0.1
			c0-0.9,0.3-1.6,0.8-2.2c0.5-0.6,1.2-0.9,2-0.9c1.1,0,1.9,0.4,2.4,1.3c0.3,0.4,0.4,1,0.5,1.8l0,0.1H120z"/>
		<path fill="#454545" d="M138.4,56.3c-0.5-0.4-1.2-0.6-2-0.8l-1.9-0.4c-1.3-0.3-2.1-0.5-2.4-0.8c-0.6-0.3-0.9-0.8-0.9-1.6
			c0-0.6,0.2-1.2,0.7-1.7c0.5-0.5,1.3-0.7,2.3-0.7c1.3,0,2.3,0.4,2.8,1.1c0.3,0.4,0.5,0.9,0.6,1.6h1.5c0-1.4-0.5-2.5-1.4-3.1
			c-1-0.7-2.1-1-3.5-1c-1.5,0-2.6,0.4-3.4,1.2c-0.8,0.8-1.2,1.8-1.2,2.9c0,1.1,0.4,1.9,1.2,2.5c0.5,0.3,1.3,0.6,2.4,0.9l1.8,0.4
			c1,0.2,1.7,0.5,2.2,0.8c0.5,0.3,0.7,0.9,0.7,1.7c0,1-0.6,1.8-1.7,2.2c-0.6,0.2-1.2,0.3-1.9,0.3c-1.5,0-2.6-0.5-3.2-1.4
			c-0.3-0.5-0.5-1.1-0.5-1.8h-1.5c0,1.4,0.5,2.5,1.3,3.3c0.9,0.8,2.2,1.3,3.8,1.3c1.4,0,2.6-0.3,3.7-1c1-0.6,1.6-1.7,1.6-3.2
			C139.6,57.8,139.2,56.9,138.4,56.3z"/>
		<path fill="#454545" d="M154.5,58.2c0.2-0.8,0.3-1.6,0.3-2.5c0-1.8-0.4-3.4-1.3-4.6c-1.1-1.5-2.9-2.3-5.3-2.3
			c-2.3,0-4,0.8-5.1,2.5c-0.9,1.3-1.4,2.9-1.4,4.7c0,2,0.5,3.7,1.6,5c1.2,1.4,2.8,2,4.9,2c0.7,0,1.3-0.1,1.9-0.2
			c0.6-0.2,1.1-0.4,1.6-0.7l0.1,0l2.1,1.6l0.8-1l-1.9-1.5l0.1-0.1C153.6,60.4,154.2,59.4,154.5,58.2z M151.6,60.3L151.6,60.3
			l-1.8-1.3l-0.8,1l1.5,1.2l-0.1,0.1c-0.3,0.2-0.6,0.3-0.9,0.3c-0.3,0.1-0.7,0.1-1.1,0.1c-1.6,0-2.9-0.5-3.7-1.5
			c-0.8-1-1.3-2.3-1.3-4c0-2,0.4-3.4,1.3-4.4c0.9-1,2.1-1.4,3.6-1.4c1.5,0,2.7,0.5,3.5,1.5c0.8,1,1.3,2.3,1.3,3.9
			c0,0.7-0.1,1.5-0.3,2.3C152.6,58.9,152.2,59.6,151.6,60.3z"/>
		<polygon fill="#454545" points="158.8,49.2 157.2,49.2 157.2,62.7 165.7,62.7 165.7,61.3 158.8,61.3 		"/>
	</g>
</g>
</svg>
