<?xml version="1.0" encoding="utf-8"?>
<!-- Generator: Adobe Illustrator 24.0.3, SVG Export Plug-In . SVG Version: 6.00 Build 0)  -->
<svg version="1.1" xmlns="http://www.w3.org/2000/svg" xmlns:xlink="http://www.w3.org/1999/xlink" x="0px" y="0px"
	 viewBox="0 0 800 300" style="enable-background:new 0 0 800 300;" xml:space="preserve">
<style type="text/css">
	.st0{fill:#2C3E50;}
	.st1{fill:url(#SVGID_1_);}
	.st2{fill:#FFFFFF;}
	.st3{fill:#F32735;}
	.st4{fill:#326CE5;}
</style>
<g id="Layer_1">
	<g id="Layer_2_1_">
		<rect class="st0" width="800" height="300"/>
	</g>
	<linearGradient id="SVGID_1_" gradientUnits="userSpaceOnUse" x1="400" y1="240.6308" x2="400" y2="-10.4689">
		<stop  offset="0" style="stop-color:#56BEEC;stop-opacity:0"/>
		<stop  offset="1" style="stop-color:#30729C;stop-opacity:0.4"/>
	</linearGradient>
	<path class="st1" d="M-20.35,0c0-5.78,4.69-10.47,10.47-10.47S0.59-5.78,0.59,0S-4.09,10.47-9.88,10.47S-20.35,5.78-20.35,0z
		 M28.22,10.47C34,10.47,38.69,5.78,38.69,0S34-10.47,28.22-10.47S17.75-5.78,17.75,0S22.44,10.47,28.22,10.47z M66.31,10.47
		c5.78,0,10.47-4.69,10.47-10.47S72.1-10.47,66.31-10.47S55.84-5.78,55.84,0S60.53,10.47,66.31,10.47z M104.41,10.47
		c5.78,0,10.47-4.69,10.47-10.47s-4.69-10.47-10.47-10.47S93.94-5.78,93.94,0S98.63,10.47,104.41,10.47z M142.5,10.47
		c5.78,0,10.47-4.69,10.47-10.47s-4.69-10.47-10.47-10.47S132.04-5.78,132.04,0S136.72,10.47,142.5,10.47z M180.6,10.47
		c5.78,0,10.47-4.69,10.47-10.47s-4.69-10.47-10.47-10.47S170.13-5.78,170.13,0S174.82,10.47,180.6,10.47z M218.69,10.47
		c5.78,0,10.47-4.69,10.47-10.47s-4.69-10.47-10.47-10.47S208.23-5.78,208.23,0S212.91,10.47,218.69,10.47z M256.79,10.47
		c5.78,0,10.47-4.69,10.47-10.47s-4.69-10.47-10.47-10.47c-5.78,0-10.47,4.69-10.47,10.47S251.01,10.47,256.79,10.47z M294.89,10.47
		c5.78,0,10.47-4.69,10.47-10.47s-4.69-10.47-10.47-10.47c-5.78,0-10.47,4.69-10.47,10.47S289.1,10.47,294.89,10.47z M332.98,10.47
		c5.78,0,10.47-4.69,10.47-10.47s-4.69-10.47-10.47-10.47c-5.78,0-10.47,4.69-10.47,10.47S327.2,10.47,332.98,10.47z M371.08,10.47
		c5.78,0,10.47-4.69,10.47-10.47s-4.69-10.47-10.47-10.47c-5.78,0-10.47,4.69-10.47,10.47S365.29,10.47,371.08,10.47z M409.17,10.47
		c5.78,0,10.47-4.69,10.47-10.47s-4.69-10.47-10.47-10.47c-5.78,0-10.47,4.69-10.47,10.47S403.39,10.47,409.17,10.47z M447.27,10.47
		c5.78,0,10.47-4.69,10.47-10.47s-4.69-10.47-10.47-10.47c-5.78,0-10.47,4.69-10.47,10.47S441.48,10.47,447.27,10.47z M485.36,10.47
		c5.78,0,10.47-4.69,10.47-10.47s-4.69-10.47-10.47-10.47c-5.78,0-10.47,4.69-10.47,10.47S479.58,10.47,485.36,10.47z M523.46,10.47
		c5.78,0,10.47-4.69,10.47-10.47s-4.69-10.47-10.47-10.47c-5.78,0-10.47,4.69-10.47,10.47S517.67,10.47,523.46,10.47z M561.55,10.47
		c5.78,0,10.47-4.69,10.47-10.47s-4.69-10.47-10.47-10.47S551.08-5.78,551.08,0S555.77,10.47,561.55,10.47z M599.65,10.47
		c5.78,0,10.47-4.69,10.47-10.47s-4.69-10.47-10.47-10.47c-5.78,0-10.47,4.69-10.47,10.47S593.87,10.47,599.65,10.47z M637.74,10.47
		c5.78,0,10.47-4.69,10.47-10.47s-4.69-10.47-10.47-10.47S627.27-5.78,627.27,0S631.96,10.47,637.74,10.47z M675.84,10.47
		c5.78,0,10.47-4.69,10.47-10.47s-4.69-10.47-10.47-10.47S665.37-5.78,665.37,0S670.06,10.47,675.84,10.47z M713.93,10.47
		c5.78,0,10.47-4.69,10.47-10.47s-4.69-10.47-10.47-10.47c-5.78,0-10.47,4.69-10.47,10.47S708.15,10.47,713.93,10.47z M752.03,10.47
		c5.78,0,10.47-4.69,10.47-10.47s-4.69-10.47-10.47-10.47S741.56-5.78,741.56,0S746.25,10.47,752.03,10.47z M790.12,10.47
		c5.78,0,10.47-4.69,10.47-10.47s-4.69-10.47-10.47-10.47c-5.78,0-10.47,4.69-10.47,10.47S784.34,10.47,790.12,10.47z M9.88,36.04
		c5.78,0,10.47-4.69,10.47-10.47S15.66,15.1,9.88,15.1S-0.59,19.79-0.59,25.57S4.09,36.04,9.88,36.04z M47.97,36.04
		c5.78,0,10.47-4.69,10.47-10.47S53.75,15.1,47.97,15.1S37.5,19.79,37.5,25.57S42.19,36.04,47.97,36.04z M86.07,36.04
		c5.78,0,10.47-4.69,10.47-10.47S91.85,15.1,86.07,15.1S75.6,19.79,75.6,25.57S80.29,36.04,86.07,36.04z M124.16,36.04
		c5.78,0,10.47-4.69,10.47-10.47s-4.69-10.47-10.47-10.47c-5.78,0-10.47,4.69-10.47,10.47S118.38,36.04,124.16,36.04z M162.26,36.04
		c5.78,0,10.47-4.69,10.47-10.47s-4.69-10.47-10.47-10.47s-10.47,4.69-10.47,10.47S156.48,36.04,162.26,36.04z M200.35,36.04
		c5.78,0,10.47-4.69,10.47-10.47s-4.69-10.47-10.47-10.47s-10.47,4.69-10.47,10.47S194.57,36.04,200.35,36.04z M238.45,36.04
		c5.78,0,10.47-4.69,10.47-10.47s-4.69-10.47-10.47-10.47s-10.47,4.69-10.47,10.47S232.67,36.04,238.45,36.04z M276.54,36.04
		c5.78,0,10.47-4.69,10.47-10.47s-4.69-10.47-10.47-10.47c-5.78,0-10.47,4.69-10.47,10.47S270.76,36.04,276.54,36.04z M314.64,36.04
		c5.78,0,10.47-4.69,10.47-10.47s-4.69-10.47-10.47-10.47c-5.78,0-10.47,4.69-10.47,10.47S308.86,36.04,314.64,36.04z M352.73,36.04
		c5.78,0,10.47-4.69,10.47-10.47s-4.69-10.47-10.47-10.47c-5.78,0-10.47,4.69-10.47,10.47S346.95,36.04,352.73,36.04z M390.83,36.04
		c5.78,0,10.47-4.69,10.47-10.47s-4.69-10.47-10.47-10.47c-5.78,0-10.47,4.69-10.47,10.47S385.05,36.04,390.83,36.04z M428.92,36.04
		c5.78,0,10.47-4.69,10.47-10.47s-4.69-10.47-10.47-10.47c-5.78,0-10.47,4.69-10.47,10.47S423.14,36.04,428.92,36.04z M467.02,36.04
		c5.78,0,10.47-4.69,10.47-10.47S472.8,15.1,467.02,15.1c-5.78,0-10.47,4.69-10.47,10.47S461.24,36.04,467.02,36.04z M505.11,36.04
		c5.78,0,10.47-4.69,10.47-10.47S510.9,15.1,505.11,15.1c-5.78,0-10.47,4.69-10.47,10.47S499.33,36.04,505.11,36.04z M543.21,36.04
		c5.78,0,10.47-4.69,10.47-10.47s-4.69-10.47-10.47-10.47s-10.47,4.69-10.47,10.47S537.43,36.04,543.21,36.04z M581.31,36.04
		c5.78,0,10.47-4.69,10.47-10.47s-4.69-10.47-10.47-10.47c-5.78,0-10.47,4.69-10.47,10.47S575.52,36.04,581.31,36.04z M619.4,36.04
		c5.78,0,10.47-4.69,10.47-10.47S625.18,15.1,619.4,15.1s-10.47,4.69-10.47,10.47S613.62,36.04,619.4,36.04z M657.5,36.04
		c5.78,0,10.47-4.69,10.47-10.47S663.28,15.1,657.5,15.1s-10.47,4.69-10.47,10.47S651.71,36.04,657.5,36.04z M695.59,36.04
		c5.78,0,10.47-4.69,10.47-10.47s-4.69-10.47-10.47-10.47c-5.78,0-10.47,4.69-10.47,10.47S689.81,36.04,695.59,36.04z M733.69,36.04
		c5.78,0,10.47-4.69,10.47-10.47s-4.69-10.47-10.47-10.47s-10.47,4.69-10.47,10.47S727.9,36.04,733.69,36.04z M771.78,36.04
		c5.78,0,10.47-4.69,10.47-10.47s-4.69-10.47-10.47-10.47c-5.78,0-10.47,4.69-10.47,10.47S766,36.04,771.78,36.04z M809.88,36.04
		c5.78,0,10.47-4.69,10.47-10.47s-4.69-10.47-10.47-10.47c-5.78,0-10.47,4.69-10.47,10.47S804.09,36.04,809.88,36.04z M-9.88,61.62
		c5.78,0,10.47-4.69,10.47-10.47S-4.09,40.68-9.88,40.68s-10.47,4.69-10.47,10.47S-15.66,61.62-9.88,61.62z M28.22,61.62
		c5.78,0,10.47-4.69,10.47-10.47S34,40.68,28.22,40.68s-10.47,4.69-10.47,10.47S22.44,61.62,28.22,61.62z M66.31,61.62
		c5.78,0,10.47-4.69,10.47-10.47S72.1,40.68,66.31,40.68s-10.47,4.69-10.47,10.47S60.53,61.62,66.31,61.62z M104.41,61.62
		c5.78,0,10.47-4.69,10.47-10.47s-4.69-10.47-10.47-10.47s-10.47,4.69-10.47,10.47S98.63,61.62,104.41,61.62z M142.5,61.62
		c5.78,0,10.47-4.69,10.47-10.47s-4.69-10.47-10.47-10.47s-10.47,4.69-10.47,10.47S136.72,61.62,142.5,61.62z M180.6,61.62
		c5.78,0,10.47-4.69,10.47-10.47s-4.69-10.47-10.47-10.47s-10.47,4.69-10.47,10.47S174.82,61.62,180.6,61.62z M218.69,61.62
		c5.78,0,10.47-4.69,10.47-10.47s-4.69-10.47-10.47-10.47s-10.47,4.69-10.47,10.47S212.91,61.62,218.69,61.62z M256.79,61.62
		c5.78,0,10.47-4.69,10.47-10.47s-4.69-10.47-10.47-10.47c-5.78,0-10.47,4.69-10.47,10.47S251.01,61.62,256.79,61.62z M294.89,61.62
		c5.78,0,10.47-4.69,10.47-10.47s-4.69-10.47-10.47-10.47c-5.78,0-10.47,4.69-10.47,10.47S289.1,61.62,294.89,61.62z M332.98,61.62
		c5.78,0,10.47-4.69,10.47-10.47s-4.69-10.47-10.47-10.47c-5.78,0-10.47,4.69-10.47,10.47S327.2,61.62,332.98,61.62z M371.08,61.62
		c5.78,0,10.47-4.69,10.47-10.47s-4.69-10.47-10.47-10.47c-5.78,0-10.47,4.69-10.47,10.47S365.29,61.62,371.08,61.62z M409.17,61.62
		c5.78,0,10.47-4.69,10.47-10.47s-4.69-10.47-10.47-10.47c-5.78,0-10.47,4.69-10.47,10.47S403.39,61.62,409.17,61.62z M447.27,61.62
		c5.78,0,10.47-4.69,10.47-10.47s-4.69-10.47-10.47-10.47c-5.78,0-10.47,4.69-10.47,10.47S441.48,61.62,447.27,61.62z M485.36,61.62
		c5.78,0,10.47-4.69,10.47-10.47s-4.69-10.47-10.47-10.47c-5.78,0-10.47,4.69-10.47,10.47S479.58,61.62,485.36,61.62z M523.46,61.62
		c5.78,0,10.47-4.69,10.47-10.47s-4.69-10.47-10.47-10.47c-5.78,0-10.47,4.69-10.47,10.47S517.67,61.62,523.46,61.62z M561.55,61.62
		c5.78,0,10.47-4.69,10.47-10.47s-4.69-10.47-10.47-10.47s-10.47,4.69-10.47,10.47S555.77,61.62,561.55,61.62z M599.65,61.62
		c5.78,0,10.47-4.69,10.47-10.47s-4.69-10.47-10.47-10.47c-5.78,0-10.47,4.69-10.47,10.47S593.87,61.62,599.65,61.62z M637.74,61.62
		c5.78,0,10.47-4.69,10.47-10.47s-4.69-10.47-10.47-10.47s-10.47,4.69-10.47,10.47S631.96,61.62,637.74,61.62z M675.84,61.62
		c5.78,0,10.47-4.69,10.47-10.47s-4.69-10.47-10.47-10.47s-10.47,4.69-10.47,10.47S670.06,61.62,675.84,61.62z M713.93,61.62
		c5.78,0,10.47-4.69,10.47-10.47s-4.69-10.47-10.47-10.47c-5.78,0-10.47,4.69-10.47,10.47S708.15,61.62,713.93,61.62z M752.03,61.62
		c5.78,0,10.47-4.69,10.47-10.47s-4.69-10.47-10.47-10.47s-10.47,4.69-10.47,10.47S746.25,61.62,752.03,61.62z M790.12,61.62
		c5.78,0,10.47-4.69,10.47-10.47s-4.69-10.47-10.47-10.47c-5.78,0-10.47,4.69-10.47,10.47S784.34,61.62,790.12,61.62z M9.88,87.19
		c5.78,0,10.47-4.69,10.47-10.47S15.66,66.25,9.88,66.25S-0.59,70.94-0.59,76.72S4.09,87.19,9.88,87.19z M47.97,87.19
		c5.78,0,10.47-4.69,10.47-10.47s-4.69-10.47-10.47-10.47S37.5,70.94,37.5,76.72S42.19,87.19,47.97,87.19z M86.07,87.19
		c5.78,0,10.47-4.69,10.47-10.47s-4.69-10.47-10.47-10.47S75.6,70.94,75.6,76.72S80.29,87.19,86.07,87.19z M124.16,87.19
		c5.78,0,10.47-4.69,10.47-10.47s-4.69-10.47-10.47-10.47c-5.78,0-10.47,4.69-10.47,10.47S118.38,87.19,124.16,87.19z M162.26,87.19
		c5.78,0,10.47-4.69,10.47-10.47s-4.69-10.47-10.47-10.47s-10.47,4.69-10.47,10.47S156.48,87.19,162.26,87.19z M200.35,87.19
		c5.78,0,10.47-4.69,10.47-10.47s-4.69-10.47-10.47-10.47s-10.47,4.69-10.47,10.47S194.57,87.19,200.35,87.19z M238.45,87.19
		c5.78,0,10.47-4.69,10.47-10.47s-4.69-10.47-10.47-10.47s-10.47,4.69-10.47,10.47S232.67,87.19,238.45,87.19z M276.54,87.19
		c5.78,0,10.47-4.69,10.47-10.47s-4.69-10.47-10.47-10.47c-5.78,0-10.47,4.69-10.47,10.47S270.76,87.19,276.54,87.19z M314.64,87.19
		c5.78,0,10.47-4.69,10.47-10.47s-4.69-10.47-10.47-10.47c-5.78,0-10.47,4.69-10.47,10.47S308.86,87.19,314.64,87.19z M352.73,87.19
		c5.78,0,10.47-4.69,10.47-10.47s-4.69-10.47-10.47-10.47c-5.78,0-10.47,4.69-10.47,10.47S346.95,87.19,352.73,87.19z M390.83,87.19
		c5.78,0,10.47-4.69,10.47-10.47s-4.69-10.47-10.47-10.47c-5.78,0-10.47,4.69-10.47,10.47S385.05,87.19,390.83,87.19z M428.92,87.19
		c5.78,0,10.47-4.69,10.47-10.47s-4.69-10.47-10.47-10.47c-5.78,0-10.47,4.69-10.47,10.47S423.14,87.19,428.92,87.19z M467.02,87.19
		c5.78,0,10.47-4.69,10.47-10.47s-4.69-10.47-10.47-10.47c-5.78,0-10.47,4.69-10.47,10.47S461.24,87.19,467.02,87.19z M505.11,87.19
		c5.78,0,10.47-4.69,10.47-10.47s-4.69-10.47-10.47-10.47c-5.78,0-10.47,4.69-10.47,10.47S499.33,87.19,505.11,87.19z M543.21,87.19
		c5.78,0,10.47-4.69,10.47-10.47s-4.69-10.47-10.47-10.47s-10.47,4.69-10.47,10.47S537.43,87.19,543.21,87.19z M581.31,87.19
		c5.78,0,10.47-4.69,10.47-10.47s-4.69-10.47-10.47-10.47c-5.78,0-10.47,4.69-10.47,10.47S575.52,87.19,581.31,87.19z M619.4,87.19
		c5.78,0,10.47-4.69,10.47-10.47s-4.69-10.47-10.47-10.47s-10.47,4.69-10.47,10.47S613.62,87.19,619.4,87.19z M657.5,87.19
		c5.78,0,10.47-4.69,10.47-10.47s-4.69-10.47-10.47-10.47s-10.47,4.69-10.47,10.47S651.71,87.19,657.5,87.19z M695.59,87.19
		c5.78,0,10.47-4.69,10.47-10.47s-4.69-10.47-10.47-10.47c-5.78,0-10.47,4.69-10.47,10.47S689.81,87.19,695.59,87.19z M733.69,87.19
		c5.78,0,10.47-4.69,10.47-10.47s-4.69-10.47-10.47-10.47s-10.47,4.69-10.47,10.47S727.9,87.19,733.69,87.19z M771.78,87.19
		c5.78,0,10.47-4.69,10.47-10.47s-4.69-10.47-10.47-10.47c-5.78,0-10.47,4.69-10.47,10.47S766,87.19,771.78,87.19z M809.88,87.19
		c5.78,0,10.47-4.69,10.47-10.47s-4.69-10.47-10.47-10.47c-5.78,0-10.47,4.69-10.47,10.47S804.09,87.19,809.88,87.19z M-9.88,112.76
		c5.78,0,10.47-4.69,10.47-10.47S-4.09,91.83-9.88,91.83s-10.47,4.69-10.47,10.47S-15.66,112.76-9.88,112.76z M28.22,112.76
		c5.78,0,10.47-4.69,10.47-10.47S34,91.83,28.22,91.83s-10.47,4.69-10.47,10.47S22.44,112.76,28.22,112.76z M66.31,112.76
		c5.78,0,10.47-4.69,10.47-10.47S72.1,91.83,66.31,91.83s-10.47,4.69-10.47,10.47S60.53,112.76,66.31,112.76z M104.41,112.76
		c5.78,0,10.47-4.69,10.47-10.47s-4.69-10.47-10.47-10.47s-10.47,4.69-10.47,10.47S98.63,112.76,104.41,112.76z M142.5,112.76
		c5.78,0,10.47-4.69,10.47-10.47s-4.69-10.47-10.47-10.47s-10.47,4.69-10.47,10.47S136.72,112.76,142.5,112.76z M180.6,112.76
		c5.78,0,10.47-4.69,10.47-10.47s-4.69-10.47-10.47-10.47s-10.47,4.69-10.47,10.47S174.82,112.76,180.6,112.76z M218.69,112.76
		c5.78,0,10.47-4.69,10.47-10.47s-4.69-10.47-10.47-10.47s-10.47,4.69-10.47,10.47S212.91,112.76,218.69,112.76z M256.79,112.76
		c5.78,0,10.47-4.69,10.47-10.47s-4.69-10.47-10.47-10.47c-5.78,0-10.47,4.69-10.47,10.47S251.01,112.76,256.79,112.76z
		 M294.89,112.76c5.78,0,10.47-4.69,10.47-10.47s-4.69-10.47-10.47-10.47c-5.78,0-10.47,4.69-10.47,10.47
		S289.1,112.76,294.89,112.76z M332.98,112.76c5.78,0,10.47-4.69,10.47-10.47s-4.69-10.47-10.47-10.47
		c-5.78,0-10.47,4.69-10.47,10.47S327.2,112.76,332.98,112.76z M371.08,112.76c5.78,0,10.47-4.69,10.47-10.47
		s-4.69-10.47-10.47-10.47c-5.78,0-10.47,4.69-10.47,10.47S365.29,112.76,371.08,112.76z M409.17,112.76
		c5.78,0,10.47-4.69,10.47-10.47s-4.69-10.47-10.47-10.47c-5.78,0-10.47,4.69-10.47,10.47S403.39,112.76,409.17,112.76z
		 M447.27,112.76c5.78,0,10.47-4.69,10.47-10.47s-4.69-10.47-10.47-10.47c-5.78,0-10.47,4.69-10.47,10.47
		S441.48,112.76,447.27,112.76z M485.36,112.76c5.78,0,10.47-4.69,10.47-10.47s-4.69-10.47-10.47-10.47
		c-5.78,0-10.47,4.69-10.47,10.47S479.58,112.76,485.36,112.76z M523.46,112.76c5.78,0,10.47-4.69,10.47-10.47
		s-4.69-10.47-10.47-10.47c-5.78,0-10.47,4.69-10.47,10.47S517.67,112.76,523.46,112.76z M561.55,112.76
		c5.78,0,10.47-4.69,10.47-10.47s-4.69-10.47-10.47-10.47s-10.47,4.69-10.47,10.47S555.77,112.76,561.55,112.76z M599.65,112.76
		c5.78,0,10.47-4.69,10.47-10.47s-4.69-10.47-10.47-10.47c-5.78,0-10.47,4.69-10.47,10.47S593.87,112.76,599.65,112.76z
		 M637.74,112.76c5.78,0,10.47-4.69,10.47-10.47s-4.69-10.47-10.47-10.47s-10.47,4.69-10.47,10.47S631.96,112.76,637.74,112.76z
		 M675.84,112.76c5.78,0,10.47-4.69,10.47-10.47s-4.69-10.47-10.47-10.47s-10.47,4.69-10.47,10.47S670.06,112.76,675.84,112.76z
		 M713.93,112.76c5.78,0,10.47-4.69,10.47-10.47s-4.69-10.47-10.47-10.47c-5.78,0-10.47,4.69-10.47,10.47
		S708.15,112.76,713.93,112.76z M752.03,112.76c5.78,0,10.47-4.69,10.47-10.47s-4.69-10.47-10.47-10.47s-10.47,4.69-10.47,10.47
		S746.25,112.76,752.03,112.76z M790.12,112.76c5.78,0,10.47-4.69,10.47-10.47s-4.69-10.47-10.47-10.47
		c-5.78,0-10.47,4.69-10.47,10.47S784.34,112.76,790.12,112.76z M9.88,138.34c5.78,0,10.47-4.69,10.47-10.47
		c0-5.78-4.69-10.47-10.47-10.47s-10.47,4.69-10.47,10.47C-0.59,133.65,4.09,138.34,9.88,138.34z M47.97,138.34
		c5.78,0,10.47-4.69,10.47-10.47c0-5.78-4.69-10.47-10.47-10.47s-10.47,4.69-10.47,10.47C37.5,133.65,42.19,138.34,47.97,138.34z
		 M86.07,138.34c5.78,0,10.47-4.69,10.47-10.47c0-5.78-4.69-10.47-10.47-10.47s-10.47,4.69-10.47,10.47
		C75.6,133.65,80.29,138.34,86.07,138.34z M124.16,138.34c5.78,0,10.47-4.69,10.47-10.47c0-5.78-4.69-10.47-10.47-10.47
		c-5.78,0-10.47,4.69-10.47,10.47C113.69,133.65,118.38,138.34,124.16,138.34z M162.26,138.34c5.78,0,10.47-4.69,10.47-10.47
		c0-5.78-4.69-10.47-10.47-10.47s-10.47,4.69-10.47,10.47C151.79,133.65,156.48,138.34,162.26,138.34z M200.35,138.34
		c5.78,0,10.47-4.69,10.47-10.47c0-5.78-4.69-10.47-10.47-10.47s-10.47,4.69-10.47,10.47C189.88,133.65,194.57,138.34,200.35,138.34
		z M238.45,138.34c5.78,0,10.47-4.69,10.47-10.47c0-5.78-4.69-10.47-10.47-10.47s-10.47,4.69-10.47,10.47
		C227.98,133.65,232.67,138.34,238.45,138.34z M276.54,138.34c5.78,0,10.47-4.69,10.47-10.47c0-5.78-4.69-10.47-10.47-10.47
		c-5.78,0-10.47,4.69-10.47,10.47C266.07,133.65,270.76,138.34,276.54,138.34z M314.64,138.34c5.78,0,10.47-4.69,10.47-10.47
		c0-5.78-4.69-10.47-10.47-10.47c-5.78,0-10.47,4.69-10.47,10.47C304.17,133.65,308.86,138.34,314.64,138.34z M352.73,138.34
		c5.78,0,10.47-4.69,10.47-10.47c0-5.78-4.69-10.47-10.47-10.47c-5.78,0-10.47,4.69-10.47,10.47
		C342.26,133.65,346.95,138.34,352.73,138.34z M390.83,138.34c5.78,0,10.47-4.69,10.47-10.47c0-5.78-4.69-10.47-10.47-10.47
		c-5.78,0-10.47,4.69-10.47,10.47C380.36,133.65,385.05,138.34,390.83,138.34z M428.92,138.34c5.78,0,10.47-4.69,10.47-10.47
		c0-5.78-4.69-10.47-10.47-10.47c-5.78,0-10.47,4.69-10.47,10.47C418.46,133.65,423.14,138.34,428.92,138.34z M467.02,138.34
		c5.78,0,10.47-4.69,10.47-10.47c0-5.78-4.69-10.47-10.47-10.47c-5.78,0-10.47,4.69-10.47,10.47
		C456.55,133.65,461.24,138.34,467.02,138.34z M505.11,138.34c5.78,0,10.47-4.69,10.47-10.47c0-5.78-4.69-10.47-10.47-10.47
		c-5.78,0-10.47,4.69-10.47,10.47C494.65,133.65,499.33,138.34,505.11,138.34z M543.21,138.34c5.78,0,10.47-4.69,10.47-10.47
		c0-5.78-4.69-10.47-10.47-10.47s-10.47,4.69-10.47,10.47C532.74,133.65,537.43,138.34,543.21,138.34z M581.31,138.34
		c5.78,0,10.47-4.69,10.47-10.47c0-5.78-4.69-10.47-10.47-10.47c-5.78,0-10.47,4.69-10.47,10.47
		C570.84,133.65,575.52,138.34,581.31,138.34z M619.4,138.34c5.78,0,10.47-4.69,10.47-10.47c0-5.78-4.69-10.47-10.47-10.47
		s-10.47,4.69-10.47,10.47C608.93,133.65,613.62,138.34,619.4,138.34z M657.5,138.34c5.78,0,10.47-4.69,10.47-10.47
		c0-5.78-4.69-10.47-10.47-10.47s-10.47,4.69-10.47,10.47C647.03,133.65,651.71,138.34,657.5,138.34z M695.59,138.34
		c5.78,0,10.47-4.69,10.47-10.47c0-5.78-4.69-10.47-10.47-10.47c-5.78,0-10.47,4.69-10.47,10.47
		C685.12,133.65,689.81,138.34,695.59,138.34z M733.69,138.34c5.78,0,10.47-4.69,10.47-10.47c0-5.78-4.69-10.47-10.47-10.47
		s-10.47,4.69-10.47,10.47C723.22,133.65,727.9,138.34,733.69,138.34z M771.78,138.34c5.78,0,10.47-4.69,10.47-10.47
		c0-5.78-4.69-10.47-10.47-10.47c-5.78,0-10.47,4.69-10.47,10.47C761.31,133.65,766,138.34,771.78,138.34z M809.88,138.34
		c5.78,0,10.47-4.69,10.47-10.47c0-5.78-4.69-10.47-10.47-10.47c-5.78,0-10.47,4.69-10.47,10.47
		C799.41,133.65,804.09,138.34,809.88,138.34z M-9.88,163.91c5.78,0,10.47-4.69,10.47-10.47s-4.69-10.47-10.47-10.47
		s-10.47,4.69-10.47,10.47S-15.66,163.91-9.88,163.91z M28.22,163.91c5.78,0,10.47-4.69,10.47-10.47S34,142.97,28.22,142.97
		s-10.47,4.69-10.47,10.47S22.44,163.91,28.22,163.91z M66.31,163.91c5.78,0,10.47-4.69,10.47-10.47s-4.69-10.47-10.47-10.47
		s-10.47,4.69-10.47,10.47S60.53,163.91,66.31,163.91z M104.41,163.91c5.78,0,10.47-4.69,10.47-10.47s-4.69-10.47-10.47-10.47
		s-10.47,4.69-10.47,10.47S98.63,163.91,104.41,163.91z M142.5,163.91c5.78,0,10.47-4.69,10.47-10.47s-4.69-10.47-10.47-10.47
		s-10.47,4.69-10.47,10.47S136.72,163.91,142.5,163.91z M180.6,163.91c5.78,0,10.47-4.69,10.47-10.47s-4.69-10.47-10.47-10.47
		s-10.47,4.69-10.47,10.47S174.82,163.91,180.6,163.91z M218.69,163.91c5.78,0,10.47-4.69,10.47-10.47s-4.69-10.47-10.47-10.47
		s-10.47,4.69-10.47,10.47S212.91,163.91,218.69,163.91z M256.79,163.91c5.78,0,10.47-4.69,10.47-10.47s-4.69-10.47-10.47-10.47
		c-5.78,0-10.47,4.69-10.47,10.47S251.01,163.91,256.79,163.91z M294.89,163.91c5.78,0,10.47-4.69,10.47-10.47
		s-4.69-10.47-10.47-10.47c-5.78,0-10.47,4.69-10.47,10.47S289.1,163.91,294.89,163.91z M332.98,163.91
		c5.78,0,10.47-4.69,10.47-10.47s-4.69-10.47-10.47-10.47c-5.78,0-10.47,4.69-10.47,10.47S327.2,163.91,332.98,163.91z
		 M371.08,163.91c5.78,0,10.47-4.69,10.47-10.47s-4.69-10.47-10.47-10.47c-5.78,0-10.47,4.69-10.47,10.47
		S365.29,163.91,371.08,163.91z M409.17,163.91c5.78,0,10.47-4.69,10.47-10.47s-4.69-10.47-10.47-10.47
		c-5.78,0-10.47,4.69-10.47,10.47S403.39,163.91,409.17,163.91z M447.27,163.91c5.78,0,10.47-4.69,10.47-10.47
		s-4.69-10.47-10.47-10.47c-5.78,0-10.47,4.69-10.47,10.47S441.48,163.91,447.27,163.91z M485.36,163.91
		c5.78,0,10.47-4.69,10.47-10.47s-4.69-10.47-10.47-10.47c-5.78,0-10.47,4.69-10.47,10.47S479.58,163.91,485.36,163.91z
		 M523.46,163.91c5.78,0,10.47-4.69,10.47-10.47s-4.69-10.47-10.47-10.47c-5.78,0-10.47,4.69-10.47,10.47
		S517.67,163.91,523.46,163.91z M561.55,163.91c5.78,0,10.47-4.69,10.47-10.47s-4.69-10.47-10.47-10.47s-10.47,4.69-10.47,10.47
		S555.77,163.91,561.55,163.91z M599.65,163.91c5.78,0,10.47-4.69,10.47-10.47s-4.69-10.47-10.47-10.47
		c-5.78,0-10.47,4.69-10.47,10.47S593.87,163.91,599.65,163.91z M637.74,163.91c5.78,0,10.47-4.69,10.47-10.47
		s-4.69-10.47-10.47-10.47s-10.47,4.69-10.47,10.47S631.96,163.91,637.74,163.91z M675.84,163.91c5.78,0,10.47-4.69,10.47-10.47
		s-4.69-10.47-10.47-10.47s-10.47,4.69-10.47,10.47S670.06,163.91,675.84,163.91z M713.93,163.91c5.78,0,10.47-4.69,10.47-10.47
		s-4.69-10.47-10.47-10.47c-5.78,0-10.47,4.69-10.47,10.47S708.15,163.91,713.93,163.91z M752.03,163.91
		c5.78,0,10.47-4.69,10.47-10.47s-4.69-10.47-10.47-10.47s-10.47,4.69-10.47,10.47S746.25,163.91,752.03,163.91z M790.12,163.91
		c5.78,0,10.47-4.69,10.47-10.47s-4.69-10.47-10.47-10.47c-5.78,0-10.47,4.69-10.47,10.47S784.34,163.91,790.12,163.91z
		 M9.88,189.48c5.78,0,10.47-4.69,10.47-10.47s-4.69-10.47-10.47-10.47s-10.47,4.69-10.47,10.47S4.09,189.48,9.88,189.48z
		 M47.97,189.48c5.78,0,10.47-4.69,10.47-10.47s-4.69-10.47-10.47-10.47s-10.47,4.69-10.47,10.47S42.19,189.48,47.97,189.48z
		 M86.07,189.48c5.78,0,10.47-4.69,10.47-10.47s-4.69-10.47-10.47-10.47s-10.47,4.69-10.47,10.47S80.29,189.48,86.07,189.48z
		 M124.16,189.48c5.78,0,10.47-4.69,10.47-10.47s-4.69-10.47-10.47-10.47c-5.78,0-10.47,4.69-10.47,10.47
		S118.38,189.48,124.16,189.48z M162.26,189.48c5.78,0,10.47-4.69,10.47-10.47s-4.69-10.47-10.47-10.47s-10.47,4.69-10.47,10.47
		S156.48,189.48,162.26,189.48z M200.35,189.48c5.78,0,10.47-4.69,10.47-10.47s-4.69-10.47-10.47-10.47s-10.47,4.69-10.47,10.47
		S194.57,189.48,200.35,189.48z M238.45,189.48c5.78,0,10.47-4.69,10.47-10.47s-4.69-10.47-10.47-10.47s-10.47,4.69-10.47,10.47
		S232.67,189.48,238.45,189.48z M276.54,189.48c5.78,0,10.47-4.69,10.47-10.47s-4.69-10.47-10.47-10.47
		c-5.78,0-10.47,4.69-10.47,10.47S270.76,189.48,276.54,189.48z M314.64,189.48c5.78,0,10.47-4.69,10.47-10.47
		s-4.69-10.47-10.47-10.47c-5.78,0-10.47,4.69-10.47,10.47S308.86,189.48,314.64,189.48z M352.73,189.48
		c5.78,0,10.47-4.69,10.47-10.47s-4.69-10.47-10.47-10.47c-5.78,0-10.47,4.69-10.47,10.47S346.95,189.48,352.73,189.48z
		 M390.83,189.48c5.78,0,10.47-4.69,10.47-10.47s-4.69-10.47-10.47-10.47c-5.78,0-10.47,4.69-10.47,10.47
		S385.05,189.48,390.83,189.48z M428.92,189.48c5.78,0,10.47-4.69,10.47-10.47s-4.69-10.47-10.47-10.47
		c-5.78,0-10.47,4.69-10.47,10.47S423.14,189.48,428.92,189.48z M467.02,189.48c5.78,0,10.47-4.69,10.47-10.47
		s-4.69-10.47-10.47-10.47c-5.78,0-10.47,4.69-10.47,10.47S461.24,189.48,467.02,189.48z M505.11,189.48
		c5.78,0,10.47-4.69,10.47-10.47s-4.69-10.47-10.47-10.47c-5.78,0-10.47,4.69-10.47,10.47S499.33,189.48,505.11,189.48z
		 M543.21,189.48c5.78,0,10.47-4.69,10.47-10.47s-4.69-10.47-10.47-10.47s-10.47,4.69-10.47,10.47S537.43,189.48,543.21,189.48z
		 M581.31,189.48c5.78,0,10.47-4.69,10.47-10.47s-4.69-10.47-10.47-10.47c-5.78,0-10.47,4.69-10.47,10.47
		S575.52,189.48,581.31,189.48z M619.4,189.48c5.78,0,10.47-4.69,10.47-10.47s-4.69-10.47-10.47-10.47s-10.47,4.69-10.47,10.47
		S613.62,189.48,619.4,189.48z M657.5,189.48c5.78,0,10.47-4.69,10.47-10.47s-4.69-10.47-10.47-10.47s-10.47,4.69-10.47,10.47
		S651.71,189.48,657.5,189.48z M695.59,189.48c5.78,0,10.47-4.69,10.47-10.47s-4.69-10.47-10.47-10.47
		c-5.78,0-10.47,4.69-10.47,10.47S689.81,189.48,695.59,189.48z M733.69,189.48c5.78,0,10.47-4.69,10.47-10.47
		s-4.69-10.47-10.47-10.47s-10.47,4.69-10.47,10.47S727.9,189.48,733.69,189.48z M771.78,189.48c5.78,0,10.47-4.69,10.47-10.47
		s-4.69-10.47-10.47-10.47c-5.78,0-10.47,4.69-10.47,10.47S766,189.48,771.78,189.48z M809.88,189.48c5.78,0,10.47-4.69,10.47-10.47
		s-4.69-10.47-10.47-10.47c-5.78,0-10.47,4.69-10.47,10.47S804.09,189.48,809.88,189.48z M-9.88,215.06
		c5.78,0,10.47-4.69,10.47-10.47s-4.69-10.47-10.47-10.47s-10.47,4.69-10.47,10.47S-15.66,215.06-9.88,215.06z M28.22,215.06
		c5.78,0,10.47-4.69,10.47-10.47S34,194.12,28.22,194.12s-10.47,4.69-10.47,10.47S22.44,215.06,28.22,215.06z M66.31,215.06
		c5.78,0,10.47-4.69,10.47-10.47s-4.69-10.47-10.47-10.47s-10.47,4.69-10.47,10.47S60.53,215.06,66.31,215.06z M104.41,215.06
		c5.78,0,10.47-4.69,10.47-10.47s-4.69-10.47-10.47-10.47s-10.47,4.69-10.47,10.47S98.63,215.06,104.41,215.06z M142.5,215.06
		c5.78,0,10.47-4.69,10.47-10.47s-4.69-10.47-10.47-10.47s-10.47,4.69-10.47,10.47S136.72,215.06,142.5,215.06z M180.6,215.06
		c5.78,0,10.47-4.69,10.47-10.47s-4.69-10.47-10.47-10.47s-10.47,4.69-10.47,10.47S174.82,215.06,180.6,215.06z M218.69,215.06
		c5.78,0,10.47-4.69,10.47-10.47s-4.69-10.47-10.47-10.47s-10.47,4.69-10.47,10.47S212.91,215.06,218.69,215.06z M256.79,215.06
		c5.78,0,10.47-4.69,10.47-10.47s-4.69-10.47-10.47-10.47c-5.78,0-10.47,4.69-10.47,10.47S251.01,215.06,256.79,215.06z
		 M294.89,215.06c5.78,0,10.47-4.69,10.47-10.47s-4.69-10.47-10.47-10.47c-5.78,0-10.47,4.69-10.47,10.47
		S289.1,215.06,294.89,215.06z M332.98,215.06c5.78,0,10.47-4.69,10.47-10.47s-4.69-10.47-10.47-10.47
		c-5.78,0-10.47,4.69-10.47,10.47S327.2,215.06,332.98,215.06z M371.08,215.06c5.78,0,10.47-4.69,10.47-10.47
		s-4.69-10.47-10.47-10.47c-5.78,0-10.47,4.69-10.47,10.47S365.29,215.06,371.08,215.06z M409.17,215.06
		c5.78,0,10.47-4.69,10.47-10.47s-4.69-10.47-10.47-10.47c-5.78,0-10.47,4.69-10.47,10.47S403.39,215.06,409.17,215.06z
		 M447.27,215.06c5.78,0,10.47-4.69,10.47-10.47s-4.69-10.47-10.47-10.47c-5.78,0-10.47,4.69-10.47,10.47
		S441.48,215.06,447.27,215.06z M485.36,215.06c5.78,0,10.47-4.69,10.47-10.47s-4.69-10.47-10.47-10.47
		c-5.78,0-10.47,4.69-10.47,10.47S479.58,215.06,485.36,215.06z M523.46,215.06c5.78,0,10.47-4.69,10.47-10.47
		s-4.69-10.47-10.47-10.47c-5.78,0-10.47,4.69-10.47,10.47S517.67,215.06,523.46,215.06z M561.55,215.06
		c5.78,0,10.47-4.69,10.47-10.47s-4.69-10.47-10.47-10.47s-10.47,4.69-10.47,10.47S555.77,215.06,561.55,215.06z M599.65,215.06
		c5.78,0,10.47-4.69,10.47-10.47s-4.69-10.47-10.47-10.47c-5.78,0-10.47,4.69-10.47,10.47S593.87,215.06,599.65,215.06z
		 M637.74,215.06c5.78,0,10.47-4.69,10.47-10.47s-4.69-10.47-10.47-10.47s-10.47,4.69-10.47,10.47S631.96,215.06,637.74,215.06z
		 M675.84,215.06c5.78,0,10.47-4.69,10.47-10.47s-4.69-10.47-10.47-10.47s-10.47,4.69-10.47,10.47S670.06,215.06,675.84,215.06z
		 M713.93,215.06c5.78,0,10.47-4.69,10.47-10.47s-4.69-10.47-10.47-10.47c-5.78,0-10.47,4.69-10.47,10.47
		S708.15,215.06,713.93,215.06z M752.03,215.06c5.78,0,10.47-4.69,10.47-10.47s-4.69-10.47-10.47-10.47s-10.47,4.69-10.47,10.47
		S746.25,215.06,752.03,215.06z M790.12,215.06c5.78,0,10.47-4.69,10.47-10.47s-4.69-10.47-10.47-10.47
		c-5.78,0-10.47,4.69-10.47,10.47S784.34,215.06,790.12,215.06z M9.88,240.63c5.78,0,10.47-4.69,10.47-10.47
		s-4.69-10.47-10.47-10.47s-10.47,4.69-10.47,10.47S4.09,240.63,9.88,240.63z M47.97,240.63c5.78,0,10.47-4.69,10.47-10.47
		s-4.69-10.47-10.47-10.47s-10.47,4.69-10.47,10.47S42.19,240.63,47.97,240.63z M86.07,240.63c5.78,0,10.47-4.69,10.47-10.47
		s-4.69-10.47-10.47-10.47s-10.47,4.69-10.47,10.47S80.29,240.63,86.07,240.63z M124.16,240.63c5.78,0,10.47-4.69,10.47-10.47
		s-4.69-10.47-10.47-10.47c-5.78,0-10.47,4.69-10.47,10.47S118.38,240.63,124.16,240.63z M162.26,240.63
		c5.78,0,10.47-4.69,10.47-10.47s-4.69-10.47-10.47-10.47s-10.47,4.69-10.47,10.47S156.48,240.63,162.26,240.63z M200.35,240.63
		c5.78,0,10.47-4.69,10.47-10.47s-4.69-10.47-10.47-10.47s-10.47,4.69-10.47,10.47S194.57,240.63,200.35,240.63z M238.45,240.63
		c5.78,0,10.47-4.69,10.47-10.47s-4.69-10.47-10.47-10.47s-10.47,4.69-10.47,10.47S232.67,240.63,238.45,240.63z M276.54,240.63
		c5.78,0,10.47-4.69,10.47-10.47s-4.69-10.47-10.47-10.47c-5.78,0-10.47,4.69-10.47,10.47S270.76,240.63,276.54,240.63z
		 M314.64,240.63c5.78,0,10.47-4.69,10.47-10.47s-4.69-10.47-10.47-10.47c-5.78,0-10.47,4.69-10.47,10.47
		S308.86,240.63,314.64,240.63z M352.73,240.63c5.78,0,10.47-4.69,10.47-10.47s-4.69-10.47-10.47-10.47
		c-5.78,0-10.47,4.69-10.47,10.47S346.95,240.63,352.73,240.63z M390.83,240.63c5.78,0,10.47-4.69,10.47-10.47
		s-4.69-10.47-10.47-10.47c-5.78,0-10.47,4.69-10.47,10.47S385.05,240.63,390.83,240.63z M428.92,240.63
		c5.78,0,10.47-4.69,10.47-10.47s-4.69-10.47-10.47-10.47c-5.78,0-10.47,4.69-10.47,10.47S423.14,240.63,428.92,240.63z
		 M467.02,240.63c5.78,0,10.47-4.69,10.47-10.47s-4.69-10.47-10.47-10.47c-5.78,0-10.47,4.69-10.47,10.47
		S461.24,240.63,467.02,240.63z M505.11,240.63c5.78,0,10.47-4.69,10.47-10.47s-4.69-10.47-10.47-10.47
		c-5.78,0-10.47,4.69-10.47,10.47S499.33,240.63,505.11,240.63z M543.21,240.63c5.78,0,10.47-4.69,10.47-10.47
		s-4.69-10.47-10.47-10.47s-10.47,4.69-10.47,10.47S537.43,240.63,543.21,240.63z M581.31,240.63c5.78,0,10.47-4.69,10.47-10.47
		s-4.69-10.47-10.47-10.47c-5.78,0-10.47,4.69-10.47,10.47S575.52,240.63,581.31,240.63z M619.4,240.63
		c5.78,0,10.47-4.69,10.47-10.47s-4.69-10.47-10.47-10.47s-10.47,4.69-10.47,10.47S613.62,240.63,619.4,240.63z M657.5,240.63
		c5.78,0,10.47-4.69,10.47-10.47s-4.69-10.47-10.47-10.47s-10.47,4.69-10.47,10.47S651.71,240.63,657.5,240.63z M695.59,240.63
		c5.78,0,10.47-4.69,10.47-10.47s-4.69-10.47-10.47-10.47c-5.78,0-10.47,4.69-10.47,10.47S689.81,240.63,695.59,240.63z
		 M733.69,240.63c5.78,0,10.47-4.69,10.47-10.47s-4.69-10.47-10.47-10.47s-10.47,4.69-10.47,10.47S727.9,240.63,733.69,240.63z
		 M771.78,240.63c5.78,0,10.47-4.69,10.47-10.47s-4.69-10.47-10.47-10.47c-5.78,0-10.47,4.69-10.47,10.47S766,240.63,771.78,240.63z
		 M809.88,240.63c5.78,0,10.47-4.69,10.47-10.47s-4.69-10.47-10.47-10.47c-5.78,0-10.47,4.69-10.47,10.47
		S804.09,240.63,809.88,240.63z"/>
	<title>featured-images</title>
	<g>
		<g>
			<path class="st2" d="M386.48,175.36l-0.59-0.59c-3.27-3.24-5.87-7.09-7.66-11.33c-0.33-0.78-1.09-1.29-1.94-1.29l-22.42,0.03
				c-6.96,0-12.6-5.63-12.6-12.59c0-6.96,5.63-12.6,12.59-12.6l37.88-0.01c6.95,0,12.58,5.63,12.59,12.58
				c0.14,4.55,3.8,8.2,8.34,8.33c2.02,0,3.96-0.73,5.49-2.05c1.81-1.59,2.84-3.88,2.85-6.29c0.01-2.12-0.22-4.23-0.69-6.29
				c-1.21-5.48-3.96-10.51-7.93-14.48c-5.5-5.52-12.98-8.61-20.78-8.6l-37.76,0.03c-7.78,0.01-15.23,3.1-20.73,8.6
				c-11.47,11.47-11.48,30.07,0,41.55c5.49,5.52,12.95,8.62,20.73,8.61l31.16-0.02c0.56,0,1.1-0.22,1.5-0.62
				C387.31,177.5,387.31,176.17,386.48,175.36z"/>
			<path class="st2" d="M332.84,170.76c-0.02-0.02-0.05-0.05-0.07-0.07c-11.64-11.64-11.64-30.58,0.01-42.22
				c5.63-5.63,13.11-8.73,21.07-8.74l37.76-0.03c7.85-0.02,15.53,3.15,21.08,8.7c0.01,0.01,0.03,0.02,0.04,0.04
				c4.04,4.04,6.83,9.13,8.06,14.71c0.47,2.1,0.7,4.25,0.7,6.4c0,2.54-1.1,4.97-3.01,6.65c-1.61,1.4-3.67,2.17-5.81,2.17
				c-4.81-0.14-8.68-4.01-8.82-8.8c-0.01-6.68-5.44-12.11-12.11-12.11l-37.88,0.01c-3.24,0-6.28,1.26-8.57,3.55
				c-2.29,2.29-3.55,5.33-3.54,8.57c0,3.24,1.26,6.28,3.55,8.57s5.33,3.55,8.57,3.54l22.42-0.03c1.05,0,1.98,0.62,2.39,1.58
				c1.76,4.16,4.27,7.89,7.47,11.09c0.03,0.03,0.06,0.06,0.09,0.09l0.59,0.59c0,0,0.01,0.01,0.01,0.01c1,1,1.01,2.63,0.01,3.64
				c-0.48,0.49-1.16,0.77-1.84,0.77l-31.16,0.02C346.02,179.45,338.37,176.29,332.84,170.76z M412,129.07
				c-5.37-5.37-12.81-8.43-20.4-8.42l-37.76,0.03c-7.7,0.01-14.94,3.02-20.39,8.46c-11.27,11.27-11.27,29.6,0,40.87
				c0.02,0.02,0.05,0.05,0.07,0.07c5.35,5.35,12.76,8.41,20.33,8.4l31.16-0.02c0.43,0,0.86-0.17,1.16-0.48
				c0.62-0.63,0.62-1.65-0.01-2.28c0,0,0,0-0.01-0.01l-0.6-0.6c-3.33-3.3-5.94-7.17-7.77-11.49c-0.25-0.61-0.84-1-1.5-1l-22.42,0.03
				c-3.49,0-6.78-1.36-9.25-3.83c-2.47-2.47-3.83-5.75-3.83-9.24c0-3.49,1.36-6.78,3.83-9.25c2.47-2.47,5.75-3.83,9.24-3.83
				l37.88-0.01c7.2,0,13.06,5.86,13.07,13.05c0.13,4.27,3.59,7.73,7.88,7.86c1.89,0,3.72-0.69,5.16-1.93
				c1.7-1.5,2.68-3.66,2.68-5.93c0.01-2.08-0.22-4.16-0.67-6.19c-1.19-5.41-3.89-10.33-7.8-14.24
				C412.03,129.1,412.02,129.08,412,129.07z"/>
		</g>
		<g>
			<path class="st2" d="M478.24,149.51c-0.01-16.23-13.17-29.37-29.39-29.36l-31.12,0c-0.86,0-1.63,0.53-1.94,1.32
				c-0.32,0.8-0.13,1.71,0.49,2.3l0.55,0.55c3.26,3.24,5.85,7.09,7.63,11.33c0.33,0.78,1.1,1.29,1.94,1.29l22.33,0
				c6.96,0,12.6,5.63,12.6,12.59c0,6.96-5.63,12.6-12.59,12.6l-27.82,0l-0.25,0.01l-9.7-0.02c-6.95,0-12.58-5.63-12.59-12.58
				c-0.14-4.55-3.8-8.2-8.34-8.33c-2.03,0-3.99,0.74-5.52,2.08c-1.81,1.59-2.84,3.88-2.85,6.29c-0.01,3.44,0.6,6.86,1.79,10.09
				c0.16,0.46,0.36,0.89,0.53,1.34c0.18,0.45,0.4,0.88,0.59,1.31c0.19,0.43,0.42,0.86,0.64,1.26l0.64,1.11
				c0.45,0.74,0.92,1.45,1.43,2.17c0.62,0.84,1.29,1.65,2,2.42l1.04,1.04l0.09,0.09l0.99,0.79c0.34,0.31,0.76,0.58,1.14,0.96
				l0.5,0.5l1.17,0.87l0.56,0.39l1.04,0.68l0.16,0.16c4.56,2.73,9.78,4.17,15.09,4.16l37.78-0.02
				C465.1,178.89,478.25,165.73,478.24,149.51z"/>
			<path class="st2" d="M390.11,170.76l-1.15-1.15c-0.73-0.79-1.42-1.62-2.05-2.47c-0.56-0.79-1.04-1.51-1.45-2.2l-0.64-1.12
				c-0.26-0.47-0.48-0.9-0.66-1.3c-0.07-0.15-0.14-0.31-0.22-0.46c-0.13-0.28-0.27-0.56-0.39-0.86c-0.06-0.15-0.12-0.29-0.18-0.44
				c-0.12-0.29-0.25-0.6-0.36-0.92c-1.21-3.29-1.82-6.74-1.81-10.25c0-2.54,1.1-4.97,3.01-6.65c1.62-1.42,3.69-2.2,5.84-2.2
				c4.81,0.14,8.68,4.01,8.82,8.8c0.01,6.68,5.44,12.11,12.11,12.11l9.69,0.02l0.27-0.01l27.82,0c6.68,0,12.11-5.44,12.11-12.12
				c0-6.68-5.44-12.12-12.12-12.11l-22.33,0c-1.05,0-1.98-0.62-2.39-1.58c-1.76-4.18-4.27-7.93-7.48-11.13
				c-0.02-0.02-0.03-0.03-0.05-0.05l-0.55-0.55c-0.76-0.73-0.99-1.84-0.6-2.82c0.39-0.98,1.33-1.62,2.39-1.62l31.12,0
				c16.46-0.01,29.87,13.38,29.87,29.84c0.01,16.46-13.38,29.87-29.84,29.87l-37.78,0.02c-5.4,0-10.7-1.46-15.34-4.23l-0.05-0.03
				l-0.17-0.17l-1-0.66l-0.59-0.4l-1.22-0.92l-0.5-0.5c-0.2-0.2-0.42-0.38-0.64-0.54c-0.16-0.12-0.32-0.25-0.48-0.39L390.11,170.76z
				 M395.53,144.07c-1.42-1.42-3.36-2.31-5.5-2.38c-1.9,0-3.75,0.7-5.19,1.96c-1.7,1.5-2.68,3.66-2.68,5.93
				c-0.01,3.4,0.59,6.73,1.76,9.92c0.11,0.3,0.22,0.58,0.35,0.87c0.06,0.15,0.12,0.3,0.18,0.45c0.11,0.27,0.24,0.54,0.36,0.81
				c0.08,0.16,0.15,0.32,0.22,0.48c0.17,0.37,0.38,0.79,0.62,1.22l0.64,1.11c0.4,0.66,0.86,1.36,1.4,2.13
				c0.6,0.81,1.27,1.61,1.97,2.37l1.1,1.09l1,0.79c0.13,0.12,0.28,0.24,0.43,0.36c0.22,0.18,0.48,0.38,0.72,0.62l0.48,0.48
				l1.14,0.85l0.56,0.38l1.07,0.7l0.16,0.16c4.47,2.66,9.59,4.07,14.8,4.06l37.78-0.02c15.94-0.01,28.89-12.98,28.88-28.92
				c-0.01-15.94-12.98-28.89-28.92-28.88l-31.12,0c-0.66,0-1.25,0.4-1.5,1.02c-0.25,0.61-0.11,1.29,0.36,1.75
				c0.01,0.01,0.02,0.02,0.02,0.02l0.56,0.56c3.31,3.31,5.92,7.17,7.74,11.49c0.25,0.61,0.84,1,1.5,1l22.33,0
				c7.21,0,13.08,5.86,13.08,13.07c0,7.21-5.86,13.08-13.07,13.08l-27.81,0l-0.27,0.01l-9.7-0.02c-7.2,0-13.06-5.86-13.07-13.06
				C397.84,147.41,396.94,145.48,395.53,144.07z"/>
		</g>
	</g>
	<g>
		<path class="st2" d="M287.76,141.23L201.4,54.88c-4.97-4.97-13.04-4.97-18.01,0l-85.95,85.95c-4.98,4.98-4.98,13.04,0,18.02
			l86.36,86.35c4.97,4.97,13.04,4.97,18.01,0l85.95-85.95C292.73,154.27,292.73,146.2,287.76,141.23"/>
		<path class="st3" d="M287.76,141.23L201.4,54.88c-4.97-4.97-13.04-4.97-18.01,0l-17.93,17.93l22.75,22.75
			c5.29-1.79,11.35-0.59,15.56,3.63c4.23,4.24,5.42,10.35,3.59,15.66l21.92,21.92c5.3-1.83,11.42-0.64,15.66,3.6
			c5.92,5.92,5.92,15.51,0,21.43c-5.92,5.92-15.51,5.92-21.44,0c-4.45-4.46-5.55-11-3.3-16.48l-20.44-20.44l0,53.8
			c1.44,0.72,2.81,1.67,4.01,2.87c5.92,5.92,5.92,15.51,0,21.44c-5.92,5.92-15.52,5.92-21.43,0c-5.92-5.93-5.92-15.52,0-21.44
			c1.46-1.46,3.16-2.57,4.96-3.31v-54.3c-1.81-0.74-3.5-1.84-4.96-3.31c-4.49-4.48-5.56-11.06-3.27-16.57l-22.42-22.43l-59.21,59.21
			c-4.98,4.98-4.98,13.04,0,18.02l86.36,86.35c4.97,4.97,13.04,4.97,18.01,0l85.95-85.95C292.73,154.27,292.73,146.2,287.76,141.23"
			/>
	</g>
	<g>
		<circle class="st2" cx="606.31" cy="153.94" r="81.2"/>
		<path class="st4" d="M591.56,169.58l0.06,0.08l-8.2,19.83c-7.67-4.92-13.78-12.29-17.05-21.34l21.18-3.59l0.04,0.04
			c0.24-0.04,0.48-0.07,0.71-0.06c1.63,0.02,3.09,1.15,3.47,2.81C591.94,168.13,591.85,168.9,591.56,169.58z M584.72,152.09
			c0.71-0.2,1.38-0.61,1.88-1.24c1.21-1.52,1-3.71-0.46-4.98l0.02-0.09l-16.11-14.41c-4.78,7.79-7.05,17.13-6,26.75l20.66-5.96
			L584.72,152.09z M612.7,132.99c0.03,0.74,0.29,1.47,0.79,2.1c1.21,1.52,3.41,1.8,4.96,0.67l0.06,0.03l17.53-12.43
			c-6.61-6.48-15.25-10.7-24.58-11.85l1.22,21.49L612.7,132.99z M600.37,158.42l5.94,2.86l5.93-2.85l1.47-6.4l-4.1-5.13h-6.6
			l-4.11,5.12L600.37,158.42z M594.13,135.83c0.6,0.44,1.33,0.69,2.13,0.69c1.95,0,3.53-1.54,3.61-3.46l0.09-0.04l1.22-21.52
			c-1.45,0.18-2.91,0.42-4.37,0.75c-8,1.82-14.93,5.76-20.36,11.09l17.65,12.51L594.13,135.83z M609.5,175.13
			c-0.35-0.65-0.9-1.2-1.62-1.54c-0.55-0.26-1.12-0.38-1.69-0.36c-1.25,0.05-2.44,0.74-3.06,1.91h-0.02l-10.41,18.83
			c7.21,2.46,15.17,3.01,23.15,1.19c1.42-0.32,2.82-0.71,4.17-1.17l-10.44-18.87H609.5z M702.04,182.03l-47.43,59
			c-2.45,3.04-6.33,4.89-10.25,4.88l-76.09,0.02c-3.92,0-7.8-1.85-10.25-4.89l-47.45-58.99c-0.26-0.33-0.51-0.68-0.75-1.03
			c-1.9-2.91-2.56-6.59-1.78-9.97l16.91-73.57c0.87-3.79,3.56-7.13,7.09-8.82l68.55-32.75c1.57-0.75,3.29-1.18,5.02-1.27
			c2.18-0.11,4.39,0.33,6.36,1.27l68.56,32.73c3.53,1.69,6.22,5.03,7.09,8.82l16.94,73.57
			C705.45,174.82,704.49,178.99,702.04,182.03z M675.03,165.13c-0.35-0.08-0.85-0.22-1.19-0.28c-1.43-0.27-2.59-0.2-3.94-0.32
			c-2.87-0.3-5.24-0.54-7.36-1.21c-0.86-0.33-1.47-1.36-1.77-1.78l-1.66-0.48c0.86-6.21,0.63-12.68-0.86-19.16
			c-1.5-6.53-4.15-12.51-7.69-17.77c0.42-0.39,1.23-1.1,1.45-1.31c0.07-0.74,0.01-1.51,0.77-2.32c1.61-1.52,3.65-2.77,6.1-4.29
			c1.16-0.68,2.24-1.13,3.41-1.99c0.26-0.2,0.62-0.51,0.9-0.73c1.97-1.57,2.42-4.28,1.01-6.05c-1.41-1.77-4.15-1.94-6.12-0.37
			c-0.28,0.22-0.66,0.51-0.91,0.73c-1.1,0.95-1.78,1.88-2.71,2.87c-2.02,2.05-3.7,3.77-5.53,5.01c-0.8,0.46-1.96,0.3-2.49,0.27
			l-1.56,1.11c-8.9-9.33-21.01-15.3-34.06-16.46c-0.04-0.55-0.08-1.53-0.1-1.83c-0.53-0.51-1.18-0.95-1.34-2.05
			c-0.18-2.21,0.12-4.58,0.46-7.44c0.19-1.34,0.51-2.45,0.56-3.9c0.01-0.33-0.01-0.81-0.01-1.17c0-2.52-1.84-4.56-4.1-4.56
			c-2.27,0-4.1,2.04-4.1,4.56c0,0.04,0.01,0.08,0.01,0.12c0,0.34-0.02,0.75-0.01,1.05c0.05,1.45,0.37,2.56,0.56,3.9
			c0.35,2.86,0.63,5.24,0.46,7.44c-0.17,0.83-0.79,1.59-1.33,2.12l-0.1,1.74c-2.46,0.2-4.94,0.58-7.42,1.14
			c-10.65,2.42-19.83,7.91-26.81,15.32c-0.45-0.31-1.25-0.88-1.48-1.05c-0.73,0.1-1.47,0.32-2.44-0.24c-1.84-1.24-3.51-2.94-5.53-5
			c-0.93-0.98-1.6-1.92-2.7-2.87c-0.25-0.21-0.63-0.51-0.91-0.73c-0.86-0.69-1.88-1.04-2.86-1.08c-1.26-0.04-2.48,0.45-3.27,1.45
			c-1.41,1.77-0.96,4.48,1.01,6.05c0.02,0.02,0.04,0.03,0.06,0.04c0.27,0.22,0.6,0.5,0.85,0.68c1.17,0.86,2.24,1.31,3.4,1.99
			c2.45,1.51,4.49,2.77,6.1,4.29c0.63,0.67,0.74,1.85,0.82,2.37l1.32,1.17c-7.04,10.59-10.3,23.68-8.37,37.01l-1.72,0.5
			c-0.45,0.58-1.09,1.51-1.76,1.78c-2.11,0.66-4.49,0.91-7.36,1.21c-1.35,0.11-2.51,0.05-3.94,0.32c-0.31,0.06-0.75,0.17-1.1,0.25
			c-0.01,0-0.02,0.01-0.03,0.01c-0.02,0-0.04,0.01-0.06,0.02c-2.42,0.58-3.97,2.81-3.47,5c0.5,2.19,2.86,3.52,5.29,3
			c0.02,0,0.04,0,0.06-0.01c0.03-0.01,0.05-0.02,0.08-0.03c0.34-0.08,0.76-0.16,1.06-0.24c1.4-0.38,2.42-0.93,3.68-1.41
			c2.71-0.97,4.96-1.79,7.15-2.1c0.92-0.07,1.88,0.57,2.36,0.83l1.79-0.31c4.12,12.76,12.74,23.07,23.66,29.54l-0.75,1.79
			c0.27,0.69,0.57,1.63,0.37,2.32c-0.8,2.06-2.16,4.24-3.71,6.67c-0.75,1.12-1.52,1.99-2.2,3.28c-0.16,0.31-0.37,0.78-0.53,1.1
			c-1.05,2.26-0.28,4.86,1.74,5.83c2.04,0.98,4.57-0.05,5.66-2.31c0,0,0.01-0.01,0.01-0.01c0,0,0-0.01,0-0.01
			c0.16-0.32,0.38-0.74,0.51-1.04c0.58-1.33,0.77-2.47,1.18-3.76c1.08-2.73,1.68-5.59,3.18-7.37c0.41-0.49,1.08-0.68,1.77-0.86
			l0.93-1.68c9.52,3.65,20.18,4.64,30.82,2.22c2.43-0.55,4.77-1.27,7.04-2.12c0.26,0.46,0.75,1.35,0.88,1.58
			c0.7,0.23,1.47,0.35,2.1,1.27c1.12,1.91,1.88,4.17,2.81,6.9c0.41,1.29,0.61,2.43,1.19,3.76c0.13,0.3,0.35,0.73,0.51,1.05
			c1.09,2.27,3.63,3.31,5.67,2.32c2.02-0.98,2.8-3.57,1.74-5.83c-0.16-0.32-0.37-0.8-0.53-1.1c-0.68-1.28-1.45-2.15-2.2-3.27
			c-1.55-2.43-2.84-4.45-3.64-6.51c-0.33-1.06,0.06-1.73,0.32-2.42c-0.16-0.18-0.49-1.18-0.68-1.66
			c11.35-6.7,19.72-17.4,23.65-29.75c0.53,0.08,1.45,0.25,1.75,0.31c0.62-0.41,1.18-0.94,2.3-0.85c2.19,0.32,4.44,1.13,7.15,2.1
			c1.26,0.48,2.28,1.05,3.68,1.42c0.3,0.08,0.72,0.15,1.06,0.23c0.03,0.01,0.05,0.02,0.08,0.03c0.02,0,0.04,0.01,0.06,0.01
			c2.43,0.52,4.8-0.81,5.29-3C679,167.94,677.45,165.72,675.03,165.13z M642.47,131.38l-16.03,14.34l0.01,0.04
			c-0.56,0.49-0.97,1.14-1.15,1.92c-0.43,1.9,0.71,3.79,2.57,4.3l0.02,0.09l20.76,5.98c0.44-4.48,0.17-9.11-0.89-13.76
			C646.68,139.6,644.86,135.26,642.47,131.38z M625.01,164.51c-0.27-0.05-0.55-0.08-0.83-0.06c-0.47,0.02-0.94,0.14-1.39,0.36
			c-1.75,0.84-2.52,2.92-1.75,4.69l-0.03,0.04l8.29,20.03c7.99-5.09,13.98-12.7,17.1-21.49l-21.36-3.61L625.01,164.51z"/>
	</g>
</g>
<g id="Layer_2">
</g>
</svg>
