<svg version="1.1" viewBox="0.0 0.0 645.0 432.0" fill="none" stroke="none" stroke-linecap="square" stroke-miterlimit="10" width="645" height="432" xmlns:xlink="http://www.w3.org/1999/xlink" xmlns="http://www.w3.org/2000/svg"><path fill="#ffffff" d="M0 0L645.0 0L645.0 432.0L0 432.0L0 0Z" fill-rule="nonzero"/><path stroke="#333333" stroke-width="1.0" stroke-linecap="butt" d="M55.5 389.5L485.5 389.5" fill-rule="nonzero"/><path stroke="#cccccc" stroke-width="1.0" stroke-linecap="butt" d="M55.5 299.5L485.5 299.5" fill-rule="nonzero"/><path stroke="#cccccc" stroke-width="1.0" stroke-linecap="butt" d="M55.5 209.5L485.5 209.5" fill-rule="nonzero"/><path stroke="#cccccc" stroke-width="1.0" stroke-linecap="butt" d="M55.5 119.5L485.5 119.5" fill-rule="nonzero"/><path stroke="#cccccc" stroke-width="1.0" stroke-linecap="butt" d="M55.5 29.5L485.5 29.5" fill-rule="nonzero"/><clipPath id="id_0"><path d="M55.6 29.1L485.48 29.1L485.48 389.4L55.6 389.4L55.6 29.1Z" clip-rule="nonzero"/></clipPath><path stroke="#000000" stroke-width="0.0" stroke-linecap="butt" stroke-opacity="0.0" clip-path="url(#id_0)" d="M184.0 389.0L101.0 389.0L101.0 383.0L184.0 383.0Z" fill-rule="nonzero"/><path fill="#4285f4" clip-path="url(#id_0)" d="M184.0 389.0L101.0 389.0L101.0 383.0L184.0 383.0Z" fill-rule="nonzero"/><path stroke="#000000" stroke-width="0.0" stroke-linecap="butt" stroke-opacity="0.0" clip-path="url(#id_0)" d="M313.0 389.0L230.0 389.0L230.0 382.0L313.0 382.0Z" fill-rule="nonzero"/><path fill="#4285f4" clip-path="url(#id_0)" d="M313.0 389.0L230.0 389.0L230.0 382.0L313.0 382.0Z" fill-rule="nonzero"/><path stroke="#000000" stroke-width="0.0" stroke-linecap="butt" stroke-opacity="0.0" clip-path="url(#id_0)" d="M441.0 389.0L358.0 389.0L358.0 388.0L441.0 388.0Z" fill-rule="nonzero"/><path fill="#4285f4" clip-path="url(#id_0)" d="M441.0 389.0L358.0 389.0L358.0 388.0L441.0 388.0Z" fill-rule="nonzero"/><path stroke="#000000" stroke-width="0.0" stroke-linecap="butt" stroke-opacity="0.0" clip-path="url(#id_0)" d="M184.0 383.0L101.0 383.0L101.0 374.0L184.0 374.0Z" fill-rule="nonzero"/><path fill="#ea4335" clip-path="url(#id_0)" d="M184.0 383.0L101.0 383.0L101.0 374.0L184.0 374.0Z" fill-rule="nonzero"/><path stroke="#000000" stroke-width="0.0" stroke-linecap="butt" stroke-opacity="0.0" clip-path="url(#id_0)" d="M313.0 382.0L230.0 382.0L230.0 372.0L313.0 372.0Z" fill-rule="nonzero"/><path fill="#ea4335" clip-path="url(#id_0)" d="M313.0 382.0L230.0 382.0L230.0 372.0L313.0 372.0Z" fill-rule="nonzero"/><path stroke="#000000" stroke-width="0.0" stroke-linecap="butt" stroke-opacity="0.0" clip-path="url(#id_0)" d="M441.0 388.0L358.0 388.0L358.0 385.0L441.0 385.0Z" fill-rule="nonzero"/><path fill="#ea4335" clip-path="url(#id_0)" d="M441.0 388.0L358.0 388.0L358.0 385.0L441.0 385.0Z" fill-rule="nonzero"/><path stroke="#000000" stroke-width="0.0" stroke-linecap="butt" stroke-opacity="0.0" clip-path="url(#id_0)" d="M184.0 374.0L101.0 374.0L101.0 348.0L184.0 348.0Z" fill-rule="nonzero"/><path fill="#fbbc04" clip-path="url(#id_0)" d="M184.0 374.0L101.0 374.0L101.0 348.0L184.0 348.0Z" fill-rule="nonzero"/><path stroke="#000000" stroke-width="0.0" stroke-linecap="butt" stroke-opacity="0.0" clip-path="url(#id_0)" d="M313.0 372.0L230.0 372.0L230.0 294.0L313.0 294.0Z" fill-rule="nonzero"/><path fill="#fbbc04" clip-path="url(#id_0)" d="M313.0 372.0L230.0 372.0L230.0 294.0L313.0 294.0Z" fill-rule="nonzero"/><path stroke="#000000" stroke-width="0.0" stroke-linecap="butt" stroke-opacity="0.0" clip-path="url(#id_0)" d="M441.0 385.0L358.0 385.0L358.0 381.0L441.0 381.0Z" fill-rule="nonzero"/><path fill="#fbbc04" clip-path="url(#id_0)" d="M441.0 385.0L358.0 385.0L358.0 381.0L441.0 381.0Z" fill-rule="nonzero"/><path stroke="#000000" stroke-width="0.0" stroke-linecap="butt" stroke-opacity="0.0" clip-path="url(#id_0)" d="M184.0 348.0L101.0 348.0L101.0 287.0L184.0 287.0Z" fill-rule="nonzero"/><path fill="#34a853" clip-path="url(#id_0)" d="M184.0 348.0L101.0 348.0L101.0 287.0L184.0 287.0Z" fill-rule="nonzero"/><path stroke="#000000" stroke-width="0.0" stroke-linecap="butt" stroke-opacity="0.0" clip-path="url(#id_0)" d="M313.0 294.0L230.0 294.0L230.0 240.0L313.0 240.0Z" fill-rule="nonzero"/><path fill="#34a853" clip-path="url(#id_0)" d="M313.0 294.0L230.0 294.0L230.0 240.0L313.0 240.0Z" fill-rule="nonzero"/><path stroke="#000000" stroke-width="0.0" stroke-linecap="butt" stroke-opacity="0.0" clip-path="url(#id_0)" d="M441.0 381.0L358.0 381.0L358.0 356.0L441.0 356.0Z" fill-rule="nonzero"/><path fill="#34a853" clip-path="url(#id_0)" d="M441.0 381.0L358.0 381.0L358.0 356.0L441.0 356.0Z" fill-rule="nonzero"/><path stroke="#000000" stroke-width="0.0" stroke-linecap="butt" stroke-opacity="0.0" clip-path="url(#id_0)" d="M184.0 287.0L101.0 287.0L101.0 240.0L184.0 240.0Z" fill-rule="nonzero"/><path fill="#ff6d01" clip-path="url(#id_0)" d="M184.0 287.0L101.0 287.0L101.0 240.0L184.0 240.0Z" fill-rule="nonzero"/><path stroke="#000000" stroke-width="0.0" stroke-linecap="butt" stroke-opacity="0.0" clip-path="url(#id_0)" d="M313.0 240.0L230.0 240.0L230.0 191.0L313.0 191.0Z" fill-rule="nonzero"/><path fill="#ff6d01" clip-path="url(#id_0)" d="M313.0 240.0L230.0 240.0L230.0 191.0L313.0 191.0Z" fill-rule="nonzero"/><path stroke="#000000" stroke-width="0.0" stroke-linecap="butt" stroke-opacity="0.0" clip-path="url(#id_0)" d="M441.0 356.0L358.0 356.0L358.0 306.0L441.0 306.0Z" fill-rule="nonzero"/><path fill="#ff6d01" clip-path="url(#id_0)" d="M441.0 356.0L358.0 356.0L358.0 306.0L441.0 306.0Z" fill-rule="nonzero"/><path stroke="#000000" stroke-width="0.0" stroke-linecap="butt" stroke-opacity="0.0" clip-path="url(#id_0)" d="M184.0 240.0L101.0 240.0L101.0 51.0C101.0 49.89543 101.89543 49.0 103.0 49.0L182.0 49.0C183.10457 49.0 184.0 49.89543 184.0 51.0Z" fill-rule="nonzero"/><path fill="#0060ff" clip-path="url(#id_0)" d="M184.0 240.0L101.0 240.0L101.0 51.0C101.0 49.89543 101.89543 49.0 103.0 49.0L182.0 49.0C183.10457 49.0 184.0 49.89543 184.0 51.0Z" fill-rule="nonzero"/><path stroke="#000000" stroke-width="0.0" stroke-linecap="butt" stroke-opacity="0.0" clip-path="url(#id_0)" d="M313.0 191.0L230.0 191.0L230.0 66.0C230.0 64.89543 230.89543 64.0 232.0 64.0L311.0 64.0C312.10458 64.0 313.0 64.89543 313.0 66.0Z" fill-rule="nonzero"/><path fill="#0060ff" clip-path="url(#id_0)" d="M313.0 191.0L230.0 191.0L230.0 66.0C230.0 64.89543 230.89543 64.0 232.0 64.0L311.0 64.0C312.10458 64.0 313.0 64.89543 313.0 66.0Z" fill-rule="nonzero"/><path stroke="#000000" stroke-width="0.0" stroke-linecap="butt" stroke-opacity="0.0" clip-path="url(#id_0)" d="M441.0 306.0L358.0 306.0L358.0 296.0C358.0 294.89542 358.89542 294.0 360.0 294.0L439.0 294.0C440.10458 294.0 441.0 294.89542 441.0 296.0Z" fill-rule="nonzero"/><path fill="#0060ff" clip-path="url(#id_0)" d="M441.0 306.0L358.0 306.0L358.0 296.0C358.0 294.89542 358.89542 294.0 360.0 294.0L439.0 294.0C440.10458 294.0 441.0 294.89542 441.0 296.0Z" fill-rule="nonzero"/><path fill="#000000" d="M48.6625 390.25937Q48.6625 392.16562 48.00625 393.10312Q47.365623 394.025 45.975 394.025Q44.615623 394.025 43.959373 393.11874Q43.303123 392.2125 43.271873 390.4L43.271873 388.9625Q43.271873 387.07187 43.9125 386.16562Q44.56875 385.24374 45.959373 385.24374Q47.334373 385.24374 47.990623 386.13437Q48.646873 387.00937 48.6625 388.85312L48.6625 390.25937ZM47.56875 388.775Q47.56875 387.4 47.178123 386.775Q46.803123 386.13437 45.959373 386.13437Q45.13125 386.13437 44.740623 386.775Q44.365623 387.4 44.365623 388.69687L44.365623 390.43124Q44.365623 391.80624 44.75625 392.47812Q45.1625 393.13437 45.975 393.13437Q46.771873 393.13437 47.1625 392.50937Q47.553123 391.88437 47.56875 390.55624L47.56875 388.775Z" fill-rule="nonzero"/><path fill="#000000" d="M29.803125 299.54376L30.240625 295.29376L34.615623 295.29376L34.615623 296.29376L31.1625 296.29376L30.896875 298.6219Q31.5375 298.2469 32.334373 298.2469Q33.490623 298.2469 34.178123 299.02814Q34.865623 299.79376 34.865623 301.10626Q34.865623 302.41876 34.146873 303.1844Q33.44375 303.95 32.1625 303.95Q31.0375 303.95 30.31875 303.325Q29.6 302.6844 29.50625 301.575L30.521875 301.575Q30.63125 302.3094 31.053125 302.6844Q31.475 303.0594 32.1625 303.0594Q32.9125 303.0594 33.35 302.54376Q33.7875 302.02814 33.7875 301.1219Q33.7875 300.2625 33.31875 299.7469Q32.85 299.23126 32.06875 299.23126Q31.365625 299.23126 30.959375 299.52814L30.678125 299.7625L29.803125 299.54376ZM41.6625 300.1844Q41.6625 302.09064 41.00625 303.02814Q40.365623 303.95 38.975 303.95Q37.615623 303.95 36.959373 303.04376Q36.303123 302.1375 36.271873 300.325L36.271873 298.8875Q36.271873 296.9969 36.9125 296.09064Q37.56875 295.16876 38.959373 295.16876Q40.334373 295.16876 40.990623 296.0594Q41.646873 296.9344 41.6625 298.77814L41.6625 300.1844ZM40.56875 298.7Q40.56875 297.325 40.178123 296.7Q39.803123 296.0594 38.959373 296.0594Q38.13125 296.0594 37.740623 296.7Q37.365623 297.325 37.365623 298.6219L37.365623 300.35626Q37.365623 301.73126 37.75625 302.40314Q38.1625 303.0594 38.975 303.0594Q39.771873 303.0594 40.1625 302.4344Q40.553123 301.8094 40.56875 300.48126L40.56875 298.7ZM48.6625 300.1844Q48.6625 302.09064 48.00625 303.02814Q47.365623 303.95 45.975 303.95Q44.615623 303.95 43.959373 303.04376Q43.303123 302.1375 43.271873 300.325L43.271873 298.8875Q43.271873 296.9969 43.9125 296.09064Q44.56875 295.16876 45.959373 295.16876Q47.334373 295.16876 47.990623 296.0594Q48.646873 296.9344 48.6625 298.77814L48.6625 300.1844ZM47.56875 298.7Q47.56875 297.325 47.178123 296.7Q46.803123 296.0594 45.959373 296.0594Q45.13125 296.0594 44.740623 296.7Q44.365623 297.325 44.365623 298.6219L44.365623 300.35626Q44.365623 301.73126 44.75625 302.40314Q45.1625 303.0594 45.975 303.0594Q46.771873 303.0594 47.1625 302.4344Q47.553123 301.8094 47.56875 300.48126L47.56875 298.7Z" fill-rule="nonzero"/><path fill="#000000" d="M25.865625 213.75L24.7875 213.75L24.7875 206.53125L22.6 207.32812L22.6 206.34375L25.709375 205.17188L25.865625 205.17188L25.865625 213.75ZM34.6625 210.10938Q34.6625 212.01562 34.00625 212.95312Q33.365623 213.875 31.975 213.875Q30.615625 213.875 29.959375 212.96875Q29.303125 212.0625 29.271875 210.25L29.271875 208.8125Q29.271875 206.92188 29.9125 206.01562Q30.56875 205.09375 31.959375 205.09375Q33.334373 205.09375 33.990623 205.98438Q34.646873 206.85938 34.6625 208.70312L34.6625 210.10938ZM33.56875 208.625Q33.56875 207.25 33.178123 206.625Q32.803123 205.98438 31.959375 205.98438Q31.13125 205.98438 30.740625 206.625Q30.365625 207.25 30.365625 208.54688L30.365625 210.28125Q30.365625 211.65625 30.75625 212.32812Q31.1625 212.98438 31.975 212.98438Q32.771873 212.98438 33.1625 212.35938Q33.553123 211.73438 33.56875 210.40625L33.56875 208.625ZM41.6625 210.10938Q41.6625 212.01562 41.00625 212.95312Q40.365623 213.875 38.975 213.875Q37.615623 213.875 36.959373 212.96875Q36.303123 212.0625 36.271873 210.25L36.271873 208.8125Q36.271873 206.92188 36.9125 206.01562Q37.56875 205.09375 38.959373 205.09375Q40.334373 205.09375 40.990623 205.98438Q41.646873 206.85938 41.6625 208.70312L41.6625 210.10938ZM40.56875 208.625Q40.56875 207.25 40.178123 206.625Q39.803123 205.98438 38.959373 205.98438Q38.13125 205.98438 37.740623 206.625Q37.365623 207.25 37.365623 208.54688L37.365623 210.28125Q37.365623 211.65625 37.75625 212.32812Q38.1625 212.98438 38.975 212.98438Q39.771873 212.98438 40.1625 212.35938Q40.553123 211.73438 40.56875 210.40625L40.56875 208.625ZM48.6625 210.10938Q48.6625 212.01562 48.00625 212.95312Q47.365623 213.875 45.975 213.875Q44.615623 213.875 43.959373 212.96875Q43.303123 212.0625 43.271873 210.25L43.271873 208.8125Q43.271873 206.92188 43.9125 206.01562Q44.56875 205.09375 45.959373 205.09375Q47.334373 205.09375 47.990623 205.98438Q48.646873 206.85938 48.6625 208.70312L48.6625 210.10938ZM47.56875 208.625Q47.56875 207.25 47.178123 206.625Q46.803123 205.98438 45.959373 205.98438Q45.13125 205.98438 44.740623 206.625Q44.365623 207.25 44.365623 208.54688L44.365623 210.28125Q44.365623 211.65625 44.75625 212.32812Q45.1625 212.98438 45.975 212.98438Q46.771873 212.98438 47.1625 212.35938Q47.553123 211.73438 47.56875 210.40625L47.56875 208.625Z" fill-rule="nonzero"/><path fill="#000000" d="M25.865625 123.675L24.7875 123.675L24.7875 116.45625L22.6 117.25313L22.6 116.26875L25.709375 115.09688L25.865625 115.09688L25.865625 123.675ZM29.803125 119.39375L30.240625 115.14375L34.615623 115.14375L34.615623 116.14375L31.1625 116.14375L30.896875 118.47188Q31.5375 118.09688 32.334373 118.09688Q33.490623 118.09688 34.178123 118.87813Q34.865623 119.64375 34.865623 120.95625Q34.865623 122.26875 34.146873 123.03438Q33.44375 123.8 32.1625 123.8Q31.0375 123.8 30.31875 123.175Q29.6 122.53438 29.50625 121.425L30.521875 121.425Q30.63125 122.15938 31.053125 122.53438Q31.475 122.90938 32.1625 122.90938Q32.9125 122.90938 33.35 122.39375Q33.7875 121.87813 33.7875 120.97188Q33.7875 120.1125 33.31875 119.59688Q32.85 119.08125 32.06875 119.08125Q31.365625 119.08125 30.959375 119.37813L30.678125 119.6125L29.803125 119.39375ZM41.6625 120.03438Q41.6625 121.94063 41.00625 122.87813Q40.365623 123.8 38.975 123.8Q37.615623 123.8 36.959373 122.89375Q36.303123 121.9875 36.271873 120.175L36.271873 118.7375Q36.271873 116.84688 36.9125 115.94063Q37.56875 115.01875 38.959373 115.01875Q40.334373 115.01875 40.990623 115.90938Q41.646873 116.78438 41.6625 118.62813L41.6625 120.03438ZM40.56875 118.55Q40.56875 117.175 40.178123 116.55Q39.803123 115.90938 38.959373 115.90938Q38.13125 115.90938 37.740623 116.55Q37.365623 117.175 37.365623 118.47188L37.365623 120.20625Q37.365623 121.58125 37.75625 122.25313Q38.1625 122.90938 38.975 122.90938Q39.771873 122.90938 40.1625 122.28438Q40.553123 121.65938 40.56875 120.33125L40.56875 118.55ZM48.6625 120.03438Q48.6625 121.94063 48.00625 122.87813Q47.365623 123.8 45.975 123.8Q44.615623 123.8 43.959373 122.89375Q43.303123 121.9875 43.271873 120.175L43.271873 118.7375Q43.271873 116.84688 43.9125 115.94063Q44.56875 115.01875 45.959373 115.01875Q47.334373 115.01875 47.990623 115.90938Q48.646873 116.78438 48.6625 118.62813L48.6625 120.03438ZM47.56875 118.55Q47.56875 117.175 47.178123 116.55Q46.803123 115.90938 45.959373 115.90938Q45.13125 115.90938 44.740623 116.55Q44.365623 117.175 44.365623 118.47188L44.365623 120.20625Q44.365623 121.58125 44.75625 122.25313Q45.1625 122.90938 45.975 122.90938Q46.771873 122.90938 47.1625 122.28438Q47.553123 121.65938 47.56875 120.33125L47.56875 118.55Z" fill-rule="nonzero"/><path fill="#000000" d="M27.896875 33.6L22.303125 33.6L22.303125 32.81875L25.25625 29.537498Q25.9125 28.787498 26.1625 28.334373Q26.4125 27.865623 26.4125 27.365623Q26.4125 26.693748 26.00625 26.271873Q25.615625 25.834373 24.928125 25.834373Q24.13125 25.834373 23.678125 26.303123Q23.225 26.756248 23.225 27.584373L22.146875 27.584373Q22.146875 26.396873 22.896875 25.678123Q23.6625 24.943748 24.928125 24.943748Q26.13125 24.943748 26.81875 25.568748Q27.50625 26.193748 27.50625 27.240623Q27.50625 28.490623 25.896875 30.240623L23.615625 32.709373L27.896875 32.709373L27.896875 33.6ZM34.6625 29.959373Q34.6625 31.865623 34.00625 32.803123Q33.365623 33.725 31.975 33.725Q30.615625 33.725 29.959375 32.81875Q29.303125 31.912498 29.271875 30.099998L29.271875 28.662498Q29.271875 26.771873 29.9125 25.865623Q30.56875 24.943748 31.959375 24.943748Q33.334373 24.943748 33.990623 25.834373Q34.646873 26.709373 34.6625 28.553123L34.6625 29.959373ZM33.56875 28.474998Q33.56875 27.099998 33.178123 26.474998Q32.803123 25.834373 31.959375 25.834373Q31.13125 25.834373 30.740625 26.474998Q30.365625 27.099998 30.365625 28.396873L30.365625 30.131248Q30.365625 31.506248 30.75625 32.178123Q31.1625 32.834373 31.975 32.834373Q32.771873 32.834373 33.1625 32.209373Q33.553123 31.584373 33.56875 30.256248L33.56875 28.474998ZM41.6625 29.959373Q41.6625 31.865623 41.00625 32.803123Q40.365623 33.725 38.975 33.725Q37.615623 33.725 36.959373 32.81875Q36.303123 31.912498 36.271873 30.099998L36.271873 28.662498Q36.271873 26.771873 36.9125 25.865623Q37.56875 24.943748 38.959373 24.943748Q40.334373 24.943748 40.990623 25.834373Q41.646873 26.709373 41.6625 28.553123L41.6625 29.959373ZM40.56875 28.474998Q40.56875 27.099998 40.178123 26.474998Q39.803123 25.834373 38.959373 25.834373Q38.13125 25.834373 37.740623 26.474998Q37.365623 27.099998 37.365623 28.396873L37.365623 30.131248Q37.365623 31.506248 37.75625 32.178123Q38.1625 32.834373 38.975 32.834373Q39.771873 32.834373 40.1625 32.209373Q40.553123 31.584373 40.56875 30.256248L40.56875 28.474998ZM48.6625 29.959373Q48.6625 31.865623 48.00625 32.803123Q47.365623 33.725 45.975 33.725Q44.615623 33.725 43.959373 32.81875Q43.303123 31.912498 43.271873 30.099998L43.271873 28.662498Q43.271873 26.771873 43.9125 25.865623Q44.56875 24.943748 45.959373 24.943748Q47.334373 24.943748 47.990623 25.834373Q48.646873 26.709373 48.6625 28.553123L48.6625 29.959373ZM47.56875 28.474998Q47.56875 27.099998 47.178123 26.474998Q46.803123 25.834373 45.959373 25.834373Q45.13125 25.834373 44.740623 26.474998Q44.365623 27.099998 44.365623 28.396873L44.365623 30.131248Q44.365623 31.506248 44.75625 32.178123Q45.1625 32.834373 45.975 32.834373Q46.771873 32.834373 47.1625 32.209373Q47.553123 31.584373 47.56875 30.256248L47.56875 28.474998Z" fill-rule="nonzero"/><path fill="#000000" d="M137.92073 403.63437L134.32698 403.63437L134.32698 407.4L133.20198 407.4L133.20198 398.86874L138.49886 398.86874L138.49886 399.79062L134.32698 399.79062L134.32698 402.7125L137.92073 402.7125L137.92073 403.63437ZM142.67073 407.525Q141.37386 407.525 140.56136 406.68124Q139.76448 405.82187 139.76448 404.4L139.76448 404.2125Q139.76448 403.25937 140.12386 402.525Q140.48323 401.775 141.12386 401.36874Q141.7801 400.94687 142.5301 400.94687Q143.76448 400.94687 144.45198 401.75937Q145.13948 402.57187 145.13948 404.0875L145.13948 404.54062L140.8426 404.54062Q140.87386 405.47812 141.38948 406.05624Q141.92073 406.63437 142.73323 406.63437Q143.29573 406.63437 143.68636 406.4Q144.0926 406.16562 144.4051 405.775L145.06136 406.29062Q144.26448 407.525 142.67073 407.525ZM142.5301 401.8375Q141.87386 401.8375 141.42073 402.32187Q140.98323 402.79062 140.88948 403.65L144.06136 403.65L144.06136 403.57187Q144.01448 402.74374 143.60823 402.29062Q143.2176 401.8375 142.5301 401.8375ZM151.4051 404.30624Q151.4051 405.75937 150.73323 406.65Q150.07698 407.525 148.95198 407.525Q147.74886 407.525 147.0926 406.66562L147.0301 407.4L146.04573 407.4L146.04573 398.4L147.12386 398.4L147.12386 401.75937Q147.7801 400.94687 148.93636 400.94687Q150.0926 400.94687 150.74886 401.82187Q151.4051 402.68124 151.4051 404.2125L151.4051 404.30624ZM150.32698 404.18124Q150.32698 403.07187 149.88948 402.47812Q149.4676 401.86874 148.67073 401.86874Q147.5926 401.86874 147.12386 402.85312L147.12386 405.60312Q147.62386 406.60312 148.67073 406.60312Q149.45198 406.60312 149.88948 405.99374Q150.32698 405.38437 150.32698 404.18124Z" fill-rule="nonzero"/><path fill="#000000" d="M262.4775 398.86874L265.27438 405.82187L268.05563 398.86874L269.52438 398.86874L269.52438 407.4L268.39938 407.4L268.39938 404.07187L268.50876 400.49374L265.69626 407.4L264.83688 407.4L262.04 400.50937L262.14938 404.07187L262.14938 407.4L261.02438 407.4L261.02438 398.86874L262.4775 398.86874ZM274.77438 407.4Q274.68063 407.2125 274.61813 406.72812Q273.86813 407.525 272.82126 407.525Q271.88376 407.525 271.27438 406.99374Q270.68063 406.4625 270.68063 405.63437Q270.68063 404.65 271.43063 404.10312Q272.18063 403.55624 273.55563 403.55624L274.6025 403.55624L274.6025 403.05624Q274.6025 402.49374 274.25876 402.16562Q273.93063 401.82187 273.25876 401.82187Q272.68063 401.82187 272.29 402.11874Q271.89938 402.4 271.89938 402.82187L270.80563 402.82187Q270.80563 402.3375 271.13376 401.9Q271.4775 401.4625 272.05563 401.2125Q272.63376 400.94687 273.32126 400.94687Q274.43063 400.94687 275.04 401.49374Q275.665 402.04062 275.69626 402.99374L275.69626 405.91562Q275.69626 406.79062 275.915 407.30624L275.915 407.4L274.77438 407.4ZM272.9775 406.57187Q273.49313 406.57187 273.94626 406.30624Q274.39938 406.04062 274.6025 405.61874L274.6025 404.32187L273.75876 404.32187Q271.75876 404.32187 271.75876 405.49374Q271.75876 405.99374 272.1025 406.29062Q272.44626 406.57187 272.9775 406.57187ZM280.93063 402.025Q280.68063 401.99374 280.39938 401.99374Q279.32126 401.99374 278.94626 402.9L278.94626 407.4L277.86813 407.4L277.86813 401.05624L278.915 401.05624L278.93063 401.79062Q279.46188 400.94687 280.44626 400.94687Q280.75876 400.94687 280.93063 401.025L280.93063 402.025Z" fill-rule="nonzero"/><path fill="#000000" d="M395.06552 405.16562L391.4874 405.16562L390.69052 407.4L389.53427 407.4L392.78427 398.86874L393.76865 398.86874L397.03427 407.4L395.87802 407.4L395.06552 405.16562ZM391.83115 404.24374L394.7374 404.24374L393.28427 400.25937L391.83115 404.24374ZM403.53427 404.30624Q403.53427 405.74374 402.87802 406.63437Q402.22177 407.525 401.08115 407.525Q399.9249 407.525 399.26865 406.79062L399.26865 409.8375L398.19052 409.8375L398.19052 401.05624L399.1749 401.05624L399.22177 401.75937Q399.89365 400.94687 401.06552 400.94687Q402.20615 400.94687 402.8624 401.80624Q403.53427 402.66562 403.53427 404.19687L403.53427 404.30624ZM402.45615 404.18124Q402.45615 403.10312 401.9874 402.49374Q401.53427 401.86874 400.7374 401.86874Q399.75302 401.86874 399.26865 402.72812L399.26865 405.75937Q399.75302 406.63437 400.75302 406.63437Q401.53427 406.63437 401.9874 406.025Q402.45615 405.4 402.45615 404.18124ZM408.25302 402.025Q408.00302 401.99374 407.72177 401.99374Q406.64365 401.99374 406.26865 402.9L406.26865 407.4L405.19052 407.4L405.19052 401.05624L406.2374 401.05624L406.25302 401.79062Q406.78427 400.94687 407.76865 400.94687Q408.08115 400.94687 408.25302 401.025L408.25302 402.025Z" fill-rule="nonzero"/><path fill="#0060ff" d="M511.4 24.1C511.4 23.547716 511.84772 23.1 512.4 23.1L522.4 23.1C522.9523 23.1 523.4 23.547716 523.4 24.1L523.4 34.1C523.4 34.652287 522.9523 35.1 522.4 35.1L512.4 35.1C511.84772 35.1 511.4 34.652287 511.4 34.1Z" fill-rule="nonzero"/><path fill="#1a1a1a" d="M538.6969 32.475Q538.2594 33.1 537.47815 33.4125Q536.6969 33.725 535.66565 33.725Q534.6344 33.725 533.8219 33.240623Q533.0094 32.740623 532.5719 31.834373Q532.1344 30.928123 532.1188 29.740623L532.1188 29.006248Q532.1188 27.068748 533.0094 26.006248Q533.91565 24.943748 535.54065 24.943748Q536.8844 24.943748 537.6969 25.631248Q538.5094 26.318748 538.6969 27.568748L537.5719 27.568748Q537.2438 25.881248 535.5563 25.881248Q534.41565 25.881248 533.8375 26.678123Q533.2594 27.459373 533.2438 28.974998L533.2438 29.662498Q533.2438 31.099998 533.9 31.959373Q534.5563 32.803123 535.6813 32.803123Q536.3063 32.803123 536.775 32.6625Q537.2594 32.521873 537.5719 32.178123L537.5719 30.271873L535.60315 30.271873L535.60315 29.349998L538.6969 29.349998L538.6969 32.475ZM542.85315 33.725Q541.5563 33.725 540.7438 32.88125Q539.9469 32.021873 539.9469 30.599998L539.9469 30.412498Q539.9469 29.459373 540.3063 28.724998Q540.66565 27.974998 541.3063 27.568748Q541.9625 27.146873 542.7125 27.146873Q543.9469 27.146873 544.6344 27.959373Q545.3219 28.771873 545.3219 30.287498L545.3219 30.740623L541.025 30.740623Q541.0563 31.678123 541.5719 32.25625Q542.10315 32.834373 542.91565 32.834373Q543.47815 32.834373 543.8688 32.6Q544.275 32.365623 544.5875 31.974998L545.2438 32.490623Q544.4469 33.725 542.85315 33.725ZM542.7125 28.037498Q542.0563 28.037498 541.60315 28.521873Q541.16565 28.990623 541.0719 29.849998L544.2438 29.849998L544.2438 29.771873Q544.1969 28.943748 543.79065 28.490623Q543.4 28.037498 542.7125 28.037498ZM547.6969 25.724998L547.6969 27.256248L548.8688 27.256248L548.8688 28.099998L547.6969 28.099998L547.6969 32.021873Q547.6969 32.4125 547.85315 32.6Q548.0094 32.7875 548.3844 32.7875Q548.5719 32.7875 548.9 32.725L548.9 33.6Q548.47815 33.725 548.0719 33.725Q547.35315 33.725 546.97815 33.2875Q546.60315 32.834373 546.60315 32.021873L546.60315 28.099998L545.4469 28.099998L545.4469 27.256248L546.60315 27.256248L546.60315 25.724998L547.6969 25.724998ZM556.9469 29.615623Q556.9469 30.865623 556.525 31.803123Q556.10315 32.725 555.3219 33.225Q554.5563 33.725 553.525 33.725Q552.525 33.725 551.7438 33.225Q550.9625 32.725 550.525 31.818748Q550.10315 30.896873 550.0875 29.678123L550.0875 29.068748Q550.0875 27.834373 550.5094 26.896873Q550.9469 25.959373 551.72815 25.459373Q552.5094 24.943748 553.525 24.943748Q554.54065 24.943748 555.3219 25.443748Q556.10315 25.943748 556.525 26.881248Q556.9469 27.818748 556.9469 29.068748L556.9469 29.615623ZM555.8375 29.053123Q555.8375 27.537498 555.22815 26.724998Q554.6188 25.912498 553.525 25.912498Q552.4469 25.912498 551.8375 26.724998Q551.22815 27.537498 551.2125 28.974998L551.2125 29.615623Q551.2125 31.084373 551.8219 31.928123Q552.4469 32.75625 553.525 32.75625Q554.6188 32.75625 555.2125 31.974998Q555.8219 31.178123 555.8375 29.693748L555.8375 29.053123ZM563.5875 30.506248Q563.5875 31.959373 562.91565 32.85Q562.2594 33.725 561.1344 33.725Q559.9313 33.725 559.275 32.865623L559.2125 33.6L558.22815 33.6L558.22815 24.599998L559.3063 24.599998L559.3063 27.959373Q559.9625 27.146873 561.1188 27.146873Q562.275 27.146873 562.9313 28.021873Q563.5875 28.881248 563.5875 30.412498L563.5875 30.506248ZM562.5094 30.381248Q562.5094 29.271873 562.0719 28.678123Q561.65 28.068748 560.85315 28.068748Q559.775 28.068748 559.3063 29.053123L559.3063 31.803123Q559.8063 32.803123 560.85315 32.803123Q561.6344 32.803123 562.0719 32.19375Q562.5094 31.584373 562.5094 30.381248ZM566.3375 27.256248L566.3375 34.334373Q566.3375 36.1625 564.6813 36.1625Q564.3219 36.1625 564.025 36.053123L564.025 35.19375Q564.2125 35.240623 564.5094 35.240623Q564.8688 35.240623 565.0563 35.0375Q565.2594 34.85 565.2594 34.35L565.2594 27.256248L566.3375 27.256248ZM565.15 25.584373Q565.15 25.318748 565.3063 25.131248Q565.4625 24.943748 565.775 24.943748Q566.0875 24.943748 566.2438 25.131248Q566.41565 25.318748 566.41565 25.584373Q566.41565 25.834373 566.2438 26.021873Q566.0875 26.193748 565.775 26.193748Q565.4625 26.193748 565.3063 26.021873Q565.15 25.834373 565.15 25.584373ZM570.85315 33.725Q569.5563 33.725 568.7438 32.88125Q567.9469 32.021873 567.9469 30.599998L567.9469 30.412498Q567.9469 29.459373 568.3063 28.724998Q568.66565 27.974998 569.3063 27.568748Q569.9625 27.146873 570.7125 27.146873Q571.9469 27.146873 572.6344 27.959373Q573.3219 28.771873 573.3219 30.287498L573.3219 30.740623L569.025 30.740623Q569.0563 31.678123 569.5719 32.25625Q570.10315 32.834373 570.91565 32.834373Q571.47815 32.834373 571.8688 32.6Q572.275 32.365623 572.5875 31.974998L573.2438 32.490623Q572.4469 33.725 570.85315 33.725ZM570.7125 28.037498Q570.0563 28.037498 569.60315 28.521873Q569.16565 28.990623 569.0719 29.849998L572.2438 29.849998L572.2438 29.771873Q572.1969 28.943748 571.79065 28.490623Q571.4 28.037498 570.7125 28.037498ZM576.7594 32.834373Q577.3375 32.834373 577.775 32.490623Q578.2125 32.13125 578.2594 31.599998L579.29065 31.599998Q579.2594 32.146873 578.9 32.646873Q578.5563 33.13125 577.97815 33.428123Q577.41565 33.725 576.7594 33.725Q575.4625 33.725 574.6969 32.865623Q573.9469 31.990623 573.9469 30.490623L573.9469 30.303123Q573.9469 29.381248 574.275 28.662498Q574.6188 27.943748 575.2438 27.553123Q575.8844 27.146873 576.7594 27.146873Q577.8219 27.146873 578.525 27.787498Q579.2438 28.412498 579.29065 29.443748L578.2594 29.443748Q578.2125 28.818748 577.79065 28.428123Q577.3688 28.037498 576.7594 28.037498Q575.9313 28.037498 575.47815 28.631248Q575.025 29.224998 575.025 30.349998L575.025 30.553123Q575.025 31.646873 575.47815 32.240623Q575.9313 32.834373 576.7594 32.834373ZM581.6969 25.724998L581.6969 27.256248L582.8688 27.256248L582.8688 28.099998L581.6969 28.099998L581.6969 32.021873Q581.6969 32.4125 581.85315 32.6Q582.0094 32.7875 582.3844 32.7875Q582.5719 32.7875 582.9 32.725L582.9 33.6Q582.47815 33.725 582.0719 33.725Q581.35315 33.725 580.97815 33.2875Q580.60315 32.834373 580.60315 32.021873L580.60315 28.099998L579.4469 28.099998L579.4469 27.256248L580.60315 27.256248L580.60315 25.724998L581.6969 25.724998Z" fill-rule="nonzero"/><path fill="#ff6d01" d="M511.4 49.1C511.4 48.547714 511.84772 48.1 512.4 48.1L522.4 48.1C522.9523 48.1 523.4 48.547714 523.4 49.1L523.4 59.1C523.4 59.652287 522.9523 60.1 522.4 60.1L512.4 60.1C511.84772 60.1 511.4 59.652287 511.4 59.1Z" fill-rule="nonzero"/><path fill="#1a1a1a" d="M534.9 54.803123Q533.4625 54.38125 532.79065 53.771873Q532.1344 53.1625 532.1344 52.271873Q532.1344 51.271873 532.9313 50.615623Q533.7438 49.94375 535.04065 49.94375Q535.91565 49.94375 536.60315 50.2875Q537.29065 50.63125 537.66565 51.225Q538.0563 51.81875 538.0563 52.5375L536.91565 52.5375Q536.91565 51.75625 536.41565 51.31875Q535.9313 50.88125 535.04065 50.88125Q534.2125 50.88125 533.7438 51.25625Q533.275 51.615623 533.275 52.25625Q533.275 52.7875 533.7125 53.146873Q534.16565 53.50625 535.22815 53.803123Q536.29065 54.1 536.8844 54.459373Q537.4938 54.81875 537.775 55.303123Q538.0719 55.7875 538.0719 56.428123Q538.0719 57.475 537.2594 58.1Q536.4469 58.725 535.10315 58.725Q534.2125 58.725 533.4469 58.38125Q532.6969 58.0375 532.275 57.459373Q531.8688 56.865623 531.8688 56.13125L532.9938 56.13125Q532.9938 56.896873 533.5719 57.35Q534.15 57.803123 535.10315 57.803123Q535.9938 57.803123 536.4625 57.44375Q536.9313 57.06875 536.9313 56.44375Q536.9313 55.81875 536.4938 55.475Q536.0563 55.13125 534.9 54.803123ZM540.6969 50.725L540.6969 52.25625L541.8688 52.25625L541.8688 53.1L540.6969 53.1L540.6969 57.021873Q540.6969 57.4125 540.85315 57.6Q541.0094 57.7875 541.3844 57.7875Q541.5719 57.7875 541.9 57.725L541.9 58.6Q541.47815 58.725 541.0719 58.725Q540.35315 58.725 539.97815 58.2875Q539.60315 57.834373 539.60315 57.021873L539.60315 53.1L538.4469 53.1L538.4469 52.25625L539.60315 52.25625L539.60315 50.725L540.6969 50.725ZM547.1344 58.6Q547.04065 58.4125 546.97815 57.928123Q546.22815 58.725 545.1813 58.725Q544.2438 58.725 543.6344 58.19375Q543.04065 57.6625 543.04065 56.834373Q543.04065 55.85 543.79065 55.303123Q544.54065 54.75625 545.91565 54.75625L546.9625 54.75625L546.9625 54.25625Q546.9625 53.69375 546.6188 53.365623Q546.29065 53.021873 545.6188 53.021873Q545.04065 53.021873 544.65 53.31875Q544.2594 53.6 544.2594 54.021873L543.16565 54.021873Q543.16565 53.5375 543.4938 53.1Q543.8375 52.6625 544.41565 52.4125Q544.9938 52.146873 545.6813 52.146873Q546.79065 52.146873 547.4 52.69375Q548.025 53.240623 548.0563 54.19375L548.0563 57.115623Q548.0563 57.990623 548.275 58.50625L548.275 58.6L547.1344 58.6ZM545.3375 57.771873Q545.85315 57.771873 546.3063 57.50625Q546.7594 57.240623 546.9625 56.81875L546.9625 55.521873L546.1188 55.521873Q544.1188 55.521873 544.1188 56.69375Q544.1188 57.19375 544.4625 57.490623Q544.8063 57.771873 545.3375 57.771873ZM551.2438 52.25625L551.275 53.053123Q552.0094 52.146873 553.1813 52.146873Q555.1969 52.146873 555.2125 54.4125L555.2125 58.6L554.1188 58.6L554.1188 54.396873Q554.1188 53.725 553.8063 53.396873Q553.5094 53.06875 552.85315 53.06875Q552.3219 53.06875 551.91565 53.35Q551.525 53.63125 551.3063 54.084373L551.3063 58.6L550.22815 58.6L550.22815 52.25625L551.2438 52.25625ZM556.9625 55.38125Q556.9625 53.9125 557.65 53.0375Q558.3375 52.146873 559.4625 52.146873Q560.5719 52.146873 561.22815 52.896873L561.22815 49.6L562.3063 49.6L562.3063 58.6L561.3063 58.6L561.2594 57.9125Q560.60315 58.725 559.4469 58.725Q558.35315 58.725 557.65 57.81875Q556.9625 56.9125 556.9625 55.459373L556.9625 55.38125ZM558.04065 55.50625Q558.04065 56.584373 558.47815 57.19375Q558.9313 57.803123 559.7125 57.803123Q560.7438 57.803123 561.22815 56.865623L561.22815 53.959373Q560.7438 53.06875 559.72815 53.06875Q558.9313 53.06875 558.47815 53.678123Q558.04065 54.2875 558.04065 55.50625ZM568.1344 58.6Q568.04065 58.4125 567.97815 57.928123Q567.22815 58.725 566.1813 58.725Q565.2438 58.725 564.6344 58.19375Q564.04065 57.6625 564.04065 56.834373Q564.04065 55.85 564.79065 55.303123Q565.54065 54.75625 566.91565 54.75625L567.9625 54.75625L567.9625 54.25625Q567.9625 53.69375 567.6188 53.365623Q567.29065 53.021873 566.6188 53.021873Q566.04065 53.021873 565.65 53.31875Q565.2594 53.6 565.2594 54.021873L564.16565 54.021873Q564.16565 53.5375 564.4938 53.1Q564.8375 52.6625 565.41565 52.4125Q565.9938 52.146873 566.6813 52.146873Q567.79065 52.146873 568.4 52.69375Q569.025 53.240623 569.0563 54.19375L569.0563 57.115623Q569.0563 57.990623 569.275 58.50625L569.275 58.6L568.1344 58.6ZM566.3375 57.771873Q566.85315 57.771873 567.3063 57.50625Q567.7594 57.240623 567.9625 56.81875L567.9625 55.521873L567.1188 55.521873Q565.1188 55.521873 565.1188 56.69375Q565.1188 57.19375 565.4625 57.490623Q565.8063 57.771873 566.3375 57.771873ZM574.29065 53.225Q574.04065 53.19375 573.7594 53.19375Q572.6813 53.19375 572.3063 54.1L572.3063 58.6L571.22815 58.6L571.22815 52.25625L572.275 52.25625L572.29065 52.990623Q572.8219 52.146873 573.8063 52.146873Q574.1188 52.146873 574.29065 52.225L574.29065 53.225ZM574.9625 55.38125Q574.9625 53.9125 575.65 53.0375Q576.3375 52.146873 577.4625 52.146873Q578.5719 52.146873 579.22815 52.896873L579.22815 49.6L580.3063 49.6L580.3063 58.6L579.3063 58.6L579.2594 57.9125Q578.60315 58.725 577.4469 58.725Q576.35315 58.725 575.65 57.81875Q574.9625 56.9125 574.9625 55.459373L574.9625 55.38125ZM576.04065 55.50625Q576.04065 56.584373 576.47815 57.19375Q576.9313 57.803123 577.7125 57.803123Q578.7438 57.803123 579.22815 56.865623L579.22815 53.959373Q578.7438 53.06875 577.72815 53.06875Q576.9313 53.06875 576.47815 53.678123Q576.04065 54.2875 576.04065 55.50625ZM584.9 54.803123Q583.4625 54.38125 582.79065 53.771873Q582.1344 53.1625 582.1344 52.271873Q582.1344 51.271873 582.9313 50.615623Q583.7438 49.94375 585.04065 49.94375Q585.91565 49.94375 586.60315 50.2875Q587.29065 50.63125 587.66565 51.225Q588.0563 51.81875 588.0563 52.5375L586.91565 52.5375Q586.91565 51.75625 586.41565 51.31875Q585.9313 50.88125 585.04065 50.88125Q584.2125 50.88125 583.7438 51.25625Q583.275 51.615623 583.275 52.25625Q583.275 52.7875 583.7125 53.146873Q584.16565 53.50625 585.22815 53.803123Q586.29065 54.1 586.8844 54.459373Q587.4938 54.81875 587.775 55.303123Q588.0719 55.7875 588.0719 56.428123Q588.0719 57.475 587.2594 58.1Q586.4469 58.725 585.10315 58.725Q584.2125 58.725 583.4469 58.38125Q582.6969 58.0375 582.275 57.459373Q581.8688 56.865623 581.8688 56.13125L582.9938 56.13125Q582.9938 56.896873 583.5719 57.35Q584.15 57.803123 585.10315 57.803123Q585.9938 57.803123 586.4625 57.44375Q586.9313 57.06875 586.9313 56.44375Q586.9313 55.81875 586.4938 55.475Q586.0563 55.13125 584.9 54.803123ZM590.6969 50.725L590.6969 52.25625L591.8688 52.25625L591.8688 53.1L590.6969 53.1L590.6969 57.021873Q590.6969 57.4125 590.85315 57.6Q591.0094 57.7875 591.3844 57.7875Q591.5719 57.7875 591.9 57.725L591.9 58.6Q591.47815 58.725 591.0719 58.725Q590.35315 58.725 589.97815 58.2875Q589.60315 57.834373 589.60315 57.021873L589.60315 53.1L588.4469 53.1L588.4469 52.25625L589.60315 52.25625L589.60315 50.725L590.6969 50.725ZM592.9313 55.365623Q592.9313 54.44375 593.29065 53.69375Q593.66565 52.94375 594.3219 52.553123Q594.97815 52.146873 595.8063 52.146873Q597.10315 52.146873 597.9 53.0375Q598.7125 53.928123 598.7125 55.428123L598.7125 55.50625Q598.7125 56.428123 598.35315 57.1625Q597.9938 57.896873 597.3375 58.31875Q596.6813 58.725 595.8219 58.725Q594.54065 58.725 593.72815 57.834373Q592.9313 56.928123 592.9313 55.44375L592.9313 55.365623ZM594.025 55.50625Q594.025 56.553123 594.5094 57.19375Q595.0094 57.834373 595.8219 57.834373Q596.65 57.834373 597.1344 57.19375Q597.6188 56.5375 597.6188 55.365623Q597.6188 54.334373 597.1188 53.69375Q596.6344 53.0375 595.8063 53.0375Q595.0094 53.0375 594.5094 53.678123Q594.025 54.303123 594.025 55.50625ZM603.29065 53.225Q603.04065 53.19375 602.7594 53.19375Q601.6813 53.19375 601.3063 54.1L601.3063 58.6L600.22815 58.6L600.22815 52.25625L601.275 52.25625L601.29065 52.990623Q601.8219 52.146873 602.8063 52.146873Q603.1188 52.146873 603.29065 52.225L603.29065 53.225ZM608.1344 58.6Q608.04065 58.4125 607.97815 57.928123Q607.22815 58.725 606.1813 58.725Q605.2438 58.725 604.6344 58.19375Q604.04065 57.6625 604.04065 56.834373Q604.04065 55.85 604.79065 55.303123Q605.54065 54.75625 606.91565 54.75625L607.9625 54.75625L607.9625 54.25625Q607.9625 53.69375 607.6188 53.365623Q607.29065 53.021873 606.6188 53.021873Q606.04065 53.021873 605.65 53.31875Q605.2594 53.6 605.2594 54.021873L604.16565 54.021873Q604.16565 53.5375 604.4938 53.1Q604.8375 52.6625 605.41565 52.4125Q605.9938 52.146873 606.6813 52.146873Q607.79065 52.146873 608.4 52.69375Q609.025 53.240623 609.0563 54.19375L609.0563 57.115623Q609.0563 57.990623 609.275 58.50625L609.275 58.6L608.1344 58.6ZM606.3375 57.771873Q606.85315 57.771873 607.3063 57.50625Q607.7594 57.240623 607.9625 56.81875L607.9625 55.521873L607.1188 55.521873Q605.1188 55.521873 605.1188 56.69375Q605.1188 57.19375 605.4625 57.490623Q605.8063 57.771873 606.3375 57.771873ZM610.9625 55.38125Q610.9625 53.896873 611.65 53.021873Q612.3375 52.146873 613.4625 52.146873Q614.6188 52.146873 615.275 52.959373L615.3219 52.25625L616.3219 52.25625L616.3219 58.44375Q616.3219 59.678123 615.5875 60.38125Q614.85315 61.1 613.6344 61.1Q612.9469 61.1 612.29065 60.803123Q611.6344 60.50625 611.29065 60.00625L611.85315 59.35Q612.54065 60.209373 613.5563 60.209373Q614.3375 60.209373 614.775 59.75625Q615.22815 59.31875 615.22815 58.50625L615.22815 57.959373Q614.5719 58.725 613.4469 58.725Q612.3375 58.725 611.65 57.834373Q610.9625 56.928123 610.9625 55.38125ZM612.0563 55.50625Q612.0563 56.56875 612.4938 57.19375Q612.9313 57.803123 613.72815 57.803123Q614.7438 57.803123 615.22815 56.865623L615.22815 53.975Q614.72815 53.06875 613.72815 53.06875Q612.9469 53.06875 612.4938 53.678123Q612.0563 54.2875 612.0563 55.50625ZM620.85315 58.725Q619.5563 58.725 618.7438 57.88125Q617.9469 57.021873 617.9469 55.6L617.9469 55.4125Q617.9469 54.459373 618.3063 53.725Q618.66565 52.975 619.3063 52.56875Q619.9625 52.146873 620.7125 52.146873Q621.9469 52.146873 622.6344 52.959373Q623.3219 53.771873 623.3219 55.2875L623.3219 55.740623L619.025 55.740623Q619.0563 56.678123 619.5719 57.25625Q620.10315 57.834373 620.91565 57.834373Q621.47815 57.834373 621.8688 57.6Q622.275 57.365623 622.5875 56.975L623.2438 57.490623Q622.4469 58.725 620.85315 58.725ZM620.7125 53.0375Q620.0563 53.0375 619.60315 53.521873Q619.16565 53.990623 619.0719 54.85L622.2438 54.85L622.2438 54.771873Q622.1969 53.94375 621.79065 53.490623Q621.4 53.0375 620.7125 53.0375Z" fill-rule="nonzero"/><path fill="#34a853" d="M511.4 74.1C511.4 73.547714 511.84772 73.1 512.4 73.1L522.4 73.1C522.9523 73.1 523.4 73.547714 523.4 74.1L523.4 84.1C523.4 84.65228 522.9523 85.1 522.4 85.1L512.4 85.1C511.84772 85.1 511.4 84.65228 511.4 84.1Z" fill-rule="nonzero"/><path fill="#1a1a1a" d="M533.525 82.67812L537.5719 82.67812L537.5719 83.6L532.3844 83.6L532.3844 75.06875L533.525 75.06875L533.525 82.67812ZM539.4 83.6L538.3219 83.6L538.3219 77.25625L539.4 77.25625L539.4 83.6ZM538.22815 75.58437Q538.22815 75.31875 538.3844 75.13125Q538.5563 74.94375 538.8688 74.94375Q539.1813 74.94375 539.3375 75.13125Q539.5094 75.31875 539.5094 75.58437Q539.5094 75.83437 539.3375 76.02187Q539.1813 76.19375 538.8688 76.19375Q538.5563 76.19375 538.3844 76.02187Q538.22815 75.83437 538.22815 75.58437ZM544.91565 81.9125Q544.91565 81.475 544.5719 81.24062Q544.2438 80.99062 543.41565 80.81875Q542.60315 80.64687 542.1188 80.39687Q541.6344 80.14687 541.4 79.81875Q541.1813 79.475 541.1813 79.00625Q541.1813 78.225 541.8375 77.69375Q542.4938 77.14687 543.525 77.14687Q544.60315 77.14687 545.2594 77.70937Q545.9313 78.25625 545.9313 79.11562L544.85315 79.11562Q544.85315 78.67812 544.4625 78.36562Q544.0875 78.0375 543.525 78.0375Q542.9313 78.0375 542.5875 78.30312Q542.2594 78.55312 542.2594 78.95937Q542.2594 79.35 542.5719 79.55312Q542.8844 79.75625 543.6969 79.94375Q544.5094 80.11562 545.0094 80.36562Q545.5094 80.61562 545.7438 80.975Q545.9938 81.33437 545.9938 81.83437Q545.9938 82.69375 545.3063 83.20937Q544.6344 83.725 543.5563 83.725Q542.79065 83.725 542.1969 83.45937Q541.6188 83.17812 541.29065 82.69375Q540.9625 82.20937 540.9625 81.64687L542.04065 81.64687Q542.0719 82.19375 542.47815 82.52187Q542.8844 82.83437 543.5563 82.83437Q544.16565 82.83437 544.54065 82.58437Q544.91565 82.33437 544.91565 81.9125ZM548.6969 75.725L548.6969 77.25625L549.8688 77.25625L549.8688 78.1L548.6969 78.1L548.6969 82.02187Q548.6969 82.4125 548.85315 82.6Q549.0094 82.7875 549.3844 82.7875Q549.5719 82.7875 549.9 82.725L549.9 83.6Q549.47815 83.725 549.0719 83.725Q548.35315 83.725 547.97815 83.2875Q547.60315 82.83437 547.60315 82.02187L547.60315 78.1L546.4469 78.1L546.4469 77.25625L547.60315 77.25625L547.60315 75.725L548.6969 75.725ZM551.3844 83.6L551.3844 75.06875L554.1813 75.06875Q555.5719 75.06875 556.2594 75.64687Q556.9625 76.20937 556.9625 77.33437Q556.9625 77.94375 556.6188 78.4125Q556.29065 78.86562 555.6969 79.11562Q556.4 79.30312 556.79065 79.85Q557.1969 80.38125 557.1969 81.13125Q557.1969 82.2875 556.4469 82.94375Q555.7125 83.6 554.35315 83.6L551.3844 83.6ZM552.5094 79.61562L552.5094 82.67812L554.3688 82.67812Q555.16565 82.67812 555.6188 82.27187Q556.0719 81.86562 556.0719 81.14687Q556.0719 79.61562 554.3844 79.61562L552.5094 79.61562ZM552.5094 78.70937L554.2125 78.70937Q554.9469 78.70937 555.3844 78.35Q555.8375 77.975 555.8375 77.33437Q555.8375 76.63125 555.4313 76.31875Q555.025 75.99062 554.1813 75.99062L552.5094 75.99062L552.5094 78.70937ZM562.1344 82.975Q561.5094 83.725 560.275 83.725Q559.2594 83.725 558.72815 83.13125Q558.1969 82.5375 558.1969 81.38125L558.1969 77.25625L559.275 77.25625L559.275 81.35Q559.275 82.80312 560.4469 82.80312Q561.6969 82.80312 562.10315 81.86562L562.10315 77.25625L563.1969 77.25625L563.1969 83.6L562.16565 83.6L562.1344 82.975ZM567.7594 82.83437Q568.3375 82.83437 568.775 82.49062Q569.2125 82.13125 569.2594 81.6L570.29065 81.6Q570.2594 82.14687 569.9 82.64687Q569.5563 83.13125 568.97815 83.42812Q568.41565 83.725 567.7594 83.725Q566.4625 83.725 565.6969 82.86562Q564.9469 81.99062 564.9469 80.49062L564.9469 80.30312Q564.9469 79.38125 565.275 78.6625Q565.6188 77.94375 566.2438 77.55312Q566.8844 77.14687 567.7594 77.14687Q568.8219 77.14687 569.525 77.7875Q570.2438 78.4125 570.29065 79.44375L569.2594 79.44375Q569.2125 78.81875 568.79065 78.42812Q568.3688 78.0375 567.7594 78.0375Q566.9313 78.0375 566.47815 78.63125Q566.025 79.225 566.025 80.35L566.025 80.55312Q566.025 81.64687 566.47815 82.24062Q566.9313 82.83437 567.7594 82.83437ZM572.9938 80.6625L572.3063 81.36562L572.3063 83.6L571.22815 83.6L571.22815 74.6L572.3063 74.6L572.3063 80.0375L572.8844 79.35L574.8688 77.25625L576.1813 77.25625L573.7125 79.9125L576.47815 83.6L575.1969 83.6L572.9938 80.6625ZM579.85315 83.725Q578.5563 83.725 577.7438 82.88125Q576.9469 82.02187 576.9469 80.6L576.9469 80.4125Q576.9469 79.45937 577.3063 78.725Q577.66565 77.975 578.3063 77.56875Q578.9625 77.14687 579.7125 77.14687Q580.9469 77.14687 581.6344 77.95937Q582.3219 78.77187 582.3219 80.2875L582.3219 80.74062L578.025 80.74062Q578.0563 81.67812 578.5719 82.25625Q579.10315 82.83437 579.91565 82.83437Q580.47815 82.83437 580.8688 82.6Q581.275 82.36562 581.5875 81.975L582.2438 82.49062Q581.4469 83.725 579.85315 83.725ZM579.7125 78.0375Q579.0563 78.0375 578.60315 78.52187Q578.16565 78.99062 578.0719 79.85L581.2438 79.85L581.2438 79.77187Q581.1969 78.94375 580.79065 78.49062Q580.4 78.0375 579.7125 78.0375ZM584.6969 75.725L584.6969 77.25625L585.8688 77.25625L585.8688 78.1L584.6969 78.1L584.6969 82.02187Q584.6969 82.4125 584.85315 82.6Q585.0094 82.7875 585.3844 82.7875Q585.5719 82.7875 585.9 82.725L585.9 83.6Q585.47815 83.725 585.0719 83.725Q584.35315 83.725 583.97815 83.2875Q583.60315 82.83437 583.60315 82.02187L583.60315 78.1L582.4469 78.1L582.4469 77.25625L583.60315 77.25625L583.60315 75.725L584.6969 75.725Z" fill-rule="nonzero"/><path fill="#fbbc04" d="M511.4 99.1C511.4 98.547714 511.84772 98.1 512.4 98.1L522.4 98.1C522.9523 98.1 523.4 98.547714 523.4 99.1L523.4 109.1C523.4 109.65228 522.9523 110.1 522.4 110.1L512.4 110.1C511.84772 110.1 511.4 109.65228 511.4 109.1Z" fill-rule="nonzero"/><path fill="#1a1a1a" d="M538.9469 108.6L537.8219 108.6L537.8219 104.6625L533.5094 104.6625L533.5094 108.6L532.3844 108.6L532.3844 100.06875L533.5094 100.06875L533.5094 103.74062L537.8219 103.74062L537.8219 100.06875L538.9469 100.06875L538.9469 108.6ZM543.85315 108.725Q542.5563 108.725 541.7438 107.88125Q540.9469 107.02187 540.9469 105.6L540.9469 105.4125Q540.9469 104.45937 541.3063 103.725Q541.66565 102.975 542.3063 102.56875Q542.9625 102.14687 543.7125 102.14687Q544.9469 102.14687 545.6344 102.95937Q546.3219 103.77187 546.3219 105.2875L546.3219 105.74062L542.025 105.74062Q542.0563 106.67812 542.5719 107.25625Q543.10315 107.83437 543.91565 107.83437Q544.47815 107.83437 544.8688 107.6Q545.275 107.36562 545.5875 106.975L546.2438 107.49062Q545.4469 108.725 543.85315 108.725ZM543.7125 103.0375Q543.0563 103.0375 542.60315 103.52187Q542.16565 103.99062 542.0719 104.85L545.2438 104.85L545.2438 104.77187Q545.1969 103.94375 544.79065 103.49062Q544.4 103.0375 543.7125 103.0375ZM551.1344 108.6Q551.04065 108.4125 550.97815 107.92812Q550.22815 108.725 549.1813 108.725Q548.2438 108.725 547.6344 108.19375Q547.04065 107.6625 547.04065 106.83437Q547.04065 105.85 547.79065 105.30312Q548.54065 104.75625 549.91565 104.75625L550.9625 104.75625L550.9625 104.25625Q550.9625 103.69375 550.6188 103.36562Q550.29065 103.02187 549.6188 103.02187Q549.04065 103.02187 548.65 103.31875Q548.2594 103.6 548.2594 104.02187L547.16565 104.02187Q547.16565 103.5375 547.4938 103.1Q547.8375 102.6625 548.41565 102.4125Q548.9938 102.14687 549.6813 102.14687Q550.79065 102.14687 551.4 102.69375Q552.025 103.24062 552.0563 104.19375L552.0563 107.11562Q552.0563 107.99062 552.275 108.50625L552.275 108.6L551.1344 108.6ZM549.3375 107.77187Q549.85315 107.77187 550.3063 107.50625Q550.7594 107.24062 550.9625 106.81875L550.9625 105.52187L550.1188 105.52187Q548.1188 105.52187 548.1188 106.69375Q548.1188 107.19375 548.4625 107.49062Q548.8063 107.77187 549.3375 107.77187ZM553.9625 105.38125Q553.9625 103.9125 554.65 103.0375Q555.3375 102.14687 556.4625 102.14687Q557.5719 102.14687 558.22815 102.89687L558.22815 99.6L559.3063 99.6L559.3063 108.6L558.3063 108.6L558.2594 107.9125Q557.60315 108.725 556.4469 108.725Q555.35315 108.725 554.65 107.81875Q553.9625 106.9125 553.9625 105.45937L553.9625 105.38125ZM555.04065 105.50625Q555.04065 106.58437 555.47815 107.19375Q555.9313 107.80312 556.7125 107.80312Q557.7438 107.80312 558.22815 106.86562L558.22815 103.95937Q557.7438 103.06875 556.72815 103.06875Q555.9313 103.06875 555.47815 103.67812Q555.04065 104.2875 555.04065 105.50625ZM567.9469 104.61562Q567.9469 105.86562 567.525 106.80312Q567.10315 107.725 566.3219 108.225Q565.5563 108.725 564.525 108.725Q563.525 108.725 562.7438 108.225Q561.9625 107.725 561.525 106.81875Q561.10315 105.89687 561.0875 104.67812L561.0875 104.06875Q561.0875 102.83437 561.5094 101.89687Q561.9469 100.95937 562.72815 100.45937Q563.5094 99.94375 564.525 99.94375Q565.54065 99.94375 566.3219 100.44375Q567.10315 100.94375 567.525 101.88125Q567.9469 102.81875 567.9469 104.06875L567.9469 104.61562ZM566.8375 104.05312Q566.8375 102.5375 566.22815 101.725Q565.6188 100.9125 564.525 100.9125Q563.4469 100.9125 562.8375 101.725Q562.22815 102.5375 562.2125 103.975L562.2125 104.61562Q562.2125 106.08437 562.8219 106.92812Q563.4469 107.75625 564.525 107.75625Q565.6188 107.75625 566.2125 106.975Q566.8219 106.17812 566.8375 104.69375L566.8375 104.05312ZM574.5875 105.50625Q574.5875 106.95937 573.91565 107.85Q573.2594 108.725 572.1344 108.725Q570.9313 108.725 570.275 107.86562L570.2125 108.6L569.22815 108.6L569.22815 99.6L570.3063 99.6L570.3063 102.95937Q570.9625 102.14687 572.1188 102.14687Q573.275 102.14687 573.9313 103.02187Q574.5875 103.88125 574.5875 105.4125L574.5875 105.50625ZM573.5094 105.38125Q573.5094 104.27187 573.0719 103.67812Q572.65 103.06875 571.85315 103.06875Q570.775 103.06875 570.3063 104.05312L570.3063 106.80312Q570.8063 107.80312 571.85315 107.80312Q572.6344 107.80312 573.0719 107.19375Q573.5094 106.58437 573.5094 105.38125ZM577.3375 102.25625L577.3375 109.33437Q577.3375 111.1625 575.6813 111.1625Q575.3219 111.1625 575.025 111.05312L575.025 110.19375Q575.2125 110.24062 575.5094 110.24062Q575.8688 110.24062 576.0563 110.0375Q576.2594 109.85 576.2594 109.35L576.2594 102.25625L577.3375 102.25625ZM576.15 100.58437Q576.15 100.31875 576.3063 100.13125Q576.4625 99.94375 576.775 99.94375Q577.0875 99.94375 577.2438 100.13125Q577.41565 100.31875 577.41565 100.58437Q577.41565 100.83437 577.2438 101.02187Q577.0875 101.19375 576.775 101.19375Q576.4625 101.19375 576.3063 101.02187Q576.15 100.83437 576.15 100.58437ZM581.85315 108.725Q580.5563 108.725 579.7438 107.88125Q578.9469 107.02187 578.9469 105.6L578.9469 105.4125Q578.9469 104.45937 579.3063 103.725Q579.66565 102.975 580.3063 102.56875Q580.9625 102.14687 581.7125 102.14687Q582.9469 102.14687 583.6344 102.95937Q584.3219 103.77187 584.3219 105.2875L584.3219 105.74062L580.025 105.74062Q580.0563 106.67812 580.5719 107.25625Q581.10315 107.83437 581.91565 107.83437Q582.47815 107.83437 582.8688 107.6Q583.275 107.36562 583.5875 106.975L584.2438 107.49062Q583.4469 108.725 581.85315 108.725ZM581.7125 103.0375Q581.0563 103.0375 580.60315 103.52187Q580.16565 103.99062 580.0719 104.85L583.2438 104.85L583.2438 104.77187Q583.1969 103.94375 582.79065 103.49062Q582.4 103.0375 581.7125 103.0375ZM587.7594 107.83437Q588.3375 107.83437 588.775 107.49062Q589.2125 107.13125 589.2594 106.6L590.29065 106.6Q590.2594 107.14687 589.9 107.64687Q589.5563 108.13125 588.97815 108.42812Q588.41565 108.725 587.7594 108.725Q586.4625 108.725 585.6969 107.86562Q584.9469 106.99062 584.9469 105.49062L584.9469 105.30312Q584.9469 104.38125 585.275 103.6625Q585.6188 102.94375 586.2438 102.55312Q586.8844 102.14687 587.7594 102.14687Q588.8219 102.14687 589.525 102.7875Q590.2438 103.4125 590.29065 104.44375L589.2594 104.44375Q589.2125 103.81875 588.79065 103.42812Q588.3688 103.0375 587.7594 103.0375Q586.9313 103.0375 586.47815 103.63125Q586.025 104.225 586.025 105.35L586.025 105.55312Q586.025 106.64687 586.47815 107.24062Q586.9313 107.83437 587.7594 107.83437ZM592.6969 100.725L592.6969 102.25625L593.8688 102.25625L593.8688 103.1L592.6969 103.1L592.6969 107.02187Q592.6969 107.4125 592.85315 107.6Q593.0094 107.7875 593.3844 107.7875Q593.5719 107.7875 593.9 107.725L593.9 108.6Q593.47815 108.725 593.0719 108.725Q592.35315 108.725 591.97815 108.2875Q591.60315 107.83437 591.60315 107.02187L591.60315 103.1L590.4469 103.1L590.4469 102.25625L591.60315 102.25625L591.60315 100.725L592.6969 100.725Z" fill-rule="nonzero"/><path fill="#ea4335" d="M511.4 124.1C511.4 123.547714 511.84772 123.1 512.4 123.1L522.4 123.1C522.9523 123.1 523.4 123.547714 523.4 124.1L523.4 134.1C523.4 134.65228 522.9523 135.1 522.4 135.1L512.4 135.1C511.84772 135.1 511.4 134.65228 511.4 134.1Z" fill-rule="nonzero"/><path fill="#1a1a1a" d="M533.5094 130.25626L533.5094 133.6L532.3844 133.6L532.3844 125.068756L535.54065 125.068756Q536.9313 125.068756 537.72815 125.787506Q538.525 126.49063 538.525 127.67813Q538.525 128.9125 537.7438 129.58438Q536.97815 130.25626 535.525 130.25626L533.5094 130.25626ZM533.5094 129.33438L535.54065 129.33438Q536.4469 129.33438 536.91565 128.9125Q537.4 128.49063 537.4 127.693756Q537.4 126.92813 536.91565 126.475006Q536.4469 126.006256 535.60315 125.99063L533.5094 125.99063L533.5094 129.33438ZM544.1344 132.975Q543.5094 133.725 542.275 133.725Q541.2594 133.725 540.72815 133.13126Q540.1969 132.5375 540.1969 131.38126L540.1969 127.256256L541.275 127.256256L541.275 131.35Q541.275 132.80313 542.4469 132.80313Q543.6969 132.80313 544.10315 131.86563L544.10315 127.256256L545.1969 127.256256L545.1969 133.6L544.16565 133.6L544.1344 132.975ZM548.6969 125.725006L548.6969 127.256256L549.8688 127.256256L549.8688 128.1L548.6969 128.1L548.6969 132.02188Q548.6969 132.4125 548.85315 132.6Q549.0094 132.7875 549.3844 132.7875Q549.5719 132.7875 549.9 132.725L549.9 133.6Q549.47815 133.725 549.0719 133.725Q548.35315 133.725 547.97815 133.2875Q547.60315 132.83438 547.60315 132.02188L547.60315 128.1L546.4469 128.1L546.4469 127.256256L547.60315 127.256256L547.60315 125.725006L548.6969 125.725006ZM557.9469 129.61563Q557.9469 130.86563 557.525 131.80313Q557.10315 132.725 556.3219 133.225Q555.5563 133.725 554.525 133.725Q553.525 133.725 552.7438 133.225Q551.9625 132.725 551.525 131.81876Q551.10315 130.89688 551.0875 129.67813L551.0875 129.06876Q551.0875 127.83438 551.5094 126.89688Q551.9469 125.95938 552.72815 125.45938Q553.5094 124.943756 554.525 124.943756Q555.54065 124.943756 556.3219 125.443756Q557.10315 125.943756 557.525 126.881256Q557.9469 127.818756 557.9469 129.06876L557.9469 129.61563ZM556.8375 129.05313Q556.8375 127.537506 556.22815 126.725006Q555.6188 125.912506 554.525 125.912506Q553.4469 125.912506 552.8375 126.725006Q552.22815 127.537506 552.2125 128.975L552.2125 129.61563Q552.2125 131.08438 552.8219 131.92813Q553.4469 132.75626 554.525 132.75626Q555.6188 132.75626 556.2125 131.975Q556.8219 131.17813 556.8375 129.69376L556.8375 129.05313ZM564.5875 130.50626Q564.5875 131.95938 563.91565 132.85Q563.2594 133.725 562.1344 133.725Q560.9313 133.725 560.275 132.86563L560.2125 133.6L559.22815 133.6L559.22815 124.600006L560.3063 124.600006L560.3063 127.95938Q560.9625 127.14688 562.1188 127.14688Q563.275 127.14688 563.9313 128.02188Q564.5875 128.88126 564.5875 130.4125L564.5875 130.50626ZM563.5094 130.38126Q563.5094 129.27188 563.0719 128.67813Q562.65 128.06876 561.85315 128.06876Q560.775 128.06876 560.3063 129.05313L560.3063 131.80313Q560.8063 132.80313 561.85315 132.80313Q562.6344 132.80313 563.0719 132.19376Q563.5094 131.58438 563.5094 130.38126ZM567.3375 127.256256L567.3375 134.33438Q567.3375 136.1625 565.6813 136.1625Q565.3219 136.1625 565.025 136.05313L565.025 135.19376Q565.2125 135.24063 565.5094 135.24063Q565.8688 135.24063 566.0563 135.0375Q566.2594 134.85 566.2594 134.35L566.2594 127.256256L567.3375 127.256256ZM566.15 125.58438Q566.15 125.318756 566.3063 125.131256Q566.4625 124.943756 566.775 124.943756Q567.0875 124.943756 567.2438 125.131256Q567.41565 125.318756 567.41565 125.58438Q567.41565 125.83438 567.2438 126.02188Q567.0875 126.193756 566.775 126.193756Q566.4625 126.193756 566.3063 126.02188Q566.15 125.83438 566.15 125.58438ZM571.85315 133.725Q570.5563 133.725 569.7438 132.88126Q568.9469 132.02188 568.9469 130.6L568.9469 130.4125Q568.9469 129.45938 569.3063 128.725Q569.66565 127.975006 570.3063 127.568756Q570.9625 127.14688 571.7125 127.14688Q572.9469 127.14688 573.6344 127.95938Q574.3219 128.77188 574.3219 130.2875L574.3219 130.74063L570.025 130.74063Q570.0563 131.67813 570.5719 132.25626Q571.10315 132.83438 571.91565 132.83438Q572.47815 132.83438 572.8688 132.6Q573.275 132.36563 573.5875 131.975L574.2438 132.49063Q573.4469 133.725 571.85315 133.725ZM571.7125 128.0375Q571.0563 128.0375 570.60315 128.52188Q570.16565 128.99063 570.0719 129.85L573.2438 129.85L573.2438 129.77188Q573.1969 128.94376 572.79065 128.49063Q572.4 128.0375 571.7125 128.0375ZM577.7594 132.83438Q578.3375 132.83438 578.775 132.49063Q579.2125 132.13126 579.2594 131.6L580.29065 131.6Q580.2594 132.14688 579.9 132.64688Q579.5563 133.13126 578.97815 133.42813Q578.41565 133.725 577.7594 133.725Q576.4625 133.725 575.6969 132.86563Q574.9469 131.99063 574.9469 130.49063L574.9469 130.30313Q574.9469 129.38126 575.275 128.6625Q575.6188 127.943756 576.2438 127.55313Q576.8844 127.14688 577.7594 127.14688Q578.8219 127.14688 579.525 127.787506Q580.2438 128.4125 580.29065 129.44376L579.2594 129.44376Q579.2125 128.81876 578.79065 128.42813Q578.3688 128.0375 577.7594 128.0375Q576.9313 128.0375 576.47815 128.63126Q576.025 129.225 576.025 130.35L576.025 130.55313Q576.025 131.64688 576.47815 132.24063Q576.9313 132.83438 577.7594 132.83438ZM582.6969 125.725006L582.6969 127.256256L583.8688 127.256256L583.8688 128.1L582.6969 128.1L582.6969 132.02188Q582.6969 132.4125 582.85315 132.6Q583.0094 132.7875 583.3844 132.7875Q583.5719 132.7875 583.9 132.725L583.9 133.6Q583.47815 133.725 583.0719 133.725Q582.35315 133.725 581.97815 133.2875Q581.60315 132.83438 581.60315 132.02188L581.60315 128.1L580.4469 128.1L580.4469 127.256256L581.60315 127.256256L581.60315 125.725006L582.6969 125.725006Z" fill-rule="nonzero"/><path fill="#4285f4" d="M511.4 149.1C511.4 148.54771 511.84772 148.1 512.4 148.1L522.4 148.1C522.9523 148.1 523.4 148.54771 523.4 149.1L523.4 159.1C523.4 159.65228 522.9523 160.1 522.4 160.1L512.4 160.1C511.84772 160.1 511.4 159.65228 511.4 159.1Z" fill-rule="nonzero"/><path fill="#1a1a1a" d="M538.66565 155.89688Q538.5094 157.24063 537.66565 157.99063Q536.8219 158.725 535.4313 158.725Q533.91565 158.725 533.0094 157.64688Q532.10315 156.55313 532.10315 154.725L532.10315 153.9125Q532.10315 152.725 532.525 151.81876Q532.9469 150.9125 533.72815 150.42813Q534.5094 149.94376 535.525 149.94376Q536.8844 149.94376 537.6969 150.70938Q538.525 151.475 538.66565 152.80313L537.54065 152.80313Q537.3844 151.7875 536.9 151.33438Q536.41565 150.88126 535.525 150.88126Q534.4469 150.88126 533.8375 151.67813Q533.22815 152.475 533.22815 153.94376L533.22815 154.77188Q533.22815 156.1625 533.8063 156.99063Q534.3844 157.80313 535.4313 157.80313Q536.3688 157.80313 536.8688 157.38126Q537.3688 156.94376 537.54065 155.89688L538.66565 155.89688ZM539.9313 155.36563Q539.9313 154.44376 540.29065 153.69376Q540.66565 152.94376 541.3219 152.55313Q541.97815 152.14688 542.8063 152.14688Q544.10315 152.14688 544.9 153.0375Q545.7125 153.92813 545.7125 155.42813L545.7125 155.50626Q545.7125 156.42813 545.35315 157.1625Q544.9938 157.89688 544.3375 158.31876Q543.6813 158.725 542.8219 158.725Q541.54065 158.725 540.72815 157.83438Q539.9313 156.92813 539.9313 155.44376L539.9313 155.36563ZM541.025 155.50626Q541.025 156.55313 541.5094 157.19376Q542.0094 157.83438 542.8219 157.83438Q543.65 157.83438 544.1344 157.19376Q544.6188 156.5375 544.6188 155.36563Q544.6188 154.33438 544.1188 153.69376Q543.6344 153.0375 542.8063 153.0375Q542.0094 153.0375 541.5094 153.67813Q541.025 154.30313 541.025 155.50626ZM552.5719 155.50626Q552.5719 156.94376 551.91565 157.83438Q551.2594 158.725 550.1188 158.725Q548.9625 158.725 548.3063 157.99063L548.3063 161.0375L547.22815 161.0375L547.22815 152.25626L548.2125 152.25626L548.2594 152.95938Q548.9313 152.14688 550.10315 152.14688Q551.2438 152.14688 551.9 153.00626Q552.5719 153.86563 552.5719 155.39688L552.5719 155.50626ZM551.4938 155.38126Q551.4938 154.30313 551.025 153.69376Q550.5719 153.06876 549.775 153.06876Q548.79065 153.06876 548.3063 153.92813L548.3063 156.95938Q548.79065 157.83438 549.79065 157.83438Q550.5719 157.83438 551.025 157.225Q551.4938 156.6 551.4938 155.38126ZM556.29065 157.00626L557.775 152.25626L558.9313 152.25626L556.3844 159.58438Q555.79065 161.1625 554.5094 161.1625L554.29065 161.14688L553.9 161.06876L553.9 160.19376L554.1813 160.20938Q554.7438 160.20938 555.04065 159.99063Q555.35315 159.77188 555.5563 159.17813L555.79065 158.52188L553.525 152.25626L554.7125 152.25626L556.29065 157.00626ZM566.9469 154.61563Q566.9469 155.86563 566.525 156.80313Q566.10315 157.725 565.3219 158.225Q564.5563 158.725 563.525 158.725Q562.525 158.725 561.7438 158.225Q560.9625 157.725 560.525 156.81876Q560.10315 155.89688 560.0875 154.67813L560.0875 154.06876Q560.0875 152.83438 560.5094 151.89688Q560.9469 150.95938 561.72815 150.45938Q562.5094 149.94376 563.525 149.94376Q564.54065 149.94376 565.3219 150.44376Q566.10315 150.94376 566.525 151.88126Q566.9469 152.81876 566.9469 154.06876L566.9469 154.61563ZM565.8375 154.05313Q565.8375 152.5375 565.22815 151.725Q564.6188 150.9125 563.525 150.9125Q562.4469 150.9125 561.8375 151.725Q561.22815 152.5375 561.2125 153.975L561.2125 154.61563Q561.2125 156.08438 561.8219 156.92813Q562.4469 157.75626 563.525 157.75626Q564.6188 157.75626 565.2125 156.975Q565.8219 156.17813 565.8375 154.69376L565.8375 154.05313ZM573.5875 155.50626Q573.5875 156.95938 572.91565 157.85Q572.2594 158.725 571.1344 158.725Q569.9313 158.725 569.275 157.86563L569.2125 158.6L568.22815 158.6L568.22815 149.6L569.3063 149.6L569.3063 152.95938Q569.9625 152.14688 571.1188 152.14688Q572.275 152.14688 572.9313 153.02188Q573.5875 153.88126 573.5875 155.4125L573.5875 155.50626ZM572.5094 155.38126Q572.5094 154.27188 572.0719 153.67813Q571.65 153.06876 570.85315 153.06876Q569.775 153.06876 569.3063 154.05313L569.3063 156.80313Q569.8063 157.80313 570.85315 157.80313Q571.6344 157.80313 572.0719 157.19376Q572.5094 156.58438 572.5094 155.38126ZM576.3375 152.25626L576.3375 159.33438Q576.3375 161.1625 574.6813 161.1625Q574.3219 161.1625 574.025 161.05313L574.025 160.19376Q574.2125 160.24063 574.5094 160.24063Q574.8688 160.24063 575.0563 160.0375Q575.2594 159.85 575.2594 159.35L575.2594 152.25626L576.3375 152.25626ZM575.15 150.58438Q575.15 150.31876 575.3063 150.13126Q575.4625 149.94376 575.775 149.94376Q576.0875 149.94376 576.2438 150.13126Q576.41565 150.31876 576.41565 150.58438Q576.41565 150.83438 576.2438 151.02188Q576.0875 151.19376 575.775 151.19376Q575.4625 151.19376 575.3063 151.02188Q575.15 150.83438 575.15 150.58438ZM580.85315 158.725Q579.5563 158.725 578.7438 157.88126Q577.9469 157.02188 577.9469 155.6L577.9469 155.4125Q577.9469 154.45938 578.3063 153.725Q578.66565 152.975 579.3063 152.56876Q579.9625 152.14688 580.7125 152.14688Q581.9469 152.14688 582.6344 152.95938Q583.3219 153.77188 583.3219 155.2875L583.3219 155.74063L579.025 155.74063Q579.0563 156.67813 579.5719 157.25626Q580.10315 157.83438 580.91565 157.83438Q581.47815 157.83438 581.8688 157.6Q582.275 157.36563 582.5875 156.975L583.2438 157.49063Q582.4469 158.725 580.85315 158.725ZM580.7125 153.0375Q580.0563 153.0375 579.60315 153.52188Q579.16565 153.99063 579.0719 154.85L582.2438 154.85L582.2438 154.77188Q582.1969 153.94376 581.79065 153.49063Q581.4 153.0375 580.7125 153.0375ZM586.7594 157.83438Q587.3375 157.83438 587.775 157.49063Q588.2125 157.13126 588.2594 156.6L589.29065 156.6Q589.2594 157.14688 588.9 157.64688Q588.5563 158.13126 587.97815 158.42813Q587.41565 158.725 586.7594 158.725Q585.4625 158.725 584.6969 157.86563Q583.9469 156.99063 583.9469 155.49063L583.9469 155.30313Q583.9469 154.38126 584.275 153.6625Q584.6188 152.94376 585.2438 152.55313Q585.8844 152.14688 586.7594 152.14688Q587.8219 152.14688 588.525 152.7875Q589.2438 153.4125 589.29065 154.44376L588.2594 154.44376Q588.2125 153.81876 587.79065 153.42813Q587.3688 153.0375 586.7594 153.0375Q585.9313 153.0375 585.47815 153.63126Q585.025 154.225 585.025 155.35L585.025 155.55313Q585.025 156.64688 585.47815 157.24063Q585.9313 157.83438 586.7594 157.83438ZM591.6969 150.725L591.6969 152.25626L592.8688 152.25626L592.8688 153.1L591.6969 153.1L591.6969 157.02188Q591.6969 157.4125 591.85315 157.6Q592.0094 157.7875 592.3844 157.7875Q592.5719 157.7875 592.9 157.725L592.9 158.6Q592.47815 158.725 592.0719 158.725Q591.35315 158.725 590.97815 158.2875Q590.60315 157.83438 590.60315 157.02188L590.60315 153.1L589.4469 153.1L589.4469 152.25626L590.60315 152.25626L590.60315 150.725L591.6969 150.725Z" fill-rule="nonzero"/></svg>