<?xml version="1.0" encoding="utf-8"?>
<!-- Generator: Adobe Illustrator 19.0.0, SVG Export Plug-In . SVG Version: 6.00 Build 0)  -->
<svg version="1.1" id="Layer_1" xmlns="http://www.w3.org/2000/svg" xmlns:xlink="http://www.w3.org/1999/xlink" x="0px" y="0px"
	 viewBox="0 0 334.7 250" style="enable-background:new 0 0 334.7 250;" xml:space="preserve">
<style type="text/css">
	.st0{fill:#005BFF;}
	.st1{fill:#FFFFFF;}
	.st2{fill:#6BD656;}
	.st3{fill:#D15252;}
	.st4{fill:#4C4C4C;}
</style>
<g id="XMLID_618_">
	<g id="XMLID_1096_">
		<g id="XMLID_1097_">
			<rect id="XMLID_1760_" x="6.4" y="1" class="st0" width="323.2" height="62.2"/>
		</g>
	</g>
	<g id="XMLID_1039_">
		<g id="XMLID_1094_">
			<path id="XMLID_1756_" class="st1" d="M100.2,12.1h4.1v1.2h-2.9v1.5h2.8v1.2h-2.8v1.5h3v1.2h-4.2V12.1z"/>
		</g>
		<g id="XMLID_1092_">
			<path id="XMLID_1753_" class="st1" d="M107.1,18.6h-1.2V14h1.2v0.7h0.2c0.1-0.3,0.3-0.5,0.5-0.6c0.2-0.1,0.5-0.2,0.8-0.2
				c0.2,0,0.4,0,0.6,0.1c0.2,0.1,0.4,0.2,0.5,0.3c0.1,0.1,0.3,0.3,0.4,0.6c0.1,0.2,0.1,0.5,0.1,0.8v2.9h-1.2V16
				c0-0.3-0.1-0.6-0.2-0.8c-0.2-0.2-0.4-0.3-0.7-0.3c-0.3,0-0.6,0.1-0.8,0.4c-0.2,0.2-0.3,0.5-0.3,0.9V18.6z"/>
		</g>
		<g id="XMLID_1090_">
			<path id="XMLID_1750_" class="st1" d="M111.3,14h1.3l1.1,4.1h0.2l1.1-4.1h1.3l-1.3,4.6h-2.2L111.3,14z"/>
		</g>
		<g id="XMLID_1087_">
			<path id="XMLID_1746_" class="st1" d="M117.4,17.5h1.6v-2.4h-1.5V14h2.6v3.5h1.3v1.1h-4.1V17.5z M120.5,12.6c0,0.1,0,0.2-0.1,0.4
				c0,0.1-0.1,0.2-0.2,0.3c-0.1,0.1-0.2,0.1-0.3,0.2c-0.1,0-0.2,0.1-0.3,0.1c-0.1,0-0.2,0-0.3-0.1c-0.1,0-0.2-0.1-0.3-0.2
				c-0.1-0.1-0.1-0.2-0.2-0.3c0-0.1-0.1-0.2-0.1-0.4c0-0.1,0-0.2,0.1-0.4c0-0.1,0.1-0.2,0.2-0.3c0.1-0.1,0.2-0.1,0.3-0.2
				c0.1,0,0.2-0.1,0.3-0.1c0.1,0,0.2,0,0.3,0.1c0.1,0,0.2,0.1,0.3,0.2c0.1,0.1,0.1,0.2,0.2,0.3C120.5,12.4,120.5,12.5,120.5,12.6z"
				/>
		</g>
		<g id="XMLID_1085_">
			<path id="XMLID_1743_" class="st1" d="M122.8,14h2v0.7h0.2c0.1-0.3,0.2-0.5,0.4-0.6c0.2-0.1,0.5-0.2,0.8-0.2
				c0.5,0,0.8,0.1,1.1,0.4c0.3,0.3,0.4,0.7,0.4,1.3v0.2l-1.2,0.1v-0.1c0-0.3-0.1-0.5-0.2-0.6c-0.1-0.2-0.3-0.2-0.6-0.2
				c-0.3,0-0.5,0.1-0.6,0.3c-0.1,0.2-0.2,0.4-0.2,0.8v1.5h1.1v1.1h-3.2v-1.1h1v-2.4h-0.8V14z"/>
		</g>
		<g id="XMLID_1082_">
			<path id="XMLID_1739_" class="st1" d="M133.3,16.3c0,0.4-0.1,0.7-0.2,1c-0.1,0.3-0.3,0.5-0.5,0.7c-0.2,0.2-0.5,0.4-0.8,0.5
				c-0.3,0.1-0.6,0.2-0.9,0.2c-0.3,0-0.6-0.1-0.9-0.2c-0.3-0.1-0.5-0.3-0.8-0.5c-0.2-0.2-0.4-0.5-0.5-0.7c-0.1-0.3-0.2-0.6-0.2-1
				v-0.1c0-0.4,0.1-0.7,0.2-1c0.1-0.3,0.3-0.5,0.5-0.8c0.2-0.2,0.5-0.4,0.8-0.5c0.3-0.1,0.6-0.2,0.9-0.2c0.3,0,0.6,0.1,0.9,0.2
				c0.3,0.1,0.5,0.3,0.8,0.5c0.2,0.2,0.4,0.5,0.5,0.8c0.1,0.3,0.2,0.6,0.2,1V16.3z M130.9,17.6c0.2,0,0.3,0,0.5-0.1
				c0.1-0.1,0.3-0.1,0.4-0.2c0.1-0.1,0.2-0.2,0.3-0.4s0.1-0.3,0.1-0.5v-0.2c0-0.2,0-0.4-0.1-0.5c-0.1-0.2-0.2-0.3-0.3-0.4
				c-0.1-0.1-0.2-0.2-0.4-0.2c-0.1-0.1-0.3-0.1-0.5-0.1c-0.2,0-0.3,0-0.5,0.1c-0.1,0.1-0.3,0.1-0.4,0.2c-0.1,0.1-0.2,0.2-0.3,0.4
				c-0.1,0.2-0.1,0.3-0.1,0.5v0.2c0,0.2,0,0.4,0.1,0.5c0.1,0.2,0.2,0.3,0.3,0.4c0.1,0.1,0.2,0.2,0.4,0.2
				C130.6,17.6,130.8,17.6,130.9,17.6z"/>
		</g>
		<g id="XMLID_1080_">
			<path id="XMLID_1736_" class="st1" d="M135.7,18.6h-1.2V14h1.2v0.7h0.2c0.1-0.3,0.3-0.5,0.5-0.6c0.2-0.1,0.5-0.2,0.8-0.2
				c0.2,0,0.4,0,0.6,0.1c0.2,0.1,0.4,0.2,0.5,0.3s0.3,0.3,0.4,0.6c0.1,0.2,0.1,0.5,0.1,0.8v2.9h-1.2V16c0-0.3-0.1-0.6-0.2-0.8
				c-0.2-0.2-0.4-0.3-0.7-0.3c-0.3,0-0.6,0.1-0.8,0.4c-0.2,0.2-0.3,0.5-0.3,0.9V18.6z"/>
		</g>
		<g id="XMLID_1078_">
			<path id="XMLID_1733_" class="st1" d="M144.9,18.6h-1.2v-3.3c0-0.1,0-0.2-0.1-0.3c-0.1-0.1-0.2-0.1-0.3-0.1c-0.1,0-0.2,0-0.3,0.1
				c-0.1,0.1-0.1,0.2-0.1,0.3v3.2h-1.2v-3.3c0-0.1,0-0.2-0.1-0.3c-0.1-0.1-0.2-0.1-0.3-0.1c-0.1,0-0.2,0-0.3,0.1
				c-0.1,0.1-0.1,0.2-0.1,0.3v3.2h-1.2V14h1.2v0.4h0.2c0-0.2,0.1-0.3,0.3-0.4c0.1-0.1,0.3-0.2,0.5-0.2c0.2,0,0.4,0.1,0.5,0.2
				c0.1,0.1,0.2,0.2,0.3,0.4h0.2c0.1-0.2,0.2-0.3,0.3-0.4c0.2-0.1,0.4-0.2,0.6-0.2c0.3,0,0.6,0.1,0.7,0.3c0.2,0.2,0.3,0.5,0.3,0.9
				V18.6z"/>
		</g>
		<g id="XMLID_1075_">
			<path id="XMLID_1729_" class="st1" d="M147,16.7c0,0.1,0,0.3,0.1,0.4c0.1,0.1,0.1,0.2,0.2,0.3c0.1,0.1,0.2,0.1,0.4,0.2
				c0.1,0,0.3,0.1,0.4,0.1c0.3,0,0.5-0.1,0.7-0.2c0.2-0.1,0.3-0.2,0.3-0.4l1,0.6c-0.1,0.1-0.1,0.2-0.2,0.4c-0.1,0.1-0.2,0.2-0.4,0.4
				c-0.2,0.1-0.4,0.2-0.6,0.3c-0.2,0.1-0.5,0.1-0.8,0.1c-0.3,0-0.7-0.1-1-0.2s-0.5-0.3-0.7-0.5c-0.2-0.2-0.4-0.5-0.5-0.8
				c-0.1-0.3-0.2-0.7-0.2-1v-0.1c0-0.4,0.1-0.7,0.2-1c0.1-0.3,0.3-0.5,0.5-0.7c0.2-0.2,0.5-0.4,0.7-0.5c0.3-0.1,0.6-0.2,0.9-0.2
				c0.4,0,0.7,0.1,1,0.2c0.3,0.1,0.5,0.3,0.7,0.5c0.2,0.2,0.3,0.5,0.4,0.7s0.1,0.5,0.1,0.8v0.6H147z M148.1,14.9
				c-0.3,0-0.5,0.1-0.7,0.2c-0.2,0.2-0.3,0.3-0.4,0.5h2.2c0-0.2-0.2-0.4-0.4-0.5C148.6,15,148.4,14.9,148.1,14.9z"/>
		</g>
		<g id="XMLID_1073_">
			<path id="XMLID_1726_" class="st1" d="M152.8,18.6h-1.2V14h1.2v0.7h0.2c0.1-0.3,0.3-0.5,0.5-0.6c0.2-0.1,0.5-0.2,0.8-0.2
				c0.2,0,0.4,0,0.6,0.1c0.2,0.1,0.4,0.2,0.5,0.3s0.3,0.3,0.4,0.6c0.1,0.2,0.1,0.5,0.1,0.8v2.9h-1.2V16c0-0.3-0.1-0.6-0.2-0.8
				c-0.2-0.2-0.4-0.3-0.7-0.3c-0.3,0-0.6,0.1-0.8,0.4c-0.2,0.2-0.3,0.5-0.3,0.9V18.6z"/>
		</g>
		<g id="XMLID_1071_">
			<path id="XMLID_1723_" class="st1" d="M157.2,14h1.4v-1.9h1.2V14h1.7v1.1h-1.7v2.1c0,0.2,0.1,0.3,0.3,0.3h1.3v1.1h-2
				c-0.2,0-0.4-0.1-0.5-0.2c-0.1-0.1-0.2-0.3-0.2-0.5v-2.8h-1.4V14z"/>
		</g>
		<g id="XMLID_1069_">
			<path id="XMLID_1720_" class="st1" d="M168.6,14h2v0.7h0.2c0.1-0.3,0.2-0.5,0.4-0.6c0.2-0.1,0.5-0.2,0.8-0.2
				c0.5,0,0.8,0.1,1.1,0.4c0.3,0.3,0.4,0.7,0.4,1.3v0.2l-1.2,0.1v-0.1c0-0.3-0.1-0.5-0.2-0.6c-0.1-0.2-0.3-0.2-0.6-0.2
				c-0.3,0-0.5,0.1-0.6,0.3c-0.1,0.2-0.2,0.4-0.2,0.8v1.5h1.1v1.1h-3.2v-1.1h1v-2.4h-0.8V14z"/>
		</g>
		<g id="XMLID_1066_">
			<path id="XMLID_1716_" class="st1" d="M175.6,16.7c0,0.1,0,0.3,0.1,0.4c0.1,0.1,0.1,0.2,0.2,0.3c0.1,0.1,0.2,0.1,0.4,0.2
				c0.1,0,0.3,0.1,0.4,0.1c0.3,0,0.5-0.1,0.7-0.2c0.2-0.1,0.3-0.2,0.3-0.4l1,0.6c-0.1,0.1-0.1,0.2-0.2,0.4c-0.1,0.1-0.2,0.2-0.4,0.4
				c-0.2,0.1-0.4,0.2-0.6,0.3c-0.2,0.1-0.5,0.1-0.8,0.1c-0.3,0-0.7-0.1-1-0.2s-0.5-0.3-0.7-0.5c-0.2-0.2-0.4-0.5-0.5-0.8
				c-0.1-0.3-0.2-0.7-0.2-1v-0.1c0-0.4,0.1-0.7,0.2-1c0.1-0.3,0.3-0.5,0.5-0.7c0.2-0.2,0.5-0.4,0.7-0.5c0.3-0.1,0.6-0.2,0.9-0.2
				c0.4,0,0.7,0.1,1,0.2c0.3,0.1,0.5,0.3,0.7,0.5c0.2,0.2,0.3,0.5,0.4,0.7s0.1,0.5,0.1,0.8v0.6H175.6z M176.7,14.9
				c-0.3,0-0.5,0.1-0.7,0.2c-0.2,0.2-0.3,0.3-0.4,0.5h2.2c0-0.2-0.2-0.4-0.4-0.5C177.2,15,177,14.9,176.7,14.9z"/>
		</g>
		<g id="XMLID_1063_">
			<path id="XMLID_1712_" class="st1" d="M181.2,20.5H180V14h1.2v0.7h0.2c0.1-0.3,0.3-0.5,0.5-0.6c0.2-0.1,0.5-0.2,0.9-0.2
				c0.3,0,0.5,0.1,0.8,0.2c0.2,0.1,0.5,0.3,0.6,0.5c0.2,0.2,0.3,0.5,0.4,0.7c0.1,0.3,0.2,0.6,0.2,1v0.2c0,0.4-0.1,0.7-0.2,1
				c-0.1,0.3-0.2,0.5-0.4,0.7c-0.2,0.2-0.4,0.4-0.6,0.5c-0.2,0.1-0.5,0.2-0.8,0.2c-0.2,0-0.4,0-0.6-0.1c-0.2,0-0.3-0.1-0.4-0.2
				c-0.1-0.1-0.2-0.2-0.3-0.3c-0.1-0.1-0.1-0.2-0.2-0.3h-0.2V20.5z M182.4,17.6c0.4,0,0.7-0.1,0.9-0.3c0.2-0.2,0.3-0.5,0.3-0.9v-0.1
				c0-0.4-0.1-0.7-0.3-0.9c-0.2-0.2-0.5-0.3-0.9-0.3c-0.4,0-0.7,0.1-0.9,0.4c-0.2,0.2-0.3,0.5-0.3,0.9v0.1c0,0.4,0.1,0.7,0.3,0.9
				C181.7,17.5,182,17.6,182.4,17.6z"/>
		</g>
		<g id="XMLID_1060_">
			<path id="XMLID_1708_" class="st1" d="M190.5,16.3c0,0.4-0.1,0.7-0.2,1c-0.1,0.3-0.3,0.5-0.5,0.7c-0.2,0.2-0.5,0.4-0.8,0.5
				c-0.3,0.1-0.6,0.2-0.9,0.2c-0.3,0-0.6-0.1-0.9-0.2c-0.3-0.1-0.5-0.3-0.8-0.5c-0.2-0.2-0.4-0.5-0.5-0.7c-0.1-0.3-0.2-0.6-0.2-1
				v-0.1c0-0.4,0.1-0.7,0.2-1c0.1-0.3,0.3-0.5,0.5-0.8c0.2-0.2,0.5-0.4,0.8-0.5c0.3-0.1,0.6-0.2,0.9-0.2c0.3,0,0.6,0.1,0.9,0.2
				c0.3,0.1,0.5,0.3,0.8,0.5c0.2,0.2,0.4,0.5,0.5,0.8c0.1,0.3,0.2,0.6,0.2,1V16.3z M188.1,17.6c0.2,0,0.3,0,0.5-0.1
				c0.1-0.1,0.3-0.1,0.4-0.2c0.1-0.1,0.2-0.2,0.3-0.4c0.1-0.2,0.1-0.3,0.1-0.5v-0.2c0-0.2,0-0.4-0.1-0.5c-0.1-0.2-0.2-0.3-0.3-0.4
				c-0.1-0.1-0.2-0.2-0.4-0.2c-0.1-0.1-0.3-0.1-0.5-0.1s-0.3,0-0.5,0.1c-0.1,0.1-0.3,0.1-0.4,0.2c-0.1,0.1-0.2,0.2-0.3,0.4
				c-0.1,0.2-0.1,0.3-0.1,0.5v0.2c0,0.2,0,0.4,0.1,0.5s0.2,0.3,0.3,0.4c0.1,0.1,0.2,0.2,0.4,0.2C187.8,17.6,187.9,17.6,188.1,17.6z"
				/>
		</g>
		<g id="XMLID_1058_">
			<path id="XMLID_1705_" class="st1" d="M193.2,15.3c0,0.1,0.1,0.3,0.2,0.3c0.2,0.1,0.4,0.1,0.8,0.2c0.5,0,0.9,0.2,1.2,0.4
				c0.3,0.2,0.4,0.6,0.4,1v0.1c0,0.5-0.2,0.8-0.5,1.1c-0.3,0.3-0.8,0.4-1.4,0.4c-0.4,0-0.7,0-0.9-0.1c-0.3-0.1-0.5-0.2-0.6-0.4
				c-0.2-0.1-0.3-0.3-0.4-0.5s-0.2-0.3-0.2-0.5l1.1-0.4c0,0.2,0.2,0.4,0.3,0.5c0.2,0.1,0.4,0.2,0.7,0.2c0.3,0,0.5,0,0.6-0.1
				c0.1-0.1,0.2-0.2,0.2-0.3c0-0.1,0-0.1,0-0.2s-0.1-0.1-0.2-0.1c-0.1,0-0.2-0.1-0.3-0.1c-0.1,0-0.3-0.1-0.5-0.1
				c-0.5,0-0.9-0.2-1.2-0.4c-0.3-0.2-0.5-0.6-0.5-1v-0.1c0-0.2,0.1-0.4,0.1-0.6c0.1-0.2,0.2-0.3,0.4-0.4c0.2-0.1,0.3-0.2,0.6-0.3
				c0.2-0.1,0.4-0.1,0.7-0.1c0.3,0,0.5,0,0.8,0.1c0.2,0.1,0.4,0.2,0.5,0.3c0.1,0.1,0.3,0.2,0.4,0.4c0.1,0.1,0.2,0.3,0.2,0.4
				l-1.1,0.4c-0.1-0.2-0.2-0.3-0.3-0.4c-0.1-0.1-0.3-0.1-0.5-0.1c-0.2,0-0.3,0-0.4,0.1C193.2,15.1,193.2,15.2,193.2,15.3z"/>
		</g>
		<g id="XMLID_1055_">
			<path id="XMLID_1701_" class="st1" d="M197.5,17.5h1.6v-2.4h-1.5V14h2.6v3.5h1.3v1.1h-4.1V17.5z M200.5,12.6c0,0.1,0,0.2-0.1,0.4
				c0,0.1-0.1,0.2-0.2,0.3c-0.1,0.1-0.2,0.1-0.3,0.2c-0.1,0-0.2,0.1-0.3,0.1c-0.1,0-0.2,0-0.3-0.1c-0.1,0-0.2-0.1-0.3-0.2
				c-0.1-0.1-0.1-0.2-0.2-0.3c0-0.1-0.1-0.2-0.1-0.4c0-0.1,0-0.2,0.1-0.4c0-0.1,0.1-0.2,0.2-0.3c0.1-0.1,0.2-0.1,0.3-0.2
				c0.1,0,0.2-0.1,0.3-0.1c0.1,0,0.2,0,0.3,0.1c0.1,0,0.2,0.1,0.3,0.2c0.1,0.1,0.1,0.2,0.2,0.3C200.5,12.4,200.5,12.5,200.5,12.6z"
				/>
		</g>
		<g id="XMLID_1053_">
			<path id="XMLID_1698_" class="st1" d="M203,14h1.4v-1.9h1.2V14h1.7v1.1h-1.7v2.1c0,0.2,0.1,0.3,0.3,0.3h1.3v1.1h-2
				c-0.2,0-0.4-0.1-0.5-0.2c-0.1-0.1-0.2-0.3-0.2-0.5v-2.8H203V14z"/>
		</g>
		<g id="XMLID_1050_">
			<path id="XMLID_1694_" class="st1" d="M213.4,16.3c0,0.4-0.1,0.7-0.2,1c-0.1,0.3-0.3,0.5-0.5,0.7c-0.2,0.2-0.5,0.4-0.8,0.5
				c-0.3,0.1-0.6,0.2-0.9,0.2c-0.3,0-0.6-0.1-0.9-0.2c-0.3-0.1-0.5-0.3-0.8-0.5c-0.2-0.2-0.4-0.5-0.5-0.7c-0.1-0.3-0.2-0.6-0.2-1
				v-0.1c0-0.4,0.1-0.7,0.2-1c0.1-0.3,0.3-0.5,0.5-0.8c0.2-0.2,0.5-0.4,0.8-0.5s0.6-0.2,0.9-0.2c0.3,0,0.6,0.1,0.9,0.2
				c0.3,0.1,0.5,0.3,0.8,0.5c0.2,0.2,0.4,0.5,0.5,0.8c0.1,0.3,0.2,0.6,0.2,1V16.3z M211,17.6c0.2,0,0.3,0,0.5-0.1
				c0.1-0.1,0.3-0.1,0.4-0.2c0.1-0.1,0.2-0.2,0.3-0.4c0.1-0.2,0.1-0.3,0.1-0.5v-0.2c0-0.2,0-0.4-0.1-0.5c-0.1-0.2-0.2-0.3-0.3-0.4
				c-0.1-0.1-0.2-0.2-0.4-0.2c-0.1-0.1-0.3-0.1-0.5-0.1s-0.3,0-0.5,0.1c-0.1,0.1-0.3,0.1-0.4,0.2c-0.1,0.1-0.2,0.2-0.3,0.4
				c-0.1,0.2-0.1,0.3-0.1,0.5v0.2c0,0.2,0,0.4,0.1,0.5c0.1,0.2,0.2,0.3,0.3,0.4c0.1,0.1,0.2,0.2,0.4,0.2
				C210.6,17.6,210.8,17.6,211,17.6z"/>
		</g>
		<g id="XMLID_1048_">
			<path id="XMLID_1691_" class="st1" d="M214.3,14h2v0.7h0.2c0.1-0.3,0.2-0.5,0.4-0.6c0.2-0.1,0.5-0.2,0.8-0.2
				c0.5,0,0.8,0.1,1.1,0.4c0.3,0.3,0.4,0.7,0.4,1.3v0.2l-1.2,0.1v-0.1c0-0.3-0.1-0.5-0.2-0.6c-0.1-0.2-0.3-0.2-0.6-0.2
				c-0.3,0-0.5,0.1-0.6,0.3c-0.1,0.2-0.2,0.4-0.2,0.8v1.5h1.1v1.1h-3.2v-1.1h1v-2.4h-0.8V14z"/>
		</g>
		<g id="XMLID_1045_">
			<path id="XMLID_1687_" class="st1" d="M220.3,17.5h1.6v-2.4h-1.5V14h2.6v3.5h1.3v1.1h-4.1V17.5z M223.4,12.6c0,0.1,0,0.2-0.1,0.4
				c0,0.1-0.1,0.2-0.2,0.3c-0.1,0.1-0.2,0.1-0.3,0.2c-0.1,0-0.2,0.1-0.3,0.1c-0.1,0-0.2,0-0.3-0.1c-0.1,0-0.2-0.1-0.3-0.2
				c-0.1-0.1-0.1-0.2-0.2-0.3c0-0.1-0.1-0.2-0.1-0.4c0-0.1,0-0.2,0.1-0.4c0-0.1,0.1-0.2,0.2-0.3c0.1-0.1,0.2-0.1,0.3-0.2
				c0.1,0,0.2-0.1,0.3-0.1c0.1,0,0.2,0,0.3,0.1c0.1,0,0.2,0.1,0.3,0.2c0.1,0.1,0.1,0.2,0.2,0.3C223.4,12.4,223.4,12.5,223.4,12.6z"
				/>
		</g>
		<g id="XMLID_1042_">
			<path id="XMLID_1683_" class="st1" d="M227,16.7c0,0.1,0,0.3,0.1,0.4c0.1,0.1,0.1,0.2,0.2,0.3c0.1,0.1,0.2,0.1,0.4,0.2
				c0.1,0,0.3,0.1,0.4,0.1c0.3,0,0.5-0.1,0.7-0.2c0.2-0.1,0.3-0.2,0.3-0.4l1,0.6c-0.1,0.1-0.1,0.2-0.2,0.4c-0.1,0.1-0.2,0.2-0.4,0.4
				c-0.2,0.1-0.4,0.2-0.6,0.3c-0.2,0.1-0.5,0.1-0.8,0.1c-0.3,0-0.7-0.1-1-0.2s-0.5-0.3-0.7-0.5c-0.2-0.2-0.4-0.5-0.5-0.8
				c-0.1-0.3-0.2-0.7-0.2-1v-0.1c0-0.4,0.1-0.7,0.2-1c0.1-0.3,0.3-0.5,0.5-0.7c0.2-0.2,0.5-0.4,0.7-0.5c0.3-0.1,0.6-0.2,0.9-0.2
				c0.4,0,0.7,0.1,1,0.2c0.3,0.1,0.5,0.3,0.7,0.5c0.2,0.2,0.3,0.5,0.4,0.7s0.1,0.5,0.1,0.8v0.6H227z M228.1,14.9
				c-0.3,0-0.5,0.1-0.7,0.2c-0.2,0.2-0.3,0.3-0.4,0.5h2.2c0-0.2-0.2-0.4-0.4-0.5C228.7,15,228.4,14.9,228.1,14.9z"/>
		</g>
		<g id="XMLID_1040_">
			<path id="XMLID_1680_" class="st1" d="M233.2,15.3c0,0.1,0.1,0.3,0.2,0.3c0.2,0.1,0.4,0.1,0.8,0.2c0.5,0,0.9,0.2,1.2,0.4
				c0.3,0.2,0.4,0.6,0.4,1v0.1c0,0.5-0.2,0.8-0.5,1.1c-0.3,0.3-0.8,0.4-1.4,0.4c-0.4,0-0.7,0-0.9-0.1c-0.3-0.1-0.5-0.2-0.6-0.4
				c-0.2-0.1-0.3-0.3-0.4-0.5s-0.2-0.3-0.2-0.5l1.1-0.4c0,0.2,0.2,0.4,0.3,0.5c0.2,0.1,0.4,0.2,0.7,0.2c0.3,0,0.5,0,0.6-0.1
				c0.1-0.1,0.2-0.2,0.2-0.3c0-0.1,0-0.1,0-0.2s-0.1-0.1-0.2-0.1c-0.1,0-0.2-0.1-0.3-0.1c-0.1,0-0.3-0.1-0.5-0.1
				c-0.5,0-0.9-0.2-1.2-0.4c-0.3-0.2-0.5-0.6-0.5-1v-0.1c0-0.2,0.1-0.4,0.1-0.6c0.1-0.2,0.2-0.3,0.4-0.4c0.2-0.1,0.3-0.2,0.6-0.3
				c0.2-0.1,0.4-0.1,0.7-0.1c0.3,0,0.5,0,0.8,0.1c0.2,0.1,0.4,0.2,0.5,0.3c0.1,0.1,0.3,0.2,0.4,0.4c0.1,0.1,0.2,0.3,0.2,0.4
				l-1.1,0.4c-0.1-0.2-0.2-0.3-0.3-0.4c-0.1-0.1-0.3-0.1-0.5-0.1c-0.2,0-0.3,0-0.4,0.1C233.2,15.1,233.2,15.2,233.2,15.3z"/>
		</g>
	</g>
	<g id="XMLID_1037_">
		<g id="XMLID_1038_">
			<rect id="XMLID_1677_" x="55.7" y="86.1" class="st2" width="224.7" height="68.5"/>
		</g>
	</g>
	<g id="XMLID_1035_">
		<g id="XMLID_1036_">
			<rect id="XMLID_1674_" x="80.7" y="180.5" class="st2" width="174.8" height="68.5"/>
		</g>
	</g>
	<g id="XMLID_992_">
		<g id="XMLID_1033_">
			<g id="XMLID_1034_">
				<rect id="XMLID_1671_" x="120.8" y="32.7" class="st2" width="94.5" height="18.2"/>
			</g>
		</g>
		<g id="XMLID_993_">
			<g id="XMLID_1031_">
				<path id="XMLID_1667_" class="st1" d="M136,40.2h0.9V39h0.8v1.3h1.1V41h-1.1v1.4c0,0.1,0.1,0.2,0.2,0.2h0.8v0.7h-1.3
					c-0.1,0-0.3,0-0.3-0.1c-0.1-0.1-0.1-0.2-0.1-0.3V41H136V40.2z"/>
			</g>
			<g id="XMLID_1028_">
				<path id="XMLID_1663_" class="st1" d="M140.6,42c0,0.1,0,0.2,0.1,0.3c0,0.1,0.1,0.1,0.2,0.2c0.1,0.1,0.1,0.1,0.2,0.1
					c0.1,0,0.2,0,0.3,0c0.2,0,0.3,0,0.4-0.1c0.1-0.1,0.2-0.2,0.2-0.2l0.7,0.4c0,0.1-0.1,0.2-0.2,0.2s-0.2,0.2-0.3,0.2
					s-0.2,0.1-0.4,0.2s-0.3,0.1-0.5,0.1c-0.2,0-0.4,0-0.6-0.1c-0.2-0.1-0.4-0.2-0.5-0.3c-0.1-0.1-0.2-0.3-0.3-0.5
					c-0.1-0.2-0.1-0.4-0.1-0.7v0c0-0.2,0-0.5,0.1-0.6c0.1-0.2,0.2-0.4,0.3-0.5c0.1-0.1,0.3-0.2,0.5-0.3c0.2-0.1,0.4-0.1,0.6-0.1
					c0.3,0,0.5,0,0.7,0.1c0.2,0.1,0.3,0.2,0.5,0.4c0.1,0.1,0.2,0.3,0.3,0.5c0.1,0.2,0.1,0.3,0.1,0.5V42H140.6z M141.4,40.9
					c-0.2,0-0.4,0.1-0.5,0.2s-0.2,0.2-0.2,0.4h1.5c0-0.1-0.1-0.3-0.2-0.4C141.7,40.9,141.6,40.9,141.4,40.9z"/>
			</g>
			<g id="XMLID_1026_">
				<path id="XMLID_1660_" class="st1" d="M143.6,40.2h1.3v0.4h0.1c0.1-0.2,0.2-0.3,0.3-0.4c0.1-0.1,0.3-0.1,0.5-0.1
					c0.3,0,0.6,0.1,0.7,0.3c0.2,0.2,0.3,0.5,0.3,0.9v0.1l-0.8,0.1v-0.1c0-0.2,0-0.3-0.1-0.4c-0.1-0.1-0.2-0.2-0.4-0.2
					s-0.3,0.1-0.4,0.2c-0.1,0.1-0.1,0.3-0.1,0.5v1h0.7v0.7h-2.1v-0.7h0.6V41h-0.6V40.2z"/>
			</g>
			<g id="XMLID_1024_">
				<path id="XMLID_1657_" class="st1" d="M147.4,40.2h1.3v0.4h0.1c0.1-0.2,0.2-0.3,0.3-0.4c0.1-0.1,0.3-0.1,0.5-0.1
					c0.3,0,0.6,0.1,0.7,0.3c0.2,0.2,0.3,0.5,0.3,0.9v0.1l-0.8,0.1v-0.1c0-0.2,0-0.3-0.1-0.4c-0.1-0.1-0.2-0.2-0.4-0.2
					s-0.3,0.1-0.4,0.2c-0.1,0.1-0.1,0.3-0.1,0.5v1h0.7v0.7h-2.1v-0.7h0.6V41h-0.6V40.2z"/>
			</g>
			<g id="XMLID_1021_">
				<path id="XMLID_1653_" class="st1" d="M153.4,42.9c-0.1,0.2-0.2,0.3-0.3,0.4c-0.1,0.1-0.3,0.1-0.5,0.1c-0.2,0-0.4,0-0.5-0.1
					c-0.2-0.1-0.3-0.2-0.4-0.3c-0.1-0.1-0.2-0.3-0.3-0.5c-0.1-0.2-0.1-0.4-0.1-0.7v-0.1c0-0.2,0-0.5,0.1-0.7
					c0.1-0.2,0.2-0.4,0.3-0.5c0.1-0.1,0.3-0.2,0.4-0.3c0.2-0.1,0.3-0.1,0.5-0.1c0.2,0,0.4,0,0.5,0.1c0.1,0.1,0.2,0.2,0.3,0.3h0.1
					v-0.4h0.8v2.2c0,0.1,0.1,0.2,0.2,0.2h0.1v0.7h-0.5c-0.1,0-0.3,0-0.3-0.1c-0.1-0.1-0.1-0.2-0.1-0.3H153.4z M152.7,42.7
					c0.2,0,0.4-0.1,0.5-0.2s0.2-0.4,0.2-0.6v-0.1c0-0.3-0.1-0.5-0.2-0.6c-0.1-0.2-0.3-0.2-0.5-0.2c-0.2,0-0.4,0.1-0.5,0.2
					c-0.1,0.2-0.2,0.4-0.2,0.6v0.1c0,0.3,0.1,0.5,0.2,0.6C152.2,42.6,152.4,42.7,152.7,42.7z"/>
			</g>
			<g id="XMLID_1019_">
				<path id="XMLID_1650_" class="st1" d="M155.1,40.2h0.9v-0.6c0-0.2,0.1-0.3,0.2-0.5c0.1-0.1,0.3-0.2,0.4-0.2h1.3v0.7H157
					c-0.1,0-0.2,0.1-0.2,0.2v0.3h1.2V41h-1.2v2.3H156V41h-0.9V40.2z"/>
			</g>
			<g id="XMLID_1016_">
				<path id="XMLID_1646_" class="st1" d="M162,41.8c0,0.3,0,0.5-0.1,0.7c-0.1,0.2-0.2,0.4-0.4,0.5c-0.1,0.1-0.3,0.2-0.5,0.3
					c-0.2,0.1-0.4,0.1-0.6,0.1c-0.2,0-0.4,0-0.6-0.1c-0.2-0.1-0.4-0.2-0.5-0.3s-0.3-0.3-0.4-0.5c-0.1-0.2-0.1-0.4-0.1-0.7v-0.1
					c0-0.3,0-0.5,0.1-0.7s0.2-0.4,0.4-0.5c0.1-0.1,0.3-0.2,0.5-0.3c0.2-0.1,0.4-0.1,0.6-0.1c0.2,0,0.4,0,0.6,0.1
					c0.2,0.1,0.4,0.2,0.5,0.3c0.1,0.1,0.3,0.3,0.4,0.5S162,41.5,162,41.8L162,41.8z M160.4,42.7c0.1,0,0.2,0,0.3-0.1
					c0.1,0,0.2-0.1,0.3-0.2c0.1-0.1,0.1-0.2,0.2-0.3c0-0.1,0.1-0.2,0.1-0.3v-0.1c0-0.1,0-0.2-0.1-0.3c0-0.1-0.1-0.2-0.2-0.3
					c-0.1-0.1-0.2-0.1-0.3-0.2c-0.1,0-0.2-0.1-0.3-0.1c-0.1,0-0.2,0-0.3,0.1c-0.1,0-0.2,0.1-0.3,0.2c-0.1,0.1-0.1,0.2-0.2,0.3
					c0,0.1-0.1,0.2-0.1,0.3v0.1c0,0.1,0,0.2,0.1,0.3c0,0.1,0.1,0.2,0.2,0.3c0.1,0.1,0.2,0.1,0.3,0.2
					C160.2,42.6,160.3,42.7,160.4,42.7z"/>
			</g>
			<g id="XMLID_1014_">
				<path id="XMLID_1643_" class="st1" d="M162.6,40.2h1.3v0.4h0.1c0.1-0.2,0.2-0.3,0.3-0.4c0.1-0.1,0.3-0.1,0.5-0.1
					c0.3,0,0.6,0.1,0.7,0.3c0.2,0.2,0.3,0.5,0.3,0.9v0.1l-0.8,0.1v-0.1c0-0.2,0-0.3-0.1-0.4c-0.1-0.1-0.2-0.2-0.4-0.2
					s-0.3,0.1-0.4,0.2c-0.1,0.1-0.1,0.3-0.1,0.5v1h0.7v0.7h-2.1v-0.7h0.6V41h-0.6V40.2z"/>
			</g>
			<g id="XMLID_1012_">
				<path id="XMLID_1640_" class="st1" d="M169.7,43.3h-0.8v-2.2c0-0.1,0-0.2-0.1-0.2c0,0-0.1-0.1-0.2-0.1c-0.1,0-0.1,0-0.2,0.1
					c0,0-0.1,0.1-0.1,0.2v2.1h-0.8v-2.2c0-0.1,0-0.2-0.1-0.2c0,0-0.1-0.1-0.2-0.1c-0.1,0-0.1,0-0.2,0.1s-0.1,0.1-0.1,0.2v2.1h-0.8
					v-3.1h0.8v0.3h0.1c0-0.1,0.1-0.2,0.2-0.3c0.1-0.1,0.2-0.1,0.4-0.1c0.1,0,0.3,0,0.3,0.1c0.1,0.1,0.2,0.2,0.2,0.3h0.1
					c0-0.1,0.1-0.2,0.2-0.3c0.1-0.1,0.2-0.1,0.4-0.1c0.2,0,0.4,0.1,0.5,0.2c0.1,0.1,0.2,0.3,0.2,0.6V43.3z"/>
			</g>
			<g id="XMLID_1010_">
				<path id="XMLID_1637_" class="st1" d="M170.9,41.3h1.9V42h-1.9V41.3z"/>
			</g>
			<g id="XMLID_1007_">
				<path id="XMLID_1633_" class="st1" d="M174.9,42c0,0.1,0,0.2,0.1,0.3c0,0.1,0.1,0.1,0.2,0.2c0.1,0.1,0.1,0.1,0.2,0.1
					c0.1,0,0.2,0,0.3,0c0.2,0,0.3,0,0.4-0.1c0.1-0.1,0.2-0.2,0.2-0.2l0.7,0.4c0,0.1-0.1,0.2-0.2,0.2s-0.2,0.2-0.3,0.2
					s-0.2,0.1-0.4,0.2s-0.3,0.1-0.5,0.1c-0.2,0-0.4,0-0.6-0.1c-0.2-0.1-0.4-0.2-0.5-0.3c-0.1-0.1-0.2-0.3-0.3-0.5
					c-0.1-0.2-0.1-0.4-0.1-0.7v0c0-0.2,0-0.5,0.1-0.6c0.1-0.2,0.2-0.4,0.3-0.5c0.1-0.1,0.3-0.2,0.5-0.3c0.2-0.1,0.4-0.1,0.6-0.1
					c0.3,0,0.5,0,0.7,0.1c0.2,0.1,0.3,0.2,0.5,0.4c0.1,0.1,0.2,0.3,0.3,0.5c0.1,0.2,0.1,0.3,0.1,0.5V42H174.9z M175.7,40.9
					c-0.2,0-0.4,0.1-0.5,0.2s-0.2,0.2-0.2,0.4h1.5c0-0.1-0.1-0.3-0.2-0.4C176,40.9,175.9,40.9,175.7,40.9z"/>
			</g>
			<g id="XMLID_1005_">
				<path id="XMLID_1630_" class="st1" d="M178.8,43.3H178v-3.1h0.8v0.5h0.1c0.1-0.2,0.2-0.3,0.3-0.4c0.2-0.1,0.3-0.1,0.6-0.1
					c0.1,0,0.3,0,0.4,0.1c0.1,0,0.2,0.1,0.3,0.2c0.1,0.1,0.2,0.2,0.2,0.4c0.1,0.2,0.1,0.3,0.1,0.5v2h-0.8v-1.8
					c0-0.2-0.1-0.4-0.2-0.5c-0.1-0.1-0.3-0.2-0.5-0.2c-0.2,0-0.4,0.1-0.5,0.2c-0.1,0.2-0.2,0.4-0.2,0.6V43.3z"/>
			</g>
			<g id="XMLID_1003_">
				<path id="XMLID_1627_" class="st1" d="M181.6,40.2h0.8l0.7,2.7h0.1l0.7-2.7h0.8l-0.9,3.1h-1.5L181.6,40.2z"/>
			</g>
			<g id="XMLID_1001_">
				<path id="XMLID_1624_" class="st1" d="M186.1,41.3h1.9V42h-1.9V41.3z"/>
			</g>
			<g id="XMLID_999_">
				<path id="XMLID_1621_" class="st1" d="M190.5,41.1c0,0.1,0.1,0.2,0.2,0.2c0.1,0,0.3,0.1,0.6,0.1c0.3,0,0.6,0.1,0.8,0.3
					c0.2,0.2,0.3,0.4,0.3,0.7v0c0,0.3-0.1,0.6-0.3,0.7c-0.2,0.2-0.5,0.3-0.9,0.3c-0.2,0-0.4,0-0.6-0.1c-0.2-0.1-0.3-0.1-0.4-0.2
					c-0.1-0.1-0.2-0.2-0.3-0.3c-0.1-0.1-0.1-0.2-0.1-0.3l0.7-0.2c0,0.1,0.1,0.2,0.2,0.3c0.1,0.1,0.3,0.1,0.5,0.1
					c0.2,0,0.3,0,0.4-0.1c0.1-0.1,0.1-0.1,0.1-0.2c0,0,0-0.1,0-0.1c0,0-0.1-0.1-0.1-0.1c0,0-0.1-0.1-0.2-0.1c-0.1,0-0.2,0-0.3,0
					c-0.3,0-0.6-0.1-0.8-0.3c-0.2-0.2-0.3-0.4-0.3-0.7v0c0-0.2,0-0.3,0.1-0.4c0.1-0.1,0.2-0.2,0.3-0.3c0.1-0.1,0.2-0.1,0.4-0.2
					c0.1,0,0.3-0.1,0.4-0.1c0.2,0,0.4,0,0.5,0.1c0.1,0,0.3,0.1,0.4,0.2c0.1,0.1,0.2,0.2,0.2,0.3c0.1,0.1,0.1,0.2,0.1,0.3l-0.7,0.3
					c0-0.1-0.1-0.2-0.2-0.3c-0.1-0.1-0.2-0.1-0.4-0.1c-0.1,0-0.2,0-0.3,0.1C190.5,41,190.5,41,190.5,41.1z"/>
			</g>
			<g id="XMLID_997_">
				<path id="XMLID_1618_" class="st1" d="M193.2,40.2h0.9V39h0.8v1.3h1.1V41h-1.1v1.4c0,0.1,0.1,0.2,0.2,0.2h0.8v0.7h-1.3
					c-0.1,0-0.3,0-0.3-0.1c-0.1-0.1-0.1-0.2-0.1-0.3V41h-0.9V40.2z"/>
			</g>
			<g id="XMLID_994_">
				<path id="XMLID_1614_" class="st1" d="M199.3,42.9h-0.1c0,0.1-0.1,0.1-0.1,0.2c0,0.1-0.1,0.1-0.2,0.2c-0.1,0-0.2,0.1-0.3,0.1
					c-0.1,0-0.2,0-0.4,0c-0.2,0-0.4,0-0.5-0.1c-0.2-0.1-0.3-0.2-0.4-0.3c-0.1-0.1-0.2-0.3-0.3-0.5s-0.1-0.4-0.1-0.7v-0.1
					c0-0.2,0-0.5,0.1-0.7s0.2-0.4,0.3-0.5c0.1-0.1,0.3-0.2,0.4-0.3c0.2-0.1,0.3-0.1,0.5-0.1c0.2,0,0.4,0,0.6,0.1
					c0.1,0.1,0.3,0.2,0.3,0.4h0.1v-0.4h0.8v3.8c0,0.1,0,0.3-0.1,0.3c-0.1,0.1-0.2,0.1-0.3,0.1h-2.1v-0.7h1.6c0.1,0,0.2-0.1,0.2-0.2
					V42.9z M198.5,42.7c0.2,0,0.4-0.1,0.6-0.2c0.2-0.2,0.2-0.4,0.2-0.6v-0.1c0-0.3-0.1-0.5-0.2-0.6c-0.2-0.2-0.3-0.2-0.6-0.2
					c-0.2,0-0.4,0.1-0.6,0.2c-0.2,0.2-0.2,0.4-0.2,0.6v0.1c0,0.3,0.1,0.5,0.2,0.6S198.2,42.7,198.5,42.7z"/>
			</g>
		</g>
	</g>
	<g id="XMLID_900_">
		<g id="XMLID_948_">
			<g id="XMLID_990_">
				<g id="XMLID_991_">
					<rect id="XMLID_1610_" x="17.3" y="32.4" class="st2" width="94.5" height="18.2"/>
				</g>
			</g>
			<g id="XMLID_949_">
				<g id="XMLID_988_">
					<path id="XMLID_1606_" class="st1" d="M32.4,40.5h0.9v-1.3h0.8v1.3h1.1v0.7h-1.1v1.4c0,0.1,0.1,0.2,0.2,0.2h0.8v0.7h-1.3
						c-0.1,0-0.3,0-0.3-0.1s-0.1-0.2-0.1-0.3v-1.9h-0.9V40.5z"/>
				</g>
				<g id="XMLID_985_">
					<path id="XMLID_1602_" class="st1" d="M37,42.3c0,0.1,0,0.2,0.1,0.3c0,0.1,0.1,0.1,0.2,0.2c0.1,0.1,0.1,0.1,0.2,0.1
						c0.1,0,0.2,0,0.3,0c0.2,0,0.3,0,0.4-0.1c0.1-0.1,0.2-0.2,0.2-0.2l0.7,0.4c0,0.1-0.1,0.2-0.2,0.2s-0.2,0.2-0.3,0.2
						s-0.2,0.1-0.4,0.2c-0.2,0-0.3,0.1-0.5,0.1c-0.2,0-0.4,0-0.6-0.1c-0.2-0.1-0.4-0.2-0.5-0.3c-0.1-0.1-0.2-0.3-0.3-0.5
						c-0.1-0.2-0.1-0.4-0.1-0.7v0c0-0.2,0-0.5,0.1-0.6c0.1-0.2,0.2-0.4,0.3-0.5c0.1-0.1,0.3-0.2,0.5-0.3c0.2-0.1,0.4-0.1,0.6-0.1
						c0.3,0,0.5,0,0.7,0.1c0.2,0.1,0.3,0.2,0.5,0.4c0.1,0.1,0.2,0.3,0.3,0.5c0.1,0.2,0.1,0.3,0.1,0.5v0.4H37z M37.8,41.1
						c-0.2,0-0.4,0.1-0.5,0.2s-0.2,0.2-0.2,0.4h1.5c0-0.1-0.1-0.3-0.2-0.4C38.1,41.2,38,41.1,37.8,41.1z"/>
				</g>
				<g id="XMLID_983_">
					<path id="XMLID_1599_" class="st1" d="M40,40.5h1.3V41h0.1c0.1-0.2,0.2-0.3,0.3-0.4c0.1-0.1,0.3-0.1,0.5-0.1
						c0.3,0,0.6,0.1,0.7,0.3c0.2,0.2,0.3,0.5,0.3,0.9v0.1l-0.8,0.1v-0.1c0-0.2,0-0.3-0.1-0.4c-0.1-0.1-0.2-0.2-0.4-0.2
						s-0.3,0.1-0.4,0.2c-0.1,0.1-0.1,0.3-0.1,0.5v1h0.7v0.7h-2.1v-0.7h0.6v-1.6H40V40.5z"/>
				</g>
				<g id="XMLID_981_">
					<path id="XMLID_1596_" class="st1" d="M43.8,40.5h1.3V41h0.1c0.1-0.2,0.2-0.3,0.3-0.4c0.1-0.1,0.3-0.1,0.5-0.1
						c0.3,0,0.6,0.1,0.7,0.3c0.2,0.2,0.3,0.5,0.3,0.9v0.1l-0.8,0.1v-0.1c0-0.2,0-0.3-0.1-0.4c-0.1-0.1-0.2-0.2-0.4-0.2
						s-0.3,0.1-0.4,0.2c-0.1,0.1-0.1,0.3-0.1,0.5v1h0.7v0.7h-2.1v-0.7h0.6v-1.6h-0.6V40.5z"/>
				</g>
				<g id="XMLID_978_">
					<path id="XMLID_1592_" class="st1" d="M49.8,43.2c-0.1,0.2-0.2,0.3-0.3,0.4c-0.1,0.1-0.3,0.1-0.5,0.1c-0.2,0-0.4,0-0.5-0.1
						c-0.2-0.1-0.3-0.2-0.4-0.3c-0.1-0.1-0.2-0.3-0.3-0.5c-0.1-0.2-0.1-0.4-0.1-0.7V42c0-0.2,0-0.5,0.1-0.7c0.1-0.2,0.2-0.4,0.3-0.5
						c0.1-0.1,0.3-0.2,0.4-0.3c0.2-0.1,0.3-0.1,0.5-0.1c0.2,0,0.4,0,0.5,0.1c0.1,0.1,0.2,0.2,0.3,0.3h0.1v-0.4h0.8v2.2
						c0,0.1,0.1,0.2,0.2,0.2h0.1v0.7h-0.5c-0.1,0-0.3,0-0.3-0.1c-0.1-0.1-0.1-0.2-0.1-0.3H49.8z M49.1,43c0.2,0,0.4-0.1,0.5-0.2
						c0.1-0.2,0.2-0.4,0.2-0.6V42c0-0.3-0.1-0.5-0.2-0.6c-0.1-0.2-0.3-0.2-0.5-0.2c-0.2,0-0.4,0.1-0.5,0.2c-0.1,0.2-0.2,0.4-0.2,0.6
						v0.1c0,0.3,0.1,0.5,0.2,0.6C48.7,42.9,48.8,43,49.1,43z"/>
				</g>
				<g id="XMLID_976_">
					<path id="XMLID_1589_" class="st1" d="M51.6,40.5h0.9v-0.6c0-0.2,0.1-0.3,0.2-0.5c0.1-0.1,0.3-0.2,0.4-0.2h1.3V40h-0.9
						c-0.1,0-0.2,0.1-0.2,0.2v0.3h1.2v0.7h-1.2v2.3h-0.8v-2.3h-0.9V40.5z"/>
				</g>
				<g id="XMLID_973_">
					<path id="XMLID_1585_" class="st1" d="M58.4,42.1c0,0.3,0,0.5-0.1,0.7c-0.1,0.2-0.2,0.4-0.4,0.5c-0.1,0.1-0.3,0.2-0.5,0.3
						c-0.2,0.1-0.4,0.1-0.6,0.1c-0.2,0-0.4,0-0.6-0.1s-0.4-0.2-0.5-0.3c-0.1-0.1-0.3-0.3-0.4-0.5c-0.1-0.2-0.1-0.4-0.1-0.7V42
						c0-0.3,0-0.5,0.1-0.7c0.1-0.2,0.2-0.4,0.4-0.5c0.1-0.1,0.3-0.2,0.5-0.3c0.2-0.1,0.4-0.1,0.6-0.1c0.2,0,0.4,0,0.6,0.1
						c0.2,0.1,0.4,0.2,0.5,0.3c0.1,0.1,0.3,0.3,0.4,0.5C58.4,41.6,58.4,41.8,58.4,42.1L58.4,42.1z M56.8,43c0.1,0,0.2,0,0.3-0.1
						c0.1,0,0.2-0.1,0.3-0.2c0.1-0.1,0.1-0.2,0.2-0.3c0-0.1,0.1-0.2,0.1-0.3V42c0-0.1,0-0.2-0.1-0.3c0-0.1-0.1-0.2-0.2-0.3
						c-0.1-0.1-0.2-0.1-0.3-0.2c-0.1,0-0.2-0.1-0.3-0.1c-0.1,0-0.2,0-0.3,0.1c-0.1,0-0.2,0.1-0.3,0.2c-0.1,0.1-0.1,0.2-0.2,0.3
						c0,0.1-0.1,0.2-0.1,0.3v0.1c0,0.1,0,0.2,0.1,0.3c0,0.1,0.1,0.2,0.2,0.3c0.1,0.1,0.2,0.1,0.3,0.2C56.6,42.9,56.7,43,56.8,43z"/>
				</g>
				<g id="XMLID_971_">
					<path id="XMLID_1582_" class="st1" d="M59.1,40.5h1.3V41h0.1c0.1-0.2,0.2-0.3,0.3-0.4c0.1-0.1,0.3-0.1,0.5-0.1
						c0.3,0,0.6,0.1,0.7,0.3c0.2,0.2,0.3,0.5,0.3,0.9v0.1l-0.8,0.1v-0.1c0-0.2,0-0.3-0.1-0.4c-0.1-0.1-0.2-0.2-0.4-0.2
						s-0.3,0.1-0.4,0.2c-0.1,0.1-0.1,0.3-0.1,0.5v1h0.7v0.7H59v-0.7h0.6v-1.6h-0.6V40.5z"/>
				</g>
				<g id="XMLID_969_">
					<path id="XMLID_1579_" class="st1" d="M66.1,43.6h-0.8v-2.2c0-0.1,0-0.2-0.1-0.2s-0.1-0.1-0.2-0.1c-0.1,0-0.1,0-0.2,0.1
						c0,0-0.1,0.1-0.1,0.2v2.1H64v-2.2c0-0.1,0-0.2-0.1-0.2c0,0-0.1-0.1-0.2-0.1c-0.1,0-0.1,0-0.2,0.1s-0.1,0.1-0.1,0.2v2.1h-0.8
						v-3.1h0.8v0.3h0.1c0-0.1,0.1-0.2,0.2-0.3c0.1-0.1,0.2-0.1,0.4-0.1c0.1,0,0.3,0,0.3,0.1c0.1,0.1,0.2,0.2,0.2,0.3h0.1
						c0-0.1,0.1-0.2,0.2-0.3c0.1-0.1,0.2-0.1,0.4-0.1c0.2,0,0.4,0.1,0.5,0.2c0.1,0.1,0.2,0.3,0.2,0.6V43.6z"/>
				</g>
				<g id="XMLID_967_">
					<path id="XMLID_1576_" class="st1" d="M67.3,41.5h1.9v0.7h-1.9V41.5z"/>
				</g>
				<g id="XMLID_964_">
					<path id="XMLID_1572_" class="st1" d="M71.3,42.3c0,0.1,0,0.2,0.1,0.3c0,0.1,0.1,0.1,0.2,0.2c0.1,0.1,0.1,0.1,0.2,0.1
						c0.1,0,0.2,0,0.3,0c0.2,0,0.3,0,0.4-0.1c0.1-0.1,0.2-0.2,0.2-0.2l0.7,0.4c0,0.1-0.1,0.2-0.2,0.2c-0.1,0.1-0.2,0.2-0.3,0.2
						c-0.1,0.1-0.2,0.1-0.4,0.2s-0.3,0.1-0.5,0.1c-0.2,0-0.4,0-0.6-0.1c-0.2-0.1-0.4-0.2-0.5-0.3c-0.1-0.1-0.2-0.3-0.3-0.5
						c-0.1-0.2-0.1-0.4-0.1-0.7v0c0-0.2,0-0.5,0.1-0.6c0.1-0.2,0.2-0.4,0.3-0.5c0.1-0.1,0.3-0.2,0.5-0.3c0.2-0.1,0.4-0.1,0.6-0.1
						c0.3,0,0.5,0,0.7,0.1c0.2,0.1,0.3,0.2,0.5,0.4c0.1,0.1,0.2,0.3,0.3,0.5c0.1,0.2,0.1,0.3,0.1,0.5v0.4H71.3z M72.1,41.1
						c-0.2,0-0.4,0.1-0.5,0.2c-0.1,0.1-0.2,0.2-0.2,0.4h1.5c0-0.1-0.1-0.3-0.2-0.4C72.4,41.2,72.3,41.1,72.1,41.1z"/>
				</g>
				<g id="XMLID_962_">
					<path id="XMLID_1569_" class="st1" d="M75.2,43.6h-0.8v-3.1h0.8V41h0.1c0.1-0.2,0.2-0.3,0.3-0.4c0.2-0.1,0.3-0.1,0.6-0.1
						c0.1,0,0.3,0,0.4,0.1c0.1,0,0.2,0.1,0.3,0.2c0.1,0.1,0.2,0.2,0.2,0.4c0.1,0.2,0.1,0.3,0.1,0.5v2h-0.8v-1.8
						c0-0.2-0.1-0.4-0.2-0.5c-0.1-0.1-0.3-0.2-0.5-0.2c-0.2,0-0.4,0.1-0.5,0.2c-0.1,0.2-0.2,0.4-0.2,0.6V43.6z"/>
				</g>
				<g id="XMLID_960_">
					<path id="XMLID_1566_" class="st1" d="M78,40.5h0.8l0.7,2.7h0.1l0.7-2.7h0.8l-0.9,3.1h-1.5L78,40.5z"/>
				</g>
				<g id="XMLID_958_">
					<path id="XMLID_1563_" class="st1" d="M82.5,41.5h1.9v0.7h-1.9V41.5z"/>
				</g>
				<g id="XMLID_955_">
					<path id="XMLID_1559_" class="st1" d="M88.1,43.2H88c0,0.1-0.1,0.1-0.1,0.2s-0.1,0.1-0.2,0.2c-0.1,0-0.2,0.1-0.3,0.1
						c-0.1,0-0.2,0-0.4,0c-0.2,0-0.4,0-0.5-0.1c-0.2-0.1-0.3-0.2-0.4-0.3c-0.1-0.1-0.2-0.3-0.3-0.5c-0.1-0.2-0.1-0.4-0.1-0.7V42
						c0-0.2,0-0.5,0.1-0.7c0.1-0.2,0.2-0.4,0.3-0.5c0.1-0.1,0.3-0.2,0.4-0.3c0.2-0.1,0.3-0.1,0.5-0.1c0.2,0,0.4,0,0.6,0.1
						c0.1,0.1,0.3,0.2,0.3,0.4h0.1v-1.7h0.8v4.4h-0.8V43.2z M87.3,43c0.2,0,0.4-0.1,0.6-0.2c0.2-0.2,0.2-0.4,0.2-0.6V42
						c0-0.3-0.1-0.5-0.2-0.6c-0.2-0.2-0.3-0.2-0.6-0.2s-0.4,0.1-0.6,0.2c-0.2,0.2-0.2,0.4-0.2,0.6v0.1c0,0.3,0.1,0.5,0.2,0.6
						S87,43,87.3,43z"/>
				</g>
				<g id="XMLID_952_">
					<path id="XMLID_1555_" class="st1" d="M90.4,42.3c0,0.1,0,0.2,0.1,0.3c0,0.1,0.1,0.1,0.2,0.2c0.1,0.1,0.1,0.1,0.2,0.1
						c0.1,0,0.2,0,0.3,0c0.2,0,0.3,0,0.4-0.1c0.1-0.1,0.2-0.2,0.2-0.2l0.7,0.4c0,0.1-0.1,0.2-0.2,0.2s-0.2,0.2-0.3,0.2
						c-0.1,0.1-0.2,0.1-0.4,0.2c-0.2,0-0.3,0.1-0.5,0.1c-0.2,0-0.4,0-0.6-0.1c-0.2-0.1-0.4-0.2-0.5-0.3c-0.1-0.1-0.2-0.3-0.3-0.5
						c-0.1-0.2-0.1-0.4-0.1-0.7v0c0-0.2,0-0.5,0.1-0.6c0.1-0.2,0.2-0.4,0.3-0.5c0.1-0.1,0.3-0.2,0.5-0.3c0.2-0.1,0.4-0.1,0.6-0.1
						c0.3,0,0.5,0,0.7,0.1c0.2,0.1,0.3,0.2,0.5,0.4c0.1,0.1,0.2,0.3,0.3,0.5c0.1,0.2,0.1,0.3,0.1,0.5v0.4H90.4z M91.1,41.1
						c-0.2,0-0.4,0.1-0.5,0.2c-0.1,0.1-0.2,0.2-0.2,0.4h1.5c0-0.1-0.1-0.3-0.2-0.4C91.5,41.2,91.3,41.1,91.1,41.1z"/>
				</g>
				<g id="XMLID_950_">
					<path id="XMLID_1552_" class="st1" d="M93.3,40.5h0.8l0.7,2.7H95l0.7-2.7h0.8l-0.9,3.1h-1.5L93.3,40.5z"/>
				</g>
			</g>
		</g>
		<g id="XMLID_901_">
			<g id="XMLID_946_">
				<g id="XMLID_947_">
					<rect id="XMLID_1548_" x="224.4" y="32.7" class="st2" width="94.5" height="18.2"/>
				</g>
			</g>
			<g id="XMLID_902_">
				<g id="XMLID_944_">
					<path id="XMLID_1544_" class="st1" d="M237.7,40.2h0.9V39h0.8v1.3h1.1V41h-1.1v1.4c0,0.1,0.1,0.2,0.2,0.2h0.8v0.7h-1.3
						c-0.1,0-0.3,0-0.3-0.1c-0.1-0.1-0.1-0.2-0.1-0.3V41h-0.9V40.2z"/>
				</g>
				<g id="XMLID_941_">
					<path id="XMLID_1540_" class="st1" d="M242.3,42c0,0.1,0,0.2,0.1,0.3c0,0.1,0.1,0.1,0.2,0.2c0.1,0.1,0.1,0.1,0.2,0.1
						c0.1,0,0.2,0,0.3,0c0.2,0,0.3,0,0.4-0.1c0.1-0.1,0.2-0.2,0.2-0.2l0.7,0.4c0,0.1-0.1,0.2-0.2,0.2s-0.2,0.2-0.3,0.2
						s-0.2,0.1-0.4,0.2s-0.3,0.1-0.5,0.1c-0.2,0-0.4,0-0.6-0.1c-0.2-0.1-0.4-0.2-0.5-0.3c-0.1-0.1-0.2-0.3-0.3-0.5
						c-0.1-0.2-0.1-0.4-0.1-0.7v0c0-0.2,0-0.5,0.1-0.6c0.1-0.2,0.2-0.4,0.3-0.5c0.1-0.1,0.3-0.2,0.5-0.3c0.2-0.1,0.4-0.1,0.6-0.1
						c0.3,0,0.5,0,0.7,0.1c0.2,0.1,0.3,0.2,0.5,0.4c0.1,0.1,0.2,0.3,0.3,0.5c0.1,0.2,0.1,0.3,0.1,0.5V42H242.3z M243,40.9
						c-0.2,0-0.4,0.1-0.5,0.2s-0.2,0.2-0.2,0.4h1.5c0-0.1-0.1-0.3-0.2-0.4C243.4,40.9,243.2,40.9,243,40.9z"/>
				</g>
				<g id="XMLID_939_">
					<path id="XMLID_1537_" class="st1" d="M245.2,40.2h1.3v0.4h0.1c0.1-0.2,0.2-0.3,0.3-0.4c0.1-0.1,0.3-0.1,0.5-0.1
						c0.3,0,0.6,0.1,0.7,0.3c0.2,0.2,0.3,0.5,0.3,0.9v0.1l-0.8,0.1v-0.1c0-0.2,0-0.3-0.1-0.4c-0.1-0.1-0.2-0.2-0.4-0.2
						s-0.3,0.1-0.4,0.2c-0.1,0.1-0.1,0.3-0.1,0.5v1h0.7v0.7h-2.1v-0.7h0.6V41h-0.6V40.2z"/>
				</g>
				<g id="XMLID_937_">
					<path id="XMLID_1534_" class="st1" d="M249,40.2h1.3v0.4h0.1c0.1-0.2,0.2-0.3,0.3-0.4c0.1-0.1,0.3-0.1,0.5-0.1
						c0.3,0,0.6,0.1,0.7,0.3c0.2,0.2,0.3,0.5,0.3,0.9v0.1l-0.8,0.1v-0.1c0-0.2,0-0.3-0.1-0.4c-0.1-0.1-0.2-0.2-0.4-0.2
						s-0.3,0.1-0.4,0.2c-0.1,0.1-0.1,0.3-0.1,0.5v1h0.7v0.7H249v-0.7h0.6V41H249V40.2z"/>
				</g>
				<g id="XMLID_934_">
					<path id="XMLID_1530_" class="st1" d="M255,42.9c-0.1,0.2-0.2,0.3-0.3,0.4c-0.1,0.1-0.3,0.1-0.5,0.1c-0.2,0-0.4,0-0.5-0.1
						c-0.2-0.1-0.3-0.2-0.4-0.3c-0.1-0.1-0.2-0.3-0.3-0.5c-0.1-0.2-0.1-0.4-0.1-0.7v-0.1c0-0.2,0-0.5,0.1-0.7
						c0.1-0.2,0.2-0.4,0.3-0.5c0.1-0.1,0.3-0.2,0.4-0.3c0.2-0.1,0.3-0.1,0.5-0.1c0.2,0,0.4,0,0.5,0.1c0.1,0.1,0.2,0.2,0.3,0.3h0.1
						v-0.4h0.8v2.2c0,0.1,0.1,0.2,0.2,0.2h0.1v0.7h-0.5c-0.1,0-0.3,0-0.3-0.1c-0.1-0.1-0.1-0.2-0.1-0.3H255z M254.3,42.7
						c0.2,0,0.4-0.1,0.5-0.2s0.2-0.4,0.2-0.6v-0.1c0-0.3-0.1-0.5-0.2-0.6c-0.1-0.2-0.3-0.2-0.5-0.2c-0.2,0-0.4,0.1-0.5,0.2
						c-0.1,0.2-0.2,0.4-0.2,0.6v0.1c0,0.3,0.1,0.5,0.2,0.6C253.9,42.6,254.1,42.7,254.3,42.7z"/>
				</g>
				<g id="XMLID_932_">
					<path id="XMLID_1527_" class="st1" d="M256.8,40.2h0.9v-0.6c0-0.2,0.1-0.3,0.2-0.5c0.1-0.1,0.3-0.2,0.4-0.2h1.3v0.7h-0.9
						c-0.1,0-0.2,0.1-0.2,0.2v0.3h1.2V41h-1.2v2.3h-0.8V41h-0.9V40.2z"/>
				</g>
				<g id="XMLID_929_">
					<path id="XMLID_1523_" class="st1" d="M263.7,41.8c0,0.3,0,0.5-0.1,0.7c-0.1,0.2-0.2,0.4-0.4,0.5s-0.3,0.2-0.5,0.3
						c-0.2,0.1-0.4,0.1-0.6,0.1s-0.4,0-0.6-0.1c-0.2-0.1-0.4-0.2-0.5-0.3s-0.3-0.3-0.4-0.5c-0.1-0.2-0.1-0.4-0.1-0.7v-0.1
						c0-0.3,0-0.5,0.1-0.7c0.1-0.2,0.2-0.4,0.4-0.5c0.1-0.1,0.3-0.2,0.5-0.3c0.2-0.1,0.4-0.1,0.6-0.1s0.4,0,0.6,0.1
						c0.2,0.1,0.4,0.2,0.5,0.3c0.1,0.1,0.3,0.3,0.4,0.5C263.6,41.3,263.7,41.5,263.7,41.8L263.7,41.8z M262,42.7
						c0.1,0,0.2,0,0.3-0.1c0.1,0,0.2-0.1,0.3-0.2c0.1-0.1,0.1-0.2,0.2-0.3c0-0.1,0.1-0.2,0.1-0.3v-0.1c0-0.1,0-0.2-0.1-0.3
						c0-0.1-0.1-0.2-0.2-0.3c-0.1-0.1-0.2-0.1-0.3-0.2c-0.1,0-0.2-0.1-0.3-0.1s-0.2,0-0.3,0.1c-0.1,0-0.2,0.1-0.3,0.2
						c-0.1,0.1-0.1,0.2-0.2,0.3c0,0.1-0.1,0.2-0.1,0.3v0.1c0,0.1,0,0.2,0.1,0.3c0,0.1,0.1,0.2,0.2,0.3c0.1,0.1,0.2,0.1,0.3,0.2
						C261.8,42.6,261.9,42.7,262,42.7z"/>
				</g>
				<g id="XMLID_927_">
					<path id="XMLID_1520_" class="st1" d="M264.3,40.2h1.3v0.4h0.1c0.1-0.2,0.2-0.3,0.3-0.4c0.1-0.1,0.3-0.1,0.5-0.1
						c0.3,0,0.6,0.1,0.7,0.3c0.2,0.2,0.3,0.5,0.3,0.9v0.1l-0.8,0.1v-0.1c0-0.2,0-0.3-0.1-0.4c-0.1-0.1-0.2-0.2-0.4-0.2
						c-0.2,0-0.3,0.1-0.4,0.2c-0.1,0.1-0.1,0.3-0.1,0.5v1h0.7v0.7h-2.1v-0.7h0.6V41h-0.6V40.2z"/>
				</g>
				<g id="XMLID_925_">
					<path id="XMLID_1517_" class="st1" d="M271.4,43.3h-0.8v-2.2c0-0.1,0-0.2-0.1-0.2s-0.1-0.1-0.2-0.1c-0.1,0-0.1,0-0.2,0.1
						c0,0-0.1,0.1-0.1,0.2v2.1h-0.8v-2.2c0-0.1,0-0.2-0.1-0.2c0,0-0.1-0.1-0.2-0.1c-0.1,0-0.1,0-0.2,0.1c0,0-0.1,0.1-0.1,0.2v2.1
						H268v-3.1h0.8v0.3h0.1c0-0.1,0.1-0.2,0.2-0.3c0.1-0.1,0.2-0.1,0.4-0.1c0.1,0,0.3,0,0.3,0.1c0.1,0.1,0.2,0.2,0.2,0.3h0.1
						c0-0.1,0.1-0.2,0.2-0.3c0.1-0.1,0.2-0.1,0.4-0.1c0.2,0,0.4,0.1,0.5,0.2c0.1,0.1,0.2,0.3,0.2,0.6V43.3z"/>
				</g>
				<g id="XMLID_923_">
					<path id="XMLID_1514_" class="st1" d="M272.5,41.3h1.9V42h-1.9V41.3z"/>
				</g>
				<g id="XMLID_920_">
					<path id="XMLID_1510_" class="st1" d="M276.6,42c0,0.1,0,0.2,0.1,0.3c0,0.1,0.1,0.1,0.2,0.2c0.1,0.1,0.1,0.1,0.2,0.1
						c0.1,0,0.2,0,0.3,0c0.2,0,0.3,0,0.4-0.1c0.1-0.1,0.2-0.2,0.2-0.2l0.7,0.4c0,0.1-0.1,0.2-0.2,0.2c-0.1,0.1-0.2,0.2-0.3,0.2
						s-0.2,0.1-0.4,0.2c-0.2,0-0.3,0.1-0.5,0.1c-0.2,0-0.4,0-0.6-0.1c-0.2-0.1-0.4-0.2-0.5-0.3c-0.1-0.1-0.2-0.3-0.3-0.5
						c-0.1-0.2-0.1-0.4-0.1-0.7v0c0-0.2,0-0.5,0.1-0.6c0.1-0.2,0.2-0.4,0.3-0.5c0.1-0.1,0.3-0.2,0.5-0.3c0.2-0.1,0.4-0.1,0.6-0.1
						c0.3,0,0.5,0,0.7,0.1c0.2,0.1,0.3,0.2,0.5,0.4c0.1,0.1,0.2,0.3,0.3,0.5c0.1,0.2,0.1,0.3,0.1,0.5V42H276.6z M277.3,40.9
						c-0.2,0-0.4,0.1-0.5,0.2c-0.1,0.1-0.2,0.2-0.2,0.4h1.5c0-0.1-0.1-0.3-0.2-0.4C277.7,40.9,277.5,40.9,277.3,40.9z"/>
				</g>
				<g id="XMLID_918_">
					<path id="XMLID_1507_" class="st1" d="M280.5,43.3h-0.8v-3.1h0.8v0.5h0.1c0.1-0.2,0.2-0.3,0.3-0.4c0.2-0.1,0.3-0.1,0.6-0.1
						c0.1,0,0.3,0,0.4,0.1c0.1,0,0.2,0.1,0.3,0.2c0.1,0.1,0.2,0.2,0.2,0.4c0.1,0.2,0.1,0.3,0.1,0.5v2h-0.8v-1.8
						c0-0.2-0.1-0.4-0.2-0.5c-0.1-0.1-0.3-0.2-0.5-0.2c-0.2,0-0.4,0.1-0.5,0.2c-0.1,0.2-0.2,0.4-0.2,0.6V43.3z"/>
				</g>
				<g id="XMLID_916_">
					<path id="XMLID_1504_" class="st1" d="M283.3,40.2h0.8l0.7,2.7h0.1l0.7-2.7h0.8l-0.9,3.1h-1.5L283.3,40.2z"/>
				</g>
				<g id="XMLID_914_">
					<path id="XMLID_1501_" class="st1" d="M287.8,41.3h1.9V42h-1.9V41.3z"/>
				</g>
				<g id="XMLID_911_">
					<path id="XMLID_1497_" class="st1" d="M291.7,44.6H291v-4.3h0.8v0.4h0.1c0.1-0.2,0.2-0.3,0.4-0.4c0.2-0.1,0.4-0.1,0.6-0.1
						c0.2,0,0.4,0,0.5,0.1c0.2,0.1,0.3,0.2,0.4,0.3c0.1,0.1,0.2,0.3,0.3,0.5c0.1,0.2,0.1,0.4,0.1,0.7v0.1c0,0.3,0,0.5-0.1,0.7
						c-0.1,0.2-0.2,0.4-0.3,0.5c-0.1,0.1-0.3,0.2-0.4,0.3c-0.2,0.1-0.3,0.1-0.5,0.1c-0.1,0-0.3,0-0.4,0c-0.1,0-0.2-0.1-0.3-0.1
						c-0.1-0.1-0.1-0.1-0.2-0.2c-0.1-0.1-0.1-0.1-0.1-0.2h-0.1V44.6z M292.6,42.7c0.2,0,0.4-0.1,0.6-0.2c0.2-0.2,0.2-0.4,0.2-0.6
						v-0.1c0-0.3-0.1-0.5-0.2-0.6c-0.2-0.2-0.3-0.2-0.6-0.2c-0.2,0-0.4,0.1-0.6,0.2c-0.2,0.2-0.2,0.4-0.2,0.6v0.1
						c0,0.3,0.1,0.5,0.2,0.6C292.1,42.6,292.3,42.7,292.6,42.7z"/>
				</g>
				<g id="XMLID_909_">
					<path id="XMLID_1494_" class="st1" d="M294.8,40.2h1.3v0.4h0.1c0.1-0.2,0.2-0.3,0.3-0.4c0.1-0.1,0.3-0.1,0.5-0.1
						c0.3,0,0.6,0.1,0.7,0.3c0.2,0.2,0.3,0.5,0.3,0.9v0.1l-0.8,0.1v-0.1c0-0.2,0-0.3-0.1-0.4c-0.1-0.1-0.2-0.2-0.4-0.2
						s-0.3,0.1-0.4,0.2c-0.1,0.1-0.1,0.3-0.1,0.5v1h0.7v0.7h-2.1v-0.7h0.6V41h-0.6V40.2z"/>
				</g>
				<g id="XMLID_906_">
					<path id="XMLID_1490_" class="st1" d="M301.8,41.8c0,0.3,0,0.5-0.1,0.7c-0.1,0.2-0.2,0.4-0.4,0.5s-0.3,0.2-0.5,0.3
						c-0.2,0.1-0.4,0.1-0.6,0.1s-0.4,0-0.6-0.1c-0.2-0.1-0.4-0.2-0.5-0.3s-0.3-0.3-0.4-0.5c-0.1-0.2-0.1-0.4-0.1-0.7v-0.1
						c0-0.3,0-0.5,0.1-0.7s0.2-0.4,0.4-0.5c0.1-0.1,0.3-0.2,0.5-0.3c0.2-0.1,0.4-0.1,0.6-0.1s0.4,0,0.6,0.1c0.2,0.1,0.4,0.2,0.5,0.3
						c0.1,0.1,0.3,0.3,0.4,0.5C301.7,41.3,301.8,41.5,301.8,41.8L301.8,41.8z M300.2,42.7c0.1,0,0.2,0,0.3-0.1
						c0.1,0,0.2-0.1,0.3-0.2c0.1-0.1,0.1-0.2,0.2-0.3c0-0.1,0.1-0.2,0.1-0.3v-0.1c0-0.1,0-0.2-0.1-0.3c0-0.1-0.1-0.2-0.2-0.3
						c-0.1-0.1-0.2-0.1-0.3-0.2c-0.1,0-0.2-0.1-0.3-0.1s-0.2,0-0.3,0.1c-0.1,0-0.2,0.1-0.3,0.2c-0.1,0.1-0.1,0.2-0.2,0.3
						c0,0.1-0.1,0.2-0.1,0.3v0.1c0,0.1,0,0.2,0.1,0.3c0,0.1,0.1,0.2,0.2,0.3c0.1,0.1,0.2,0.1,0.3,0.2
						C299.9,42.6,300,42.7,300.2,42.7z"/>
				</g>
				<g id="XMLID_903_">
					<path id="XMLID_1486_" class="st1" d="M304.8,42.9h-0.1c0,0.1-0.1,0.1-0.1,0.2c0,0.1-0.1,0.1-0.2,0.2c-0.1,0-0.2,0.1-0.3,0.1
						c-0.1,0-0.2,0-0.4,0c-0.2,0-0.4,0-0.5-0.1c-0.2-0.1-0.3-0.2-0.4-0.3c-0.1-0.1-0.2-0.3-0.3-0.5c-0.1-0.2-0.1-0.4-0.1-0.7v-0.1
						c0-0.2,0-0.5,0.1-0.7c0.1-0.2,0.2-0.4,0.3-0.5c0.1-0.1,0.3-0.2,0.4-0.3c0.2-0.1,0.3-0.1,0.5-0.1c0.2,0,0.4,0,0.6,0.1
						c0.1,0.1,0.3,0.2,0.3,0.4h0.1V39h0.8v4.4h-0.8V42.9z M303.9,42.7c0.2,0,0.4-0.1,0.6-0.2c0.2-0.2,0.2-0.4,0.2-0.6v-0.1
						c0-0.3-0.1-0.5-0.2-0.6c-0.2-0.2-0.3-0.2-0.6-0.2c-0.2,0-0.4,0.1-0.6,0.2c-0.2,0.2-0.2,0.4-0.2,0.6v0.1c0,0.3,0.1,0.5,0.2,0.6
						C303.5,42.6,303.7,42.7,303.9,42.7z"/>
				</g>
			</g>
		</g>
	</g>
	<g id="XMLID_809_">
		<g id="XMLID_898_">
			<path id="XMLID_1480_" class="st1" d="M69.5,100.6h1.2v-1.7h1v1.7h1.5v1h-1.5v1.9c0,0.2,0.1,0.2,0.2,0.2h1.1v1h-1.7
				c-0.2,0-0.3-0.1-0.5-0.2c-0.1-0.1-0.2-0.3-0.2-0.5v-2.5h-1.2V100.6z"/>
		</g>
		<g id="XMLID_895_">
			<path id="XMLID_1476_" class="st1" d="M75.6,103c0,0.1,0,0.2,0.1,0.3c0.1,0.1,0.1,0.2,0.2,0.3c0.1,0.1,0.2,0.1,0.3,0.2
				c0.1,0,0.2,0.1,0.4,0.1c0.3,0,0.5,0,0.6-0.1c0.1-0.1,0.2-0.2,0.3-0.3l0.9,0.5c-0.1,0.1-0.1,0.2-0.2,0.3s-0.2,0.2-0.3,0.3
				c-0.1,0.1-0.3,0.2-0.5,0.2c-0.2,0.1-0.4,0.1-0.7,0.1c-0.3,0-0.6,0-0.8-0.1c-0.3-0.1-0.5-0.2-0.7-0.4c-0.2-0.2-0.3-0.4-0.4-0.7
				c-0.1-0.3-0.2-0.6-0.2-0.9v0c0-0.3,0.1-0.6,0.2-0.9c0.1-0.3,0.3-0.5,0.4-0.7c0.2-0.2,0.4-0.3,0.7-0.4c0.3-0.1,0.5-0.2,0.8-0.2
				c0.4,0,0.7,0.1,0.9,0.2c0.3,0.1,0.5,0.3,0.6,0.5s0.3,0.4,0.4,0.6c0.1,0.2,0.1,0.5,0.1,0.7v0.6H75.6z M76.6,101.4
				c-0.3,0-0.5,0.1-0.6,0.2c-0.2,0.1-0.3,0.3-0.3,0.5h1.9c0-0.2-0.1-0.4-0.3-0.5C77.1,101.5,76.9,101.4,76.6,101.4z"/>
		</g>
		<g id="XMLID_893_">
			<path id="XMLID_1473_" class="st1" d="M79.6,100.6h1.7v0.6h0.1c0.1-0.2,0.2-0.4,0.4-0.5c0.2-0.1,0.4-0.2,0.7-0.2
				c0.4,0,0.7,0.1,1,0.4c0.2,0.3,0.4,0.6,0.4,1.2v0.2l-1.1,0.1v-0.1c0-0.2-0.1-0.4-0.2-0.5c-0.1-0.1-0.3-0.2-0.5-0.2
				s-0.4,0.1-0.5,0.2c-0.1,0.2-0.2,0.4-0.2,0.7v1.3h0.9v1h-2.8v-1h0.8v-2.1h-0.7V100.6z"/>
		</g>
		<g id="XMLID_891_">
			<path id="XMLID_1470_" class="st1" d="M84.7,100.6h1.7v0.6h0.1c0.1-0.2,0.2-0.4,0.4-0.5c0.2-0.1,0.4-0.2,0.7-0.2
				c0.4,0,0.7,0.1,1,0.4c0.2,0.3,0.4,0.6,0.4,1.2v0.2l-1.1,0.1v-0.1c0-0.2-0.1-0.4-0.2-0.5c-0.1-0.1-0.3-0.2-0.5-0.2
				s-0.4,0.1-0.5,0.2c-0.1,0.2-0.2,0.4-0.2,0.7v1.3h0.9v1h-2.8v-1h0.8v-2.1h-0.7V100.6z"/>
		</g>
		<g id="XMLID_888_">
			<path id="XMLID_1466_" class="st1" d="M92.6,104.1c-0.1,0.3-0.3,0.4-0.5,0.6c-0.2,0.1-0.4,0.2-0.7,0.2c-0.2,0-0.5,0-0.7-0.1
				c-0.2-0.1-0.4-0.2-0.6-0.4c-0.2-0.2-0.3-0.4-0.4-0.7s-0.1-0.6-0.1-0.9v-0.1c0-0.3,0-0.6,0.1-0.9c0.1-0.3,0.2-0.5,0.4-0.7
				c0.2-0.2,0.3-0.3,0.6-0.4c0.2-0.1,0.4-0.1,0.7-0.1c0.3,0,0.5,0,0.7,0.1c0.2,0.1,0.3,0.3,0.4,0.5h0.1v-0.5h1v2.9
				c0,0.2,0.1,0.2,0.2,0.2h0.2v1h-0.7c-0.2,0-0.3-0.1-0.5-0.2c-0.1-0.1-0.2-0.3-0.2-0.4H92.6z M91.7,103.8c0.3,0,0.5-0.1,0.7-0.3
				c0.2-0.2,0.3-0.5,0.3-0.8v-0.1c0-0.3-0.1-0.6-0.3-0.8c-0.2-0.2-0.4-0.3-0.7-0.3c-0.3,0-0.5,0.1-0.7,0.3c-0.2,0.2-0.3,0.5-0.3,0.8
				v0.1c0,0.3,0.1,0.6,0.3,0.8C91.2,103.7,91.4,103.8,91.7,103.8z"/>
		</g>
		<g id="XMLID_886_">
			<path id="XMLID_1463_" class="st1" d="M95,100.6h1.2v-0.8c0-0.2,0.1-0.4,0.2-0.6c0.2-0.2,0.4-0.2,0.6-0.2h1.7v1h-1.2
				c-0.1,0-0.2,0.1-0.2,0.2v0.4h1.6v1h-1.6v3.1h-1v-3.1H95V100.6z"/>
		</g>
		<g id="XMLID_883_">
			<path id="XMLID_1459_" class="st1" d="M104.2,102.7c0,0.3-0.1,0.6-0.2,0.9c-0.1,0.3-0.3,0.5-0.5,0.7c-0.2,0.2-0.4,0.3-0.7,0.4
				c-0.3,0.1-0.5,0.1-0.8,0.1c-0.3,0-0.6,0-0.8-0.1c-0.3-0.1-0.5-0.2-0.7-0.4c-0.2-0.2-0.4-0.4-0.5-0.7c-0.1-0.3-0.2-0.6-0.2-0.9
				v-0.1c0-0.3,0.1-0.6,0.2-0.9c0.1-0.3,0.3-0.5,0.5-0.7c0.2-0.2,0.4-0.3,0.7-0.4c0.3-0.1,0.5-0.1,0.8-0.1c0.3,0,0.6,0,0.8,0.1
				s0.5,0.2,0.7,0.4c0.2,0.2,0.4,0.4,0.5,0.7C104.1,102,104.2,102.3,104.2,102.7L104.2,102.7z M102,103.8c0.1,0,0.3,0,0.4-0.1
				c0.1,0,0.2-0.1,0.3-0.2c0.1-0.1,0.2-0.2,0.2-0.3c0.1-0.1,0.1-0.3,0.1-0.5v-0.2c0-0.2,0-0.3-0.1-0.5c-0.1-0.1-0.1-0.3-0.2-0.3
				c-0.1-0.1-0.2-0.2-0.3-0.2c-0.1-0.1-0.3-0.1-0.4-0.1c-0.1,0-0.3,0-0.4,0.1c-0.1,0-0.2,0.1-0.3,0.2c-0.1,0.1-0.2,0.2-0.2,0.3
				c-0.1,0.1-0.1,0.3-0.1,0.5v0.2c0,0.2,0,0.3,0.1,0.5s0.1,0.3,0.2,0.3c0.1,0.1,0.2,0.2,0.3,0.2S101.9,103.8,102,103.8z"/>
		</g>
		<g id="XMLID_881_">
			<path id="XMLID_1456_" class="st1" d="M105,100.6h1.7v0.6h0.1c0.1-0.2,0.2-0.4,0.4-0.5c0.2-0.1,0.4-0.2,0.7-0.2
				c0.4,0,0.7,0.1,1,0.4c0.2,0.3,0.4,0.6,0.4,1.2v0.2l-1.1,0.1v-0.1c0-0.2-0.1-0.4-0.2-0.5c-0.1-0.1-0.3-0.2-0.5-0.2
				s-0.4,0.1-0.5,0.2c-0.1,0.2-0.2,0.4-0.2,0.7v1.3h0.9v1h-2.8v-1h0.8v-2.1H105V100.6z"/>
		</g>
		<g id="XMLID_879_">
			<path id="XMLID_1453_" class="st1" d="M114.4,104.7h-1v-2.9c0-0.1,0-0.2-0.1-0.3c-0.1-0.1-0.1-0.1-0.2-0.1c-0.1,0-0.2,0-0.3,0.1
				s-0.1,0.2-0.1,0.3v2.8h-1v-2.9c0-0.1,0-0.2-0.1-0.3c-0.1-0.1-0.1-0.1-0.2-0.1c-0.1,0-0.2,0-0.2,0.1c-0.1,0.1-0.1,0.2-0.1,0.3v2.8
				h-1v-4.1h1v0.4h0.1c0-0.1,0.1-0.3,0.2-0.4c0.1-0.1,0.3-0.1,0.5-0.1c0.2,0,0.3,0,0.5,0.1c0.1,0.1,0.2,0.2,0.3,0.4h0.1
				c0-0.1,0.1-0.3,0.3-0.4c0.1-0.1,0.3-0.1,0.5-0.1c0.3,0,0.5,0.1,0.7,0.3c0.2,0.2,0.2,0.4,0.2,0.8V104.7z"/>
		</g>
		<g id="XMLID_877_">
			<path id="XMLID_1450_" class="st1" d="M116,102h2.6v0.9H116V102z"/>
		</g>
		<g id="XMLID_874_">
			<path id="XMLID_1446_" class="st1" d="M123.1,104.1c-0.1,0.3-0.3,0.4-0.5,0.6c-0.2,0.1-0.4,0.2-0.7,0.2c-0.2,0-0.5,0-0.7-0.1
				c-0.2-0.1-0.4-0.2-0.6-0.4c-0.2-0.2-0.3-0.4-0.4-0.7c-0.1-0.3-0.1-0.6-0.1-0.9v-0.1c0-0.3,0-0.6,0.1-0.9c0.1-0.3,0.2-0.5,0.4-0.7
				c0.2-0.2,0.3-0.3,0.6-0.4c0.2-0.1,0.4-0.1,0.7-0.1c0.3,0,0.5,0,0.7,0.1c0.2,0.1,0.3,0.3,0.4,0.5h0.1v-0.5h1v2.9
				c0,0.2,0.1,0.2,0.2,0.2h0.2v1h-0.7c-0.2,0-0.3-0.1-0.5-0.2c-0.1-0.1-0.2-0.3-0.2-0.4H123.1z M122.2,103.8c0.3,0,0.5-0.1,0.7-0.3
				c0.2-0.2,0.3-0.5,0.3-0.8v-0.1c0-0.3-0.1-0.6-0.3-0.8c-0.2-0.2-0.4-0.3-0.7-0.3c-0.3,0-0.5,0.1-0.7,0.3c-0.2,0.2-0.3,0.5-0.3,0.8
				v0.1c0,0.3,0.1,0.6,0.3,0.8C121.6,103.7,121.9,103.8,122.2,103.8z"/>
		</g>
		<g id="XMLID_872_">
			<path id="XMLID_1443_" class="st1" d="M129.6,104.7h-1.8l-0.2-3.1v-0.5h-0.2v0.5l-0.2,3.1h-1.8l-0.3-4.1h1l0.2,3.1v0.5h0.2v-0.5
				l0.2-3.1h1.7l0.2,3.1v0.5h0.2v-0.5l0.2-3.1h1L129.6,104.7z"/>
		</g>
		<g id="XMLID_870_">
			<path id="XMLID_1440_" class="st1" d="M131.9,101.8c0,0.1,0.1,0.2,0.2,0.3c0.1,0.1,0.4,0.1,0.8,0.1c0.4,0,0.8,0.2,1,0.4
				c0.3,0.2,0.4,0.5,0.4,0.9v0c0,0.4-0.1,0.7-0.4,1c-0.3,0.2-0.7,0.4-1.3,0.4c-0.3,0-0.6,0-0.8-0.1c-0.2-0.1-0.4-0.2-0.6-0.3
				c-0.1-0.1-0.3-0.3-0.3-0.4c-0.1-0.2-0.1-0.3-0.2-0.4l1-0.3c0,0.2,0.1,0.3,0.3,0.5c0.1,0.1,0.4,0.2,0.7,0.2c0.3,0,0.4,0,0.5-0.1
				s0.1-0.2,0.1-0.3c0-0.1,0-0.1,0-0.2c0,0-0.1-0.1-0.1-0.1c-0.1,0-0.2-0.1-0.3-0.1c-0.1,0-0.3,0-0.4-0.1c-0.5,0-0.8-0.2-1.1-0.4
				c-0.3-0.2-0.4-0.5-0.4-0.9v0c0-0.2,0-0.4,0.1-0.5c0.1-0.2,0.2-0.3,0.3-0.4c0.1-0.1,0.3-0.2,0.5-0.2c0.2-0.1,0.4-0.1,0.6-0.1
				c0.3,0,0.5,0,0.7,0.1c0.2,0.1,0.4,0.1,0.5,0.2s0.2,0.2,0.3,0.3c0.1,0.1,0.1,0.2,0.2,0.4l-0.9,0.4c0-0.1-0.1-0.3-0.3-0.4
				c-0.1-0.1-0.3-0.1-0.5-0.1c-0.2,0-0.3,0-0.4,0.1C132,101.6,131.9,101.7,131.9,101.8z"/>
		</g>
		<g id="XMLID_868_">
			<path id="XMLID_1437_" class="st1" d="M136.3,102h2.6v0.9h-2.6V102z"/>
		</g>
		<g id="XMLID_865_">
			<path id="XMLID_1433_" class="st1" d="M140.9,103.7h1.4v-2.1H141v-1h2.3v3.1h1.2v1h-3.6V103.7z M143.6,99.4c0,0.1,0,0.2-0.1,0.3
				c0,0.1-0.1,0.2-0.2,0.2c-0.1,0.1-0.2,0.1-0.3,0.2s-0.2,0.1-0.3,0.1c-0.1,0-0.2,0-0.3-0.1c-0.1,0-0.2-0.1-0.2-0.2
				c-0.1-0.1-0.1-0.2-0.2-0.2c0-0.1-0.1-0.2-0.1-0.3c0-0.1,0-0.2,0.1-0.3c0-0.1,0.1-0.2,0.2-0.2c0.1-0.1,0.2-0.1,0.2-0.2
				c0.1,0,0.2-0.1,0.3-0.1c0.1,0,0.2,0,0.3,0.1c0.1,0,0.2,0.1,0.3,0.2c0.1,0.1,0.1,0.2,0.2,0.2C143.5,99.2,143.6,99.3,143.6,99.4z"
				/>
		</g>
		<g id="XMLID_863_">
			<path id="XMLID_1430_" class="st1" d="M146.9,104.7h-1v-4.1h1v0.6h0.1c0.1-0.2,0.2-0.4,0.5-0.5s0.5-0.2,0.7-0.2
				c0.2,0,0.4,0,0.6,0.1c0.2,0.1,0.3,0.2,0.5,0.3c0.1,0.1,0.2,0.3,0.3,0.5c0.1,0.2,0.1,0.4,0.1,0.7v2.6h-1v-2.3
				c0-0.3-0.1-0.5-0.2-0.7c-0.1-0.2-0.3-0.3-0.6-0.3c-0.3,0-0.5,0.1-0.7,0.3c-0.2,0.2-0.2,0.5-0.2,0.8V104.7z"/>
		</g>
		<g id="XMLID_861_">
			<path id="XMLID_1427_" class="st1" d="M150.9,100.6h1.2v-0.8c0-0.2,0.1-0.4,0.2-0.6c0.2-0.2,0.4-0.2,0.6-0.2h1.7v1h-1.2
				c-0.1,0-0.2,0.1-0.2,0.2v0.4h1.6v1h-1.6v3.1h-1v-3.1h-1.2V100.6z"/>
		</g>
		<g id="XMLID_859_">
			<path id="XMLID_1424_" class="st1" d="M155.8,100.6h1.7v0.6h0.1c0.1-0.2,0.2-0.4,0.4-0.5c0.2-0.1,0.4-0.2,0.7-0.2
				c0.4,0,0.7,0.1,1,0.4c0.2,0.3,0.4,0.6,0.4,1.2v0.2l-1.1,0.1v-0.1c0-0.2-0.1-0.4-0.2-0.5c-0.1-0.1-0.3-0.2-0.5-0.2
				c-0.2,0-0.4,0.1-0.5,0.2s-0.2,0.4-0.2,0.7v1.3h0.9v1h-2.8v-1h0.8v-2.1h-0.7V100.6z"/>
		</g>
		<g id="XMLID_856_">
			<path id="XMLID_1420_" class="st1" d="M163.8,104.1c-0.1,0.3-0.3,0.4-0.5,0.6c-0.2,0.1-0.4,0.2-0.7,0.2c-0.2,0-0.5,0-0.7-0.1
				c-0.2-0.1-0.4-0.2-0.6-0.4c-0.2-0.2-0.3-0.4-0.4-0.7s-0.1-0.6-0.1-0.9v-0.1c0-0.3,0-0.6,0.1-0.9c0.1-0.3,0.2-0.5,0.4-0.7
				c0.2-0.2,0.3-0.3,0.6-0.4c0.2-0.1,0.4-0.1,0.7-0.1c0.3,0,0.5,0,0.7,0.1c0.2,0.1,0.3,0.3,0.4,0.5h0.1v-0.5h1v2.9
				c0,0.2,0.1,0.2,0.2,0.2h0.2v1h-0.7c-0.2,0-0.3-0.1-0.5-0.2c-0.1-0.1-0.2-0.3-0.2-0.4H163.8z M162.8,103.8c0.3,0,0.5-0.1,0.7-0.3
				c0.2-0.2,0.3-0.5,0.3-0.8v-0.1c0-0.3-0.1-0.6-0.3-0.8c-0.2-0.2-0.4-0.3-0.7-0.3s-0.5,0.1-0.7,0.3c-0.2,0.2-0.3,0.5-0.3,0.8v0.1
				c0,0.3,0.1,0.6,0.3,0.8C162.3,103.7,162.5,103.8,162.8,103.8z"/>
		</g>
		<g id="XMLID_854_">
			<path id="XMLID_1417_" class="st1" d="M166.8,102h2.6v0.9h-2.6V102z"/>
		</g>
		<g id="XMLID_852_">
			<path id="XMLID_1414_" class="st1" d="M172.6,101.8c0,0.1,0.1,0.2,0.2,0.3c0.1,0.1,0.4,0.1,0.8,0.1c0.4,0,0.8,0.2,1,0.4
				c0.3,0.2,0.4,0.5,0.4,0.9v0c0,0.4-0.1,0.7-0.4,1c-0.3,0.2-0.7,0.4-1.3,0.4c-0.3,0-0.6,0-0.8-0.1c-0.2-0.1-0.4-0.2-0.6-0.3
				c-0.1-0.1-0.3-0.3-0.3-0.4c-0.1-0.2-0.1-0.3-0.2-0.4l1-0.3c0,0.2,0.1,0.3,0.3,0.5c0.1,0.1,0.4,0.2,0.7,0.2c0.3,0,0.4,0,0.5-0.1
				s0.1-0.2,0.1-0.3c0-0.1,0-0.1,0-0.2c0,0-0.1-0.1-0.1-0.1c-0.1,0-0.2-0.1-0.3-0.1c-0.1,0-0.3,0-0.4-0.1c-0.5,0-0.8-0.2-1.1-0.4
				c-0.3-0.2-0.4-0.5-0.4-0.9v0c0-0.2,0-0.4,0.1-0.5c0.1-0.2,0.2-0.3,0.3-0.4s0.3-0.2,0.5-0.2c0.2-0.1,0.4-0.1,0.6-0.1
				c0.3,0,0.5,0,0.7,0.1c0.2,0.1,0.4,0.1,0.5,0.2s0.2,0.2,0.3,0.3c0.1,0.1,0.1,0.2,0.2,0.4l-0.9,0.4c0-0.1-0.1-0.3-0.3-0.4
				c-0.1-0.1-0.3-0.1-0.5-0.1c-0.2,0-0.3,0-0.4,0.1C172.6,101.6,172.6,101.7,172.6,101.8z"/>
		</g>
		<g id="XMLID_850_">
			<path id="XMLID_1411_" class="st1" d="M177.7,102.1h0.2l1.1-1.5h1.1v0l-1.3,1.9v0.1l1.5,2v0h-1.2l-1.2-1.6h-0.2v1.6h-1v-5.8h1
				V102.1z"/>
		</g>
		<g id="XMLID_847_">
			<path id="XMLID_1407_" class="st1" d="M182.4,103c0,0.1,0,0.2,0.1,0.3c0.1,0.1,0.1,0.2,0.2,0.3c0.1,0.1,0.2,0.1,0.3,0.2
				s0.2,0.1,0.4,0.1c0.3,0,0.5,0,0.6-0.1c0.1-0.1,0.2-0.2,0.3-0.3l0.9,0.5c-0.1,0.1-0.1,0.2-0.2,0.3c-0.1,0.1-0.2,0.2-0.3,0.3
				c-0.1,0.1-0.3,0.2-0.5,0.2c-0.2,0.1-0.4,0.1-0.7,0.1c-0.3,0-0.6,0-0.8-0.1c-0.3-0.1-0.5-0.2-0.7-0.4c-0.2-0.2-0.3-0.4-0.4-0.7
				c-0.1-0.3-0.2-0.6-0.2-0.9v0c0-0.3,0.1-0.6,0.2-0.9c0.1-0.3,0.3-0.5,0.4-0.7c0.2-0.2,0.4-0.3,0.7-0.4c0.3-0.1,0.5-0.2,0.8-0.2
				c0.4,0,0.7,0.1,0.9,0.2c0.3,0.1,0.5,0.3,0.6,0.5s0.3,0.4,0.4,0.6c0.1,0.2,0.1,0.5,0.1,0.7v0.6H182.4z M183.3,101.4
				c-0.3,0-0.5,0.1-0.6,0.2c-0.2,0.1-0.3,0.3-0.3,0.5h1.9c0-0.2-0.1-0.4-0.3-0.5C183.8,101.5,183.6,101.4,183.3,101.4z"/>
		</g>
		<g id="XMLID_845_">
			<path id="XMLID_1404_" class="st1" d="M186.5,103.7h1.4v-3.8h-1.4v-1h2.4v4.8h1.3v1h-3.8V103.7z"/>
		</g>
		<g id="XMLID_842_">
			<path id="XMLID_1400_" class="st1" d="M192.5,103c0,0.1,0,0.2,0.1,0.3c0.1,0.1,0.1,0.2,0.2,0.3c0.1,0.1,0.2,0.1,0.3,0.2
				s0.2,0.1,0.4,0.1c0.3,0,0.5,0,0.6-0.1c0.1-0.1,0.2-0.2,0.3-0.3l0.9,0.5c-0.1,0.1-0.1,0.2-0.2,0.3c-0.1,0.1-0.2,0.2-0.3,0.3
				c-0.1,0.1-0.3,0.2-0.5,0.2c-0.2,0.1-0.4,0.1-0.7,0.1c-0.3,0-0.6,0-0.8-0.1c-0.3-0.1-0.5-0.2-0.7-0.4c-0.2-0.2-0.3-0.4-0.4-0.7
				c-0.1-0.3-0.2-0.6-0.2-0.9v0c0-0.3,0.1-0.6,0.2-0.9c0.1-0.3,0.3-0.5,0.4-0.7c0.2-0.2,0.4-0.3,0.7-0.4c0.3-0.1,0.5-0.2,0.8-0.2
				c0.4,0,0.7,0.1,0.9,0.2c0.3,0.1,0.5,0.3,0.6,0.5c0.2,0.2,0.3,0.4,0.4,0.6s0.1,0.5,0.1,0.7v0.6H192.5z M193.5,101.4
				c-0.3,0-0.5,0.1-0.6,0.2c-0.2,0.1-0.3,0.3-0.3,0.5h1.9c0-0.2-0.1-0.4-0.3-0.5C194,101.5,193.8,101.4,193.5,101.4z"/>
		</g>
		<g id="XMLID_840_">
			<path id="XMLID_1397_" class="st1" d="M196.6,100.6h1.2v-1.7h1v1.7h1.5v1h-1.5v1.9c0,0.2,0.1,0.2,0.2,0.2h1.1v1h-1.7
				c-0.2,0-0.3-0.1-0.5-0.2c-0.1-0.1-0.2-0.3-0.2-0.5v-2.5h-1.2V100.6z"/>
		</g>
		<g id="XMLID_837_">
			<path id="XMLID_1393_" class="st1" d="M205.8,102.7c0,0.3-0.1,0.6-0.2,0.9c-0.1,0.3-0.3,0.5-0.5,0.7c-0.2,0.2-0.4,0.3-0.7,0.4
				c-0.3,0.1-0.5,0.1-0.8,0.1c-0.3,0-0.6,0-0.8-0.1c-0.3-0.1-0.5-0.2-0.7-0.4c-0.2-0.2-0.4-0.4-0.5-0.7c-0.1-0.3-0.2-0.6-0.2-0.9
				v-0.1c0-0.3,0.1-0.6,0.2-0.9c0.1-0.3,0.3-0.5,0.5-0.7c0.2-0.2,0.4-0.3,0.7-0.4s0.5-0.1,0.8-0.1c0.3,0,0.6,0,0.8,0.1
				s0.5,0.2,0.7,0.4c0.2,0.2,0.4,0.4,0.5,0.7C205.7,102,205.8,102.3,205.8,102.7L205.8,102.7z M203.7,103.8c0.1,0,0.3,0,0.4-0.1
				s0.2-0.1,0.3-0.2c0.1-0.1,0.2-0.2,0.2-0.3c0.1-0.1,0.1-0.3,0.1-0.5v-0.2c0-0.2,0-0.3-0.1-0.5c-0.1-0.1-0.1-0.3-0.2-0.3
				c-0.1-0.1-0.2-0.2-0.3-0.2c-0.1-0.1-0.3-0.1-0.4-0.1c-0.1,0-0.3,0-0.4,0.1c-0.1,0-0.2,0.1-0.3,0.2c-0.1,0.1-0.2,0.2-0.2,0.3
				c-0.1,0.1-0.1,0.3-0.1,0.5v0.2c0,0.2,0,0.3,0.1,0.5s0.1,0.3,0.2,0.3c0.1,0.1,0.2,0.2,0.3,0.2
				C203.4,103.8,203.5,103.8,203.7,103.8z"/>
		</g>
		<g id="XMLID_835_">
			<path id="XMLID_1390_" class="st1" d="M207.9,104.7h-1v-4.1h1v0.6h0.1c0.1-0.2,0.2-0.4,0.5-0.5s0.5-0.2,0.7-0.2
				c0.2,0,0.4,0,0.6,0.1c0.2,0.1,0.3,0.2,0.5,0.3c0.1,0.1,0.2,0.3,0.3,0.5c0.1,0.2,0.1,0.4,0.1,0.7v2.6h-1v-2.3
				c0-0.3-0.1-0.5-0.2-0.7c-0.1-0.2-0.3-0.3-0.6-0.3c-0.3,0-0.5,0.1-0.7,0.3c-0.2,0.2-0.2,0.5-0.2,0.8V104.7z"/>
		</g>
		<g id="XMLID_833_">
			<path id="XMLID_1387_" class="st1" d="M216.8,100.6h1.7v0.6h0.1c0.1-0.2,0.2-0.4,0.4-0.5c0.2-0.1,0.4-0.2,0.7-0.2
				c0.4,0,0.7,0.1,1,0.4c0.2,0.3,0.4,0.6,0.4,1.2v0.2l-1.1,0.1v-0.1c0-0.2-0.1-0.4-0.2-0.5c-0.1-0.1-0.3-0.2-0.5-0.2
				s-0.4,0.1-0.5,0.2s-0.2,0.4-0.2,0.7v1.3h0.9v1h-2.8v-1h0.8v-2.1h-0.7V100.6z"/>
		</g>
		<g id="XMLID_830_">
			<path id="XMLID_1383_" class="st1" d="M223,103c0,0.1,0,0.2,0.1,0.3c0.1,0.1,0.1,0.2,0.2,0.3c0.1,0.1,0.2,0.1,0.3,0.2
				c0.1,0,0.2,0.1,0.4,0.1c0.3,0,0.5,0,0.6-0.1c0.1-0.1,0.2-0.2,0.3-0.3l0.9,0.5c-0.1,0.1-0.1,0.2-0.2,0.3c-0.1,0.1-0.2,0.2-0.3,0.3
				c-0.1,0.1-0.3,0.2-0.5,0.2c-0.2,0.1-0.4,0.1-0.7,0.1c-0.3,0-0.6,0-0.8-0.1c-0.3-0.1-0.5-0.2-0.7-0.4c-0.2-0.2-0.3-0.4-0.4-0.7
				c-0.1-0.3-0.2-0.6-0.2-0.9v0c0-0.3,0.1-0.6,0.2-0.9c0.1-0.3,0.3-0.5,0.4-0.7c0.2-0.2,0.4-0.3,0.7-0.4c0.3-0.1,0.5-0.2,0.8-0.2
				c0.4,0,0.7,0.1,0.9,0.2c0.3,0.1,0.5,0.3,0.6,0.5s0.3,0.4,0.4,0.6c0.1,0.2,0.1,0.5,0.1,0.7v0.6H223z M224,101.4
				c-0.3,0-0.5,0.1-0.6,0.2c-0.2,0.1-0.3,0.3-0.3,0.5h1.9c0-0.2-0.1-0.4-0.3-0.5C224.5,101.5,224.3,101.4,224,101.4z"/>
		</g>
		<g id="XMLID_827_">
			<path id="XMLID_1379_" class="st1" d="M228,106.4h-1v-5.8h1v0.6h0.1c0.1-0.2,0.3-0.4,0.5-0.5c0.2-0.1,0.5-0.2,0.8-0.2
				c0.2,0,0.5,0,0.7,0.1c0.2,0.1,0.4,0.2,0.6,0.4s0.3,0.4,0.4,0.7c0.1,0.3,0.1,0.6,0.1,0.9v0.1c0,0.3,0,0.6-0.1,0.9
				c-0.1,0.3-0.2,0.5-0.4,0.7c-0.2,0.2-0.4,0.3-0.6,0.4c-0.2,0.1-0.5,0.1-0.7,0.1c-0.2,0-0.4,0-0.5-0.1c-0.1,0-0.3-0.1-0.4-0.2
				c-0.1-0.1-0.2-0.1-0.3-0.2c-0.1-0.1-0.1-0.2-0.2-0.3H228V106.4z M229.1,103.8c0.3,0,0.6-0.1,0.8-0.3c0.2-0.2,0.3-0.5,0.3-0.8
				v-0.1c0-0.3-0.1-0.6-0.3-0.8c-0.2-0.2-0.5-0.3-0.8-0.3c-0.3,0-0.6,0.1-0.8,0.3c-0.2,0.2-0.3,0.5-0.3,0.8v0.1
				c0,0.3,0.1,0.6,0.3,0.8C228.5,103.7,228.8,103.8,229.1,103.8z"/>
		</g>
		<g id="XMLID_824_">
			<path id="XMLID_1375_" class="st1" d="M236.3,102.7c0,0.3-0.1,0.6-0.2,0.9c-0.1,0.3-0.3,0.5-0.5,0.7c-0.2,0.2-0.4,0.3-0.7,0.4
				c-0.3,0.1-0.5,0.1-0.8,0.1c-0.3,0-0.6,0-0.8-0.1c-0.3-0.1-0.5-0.2-0.7-0.4c-0.2-0.2-0.4-0.4-0.5-0.7c-0.1-0.3-0.2-0.6-0.2-0.9
				v-0.1c0-0.3,0.1-0.6,0.2-0.9c0.1-0.3,0.3-0.5,0.5-0.7c0.2-0.2,0.4-0.3,0.7-0.4s0.5-0.1,0.8-0.1c0.3,0,0.6,0,0.8,0.1
				s0.5,0.2,0.7,0.4c0.2,0.2,0.4,0.4,0.5,0.7C236.2,102,236.3,102.3,236.3,102.7L236.3,102.7z M234.1,103.8c0.1,0,0.3,0,0.4-0.1
				s0.2-0.1,0.3-0.2c0.1-0.1,0.2-0.2,0.2-0.3s0.1-0.3,0.1-0.5v-0.2c0-0.2,0-0.3-0.1-0.5c-0.1-0.1-0.1-0.3-0.2-0.3
				c-0.1-0.1-0.2-0.2-0.3-0.2c-0.1-0.1-0.3-0.1-0.4-0.1c-0.1,0-0.3,0-0.4,0.1c-0.1,0-0.2,0.1-0.3,0.2c-0.1,0.1-0.2,0.2-0.2,0.3
				c-0.1,0.1-0.1,0.3-0.1,0.5v0.2c0,0.2,0,0.3,0.1,0.5c0.1,0.1,0.1,0.3,0.2,0.3c0.1,0.1,0.2,0.2,0.3,0.2S234,103.8,234.1,103.8z"/>
		</g>
		<g id="XMLID_822_">
			<path id="XMLID_1372_" class="st1" d="M238.6,101.8c0,0.1,0.1,0.2,0.2,0.3c0.1,0.1,0.4,0.1,0.8,0.1c0.4,0,0.8,0.2,1,0.4
				c0.3,0.2,0.4,0.5,0.4,0.9v0c0,0.4-0.1,0.7-0.4,1c-0.3,0.2-0.7,0.4-1.3,0.4c-0.3,0-0.6,0-0.8-0.1c-0.2-0.1-0.4-0.2-0.6-0.3
				c-0.1-0.1-0.3-0.3-0.3-0.4c-0.1-0.2-0.1-0.3-0.2-0.4l1-0.3c0,0.2,0.1,0.3,0.3,0.5c0.1,0.1,0.4,0.2,0.7,0.2c0.3,0,0.4,0,0.5-0.1
				c0.1-0.1,0.1-0.2,0.1-0.3c0-0.1,0-0.1,0-0.2c0,0-0.1-0.1-0.1-0.1c-0.1,0-0.2-0.1-0.3-0.1c-0.1,0-0.3,0-0.4-0.1
				c-0.5,0-0.8-0.2-1.1-0.4c-0.3-0.2-0.4-0.5-0.4-0.9v0c0-0.2,0-0.4,0.1-0.5c0.1-0.2,0.2-0.3,0.3-0.4s0.3-0.2,0.5-0.2
				c0.2-0.1,0.4-0.1,0.6-0.1c0.3,0,0.5,0,0.7,0.1c0.2,0.1,0.4,0.1,0.5,0.2c0.1,0.1,0.2,0.2,0.3,0.3c0.1,0.1,0.1,0.2,0.2,0.4
				l-0.9,0.4c0-0.1-0.1-0.3-0.3-0.4c-0.1-0.1-0.3-0.1-0.5-0.1c-0.2,0-0.3,0-0.4,0.1C238.7,101.6,238.6,101.7,238.6,101.8z"/>
		</g>
		<g id="XMLID_819_">
			<path id="XMLID_1368_" class="st1" d="M242.5,103.7h1.4v-2.1h-1.3v-1h2.3v3.1h1.2v1h-3.6V103.7z M245.2,99.4c0,0.1,0,0.2-0.1,0.3
				c0,0.1-0.1,0.2-0.2,0.2c-0.1,0.1-0.2,0.1-0.3,0.2s-0.2,0.1-0.3,0.1c-0.1,0-0.2,0-0.3-0.1c-0.1,0-0.2-0.1-0.2-0.2
				c-0.1-0.1-0.1-0.2-0.2-0.2c0-0.1-0.1-0.2-0.1-0.3c0-0.1,0-0.2,0.1-0.3c0-0.1,0.1-0.2,0.2-0.2c0.1-0.1,0.2-0.1,0.2-0.2
				c0.1,0,0.2-0.1,0.3-0.1c0.1,0,0.2,0,0.3,0.1c0.1,0,0.2,0.1,0.3,0.2c0.1,0.1,0.1,0.2,0.2,0.2C245.2,99.2,245.2,99.3,245.2,99.4z"
				/>
		</g>
		<g id="XMLID_817_">
			<path id="XMLID_1365_" class="st1" d="M247.4,100.6h1.2v-1.7h1v1.7h1.5v1h-1.5v1.9c0,0.2,0.1,0.2,0.2,0.2h1.1v1h-1.7
				c-0.2,0-0.3-0.1-0.5-0.2c-0.1-0.1-0.2-0.3-0.2-0.5v-2.5h-1.2V100.6z"/>
		</g>
		<g id="XMLID_814_">
			<path id="XMLID_1361_" class="st1" d="M256.6,102.7c0,0.3-0.1,0.6-0.2,0.9c-0.1,0.3-0.3,0.5-0.5,0.7c-0.2,0.2-0.4,0.3-0.7,0.4
				c-0.3,0.1-0.5,0.1-0.8,0.1c-0.3,0-0.6,0-0.8-0.1c-0.3-0.1-0.5-0.2-0.7-0.4c-0.2-0.2-0.4-0.4-0.5-0.7c-0.1-0.3-0.2-0.6-0.2-0.9
				v-0.1c0-0.3,0.1-0.6,0.2-0.9c0.1-0.3,0.3-0.5,0.5-0.7c0.2-0.2,0.4-0.3,0.7-0.4s0.5-0.1,0.8-0.1c0.3,0,0.6,0,0.8,0.1
				s0.5,0.2,0.7,0.4c0.2,0.2,0.4,0.4,0.5,0.7C256.6,102,256.6,102.3,256.6,102.7L256.6,102.7z M254.5,103.8c0.1,0,0.3,0,0.4-0.1
				s0.2-0.1,0.3-0.2c0.1-0.1,0.2-0.2,0.2-0.3c0.1-0.1,0.1-0.3,0.1-0.5v-0.2c0-0.2,0-0.3-0.1-0.5c-0.1-0.1-0.1-0.3-0.2-0.3
				c-0.1-0.1-0.2-0.2-0.3-0.2c-0.1-0.1-0.3-0.1-0.4-0.1c-0.1,0-0.3,0-0.4,0.1c-0.1,0-0.2,0.1-0.3,0.2c-0.1,0.1-0.2,0.2-0.2,0.3
				c-0.1,0.1-0.1,0.3-0.1,0.5v0.2c0,0.2,0,0.3,0.1,0.5s0.1,0.3,0.2,0.3c0.1,0.1,0.2,0.2,0.3,0.2
				C254.2,103.8,254.3,103.8,254.5,103.8z"/>
		</g>
		<g id="XMLID_812_">
			<path id="XMLID_1358_" class="st1" d="M257.5,100.6h1.7v0.6h0.1c0.1-0.2,0.2-0.4,0.4-0.5c0.2-0.1,0.4-0.2,0.7-0.2
				c0.4,0,0.7,0.1,1,0.4c0.2,0.3,0.4,0.6,0.4,1.2v0.2l-1.1,0.1v-0.1c0-0.2-0.1-0.4-0.2-0.5c-0.1-0.1-0.3-0.2-0.5-0.2
				s-0.4,0.1-0.5,0.2c-0.1,0.2-0.2,0.4-0.2,0.7v1.3h0.9v1h-2.8v-1h0.8v-2.1h-0.7V100.6z"/>
		</g>
		<g id="XMLID_810_">
			<path id="XMLID_1355_" class="st1" d="M265.5,100.6h1v5.1c0,0.2-0.1,0.3-0.2,0.5c-0.1,0.1-0.3,0.2-0.5,0.2h-2.4v-1h1.8
				c0.1,0,0.2-0.1,0.2-0.2v-1h-0.1c-0.2,0.5-0.6,0.7-1.2,0.7c-0.2,0-0.4,0-0.6-0.1c-0.2-0.1-0.3-0.2-0.5-0.3
				c-0.1-0.1-0.2-0.3-0.3-0.5c-0.1-0.2-0.1-0.5-0.1-0.7v-2.6h1v2.4c0,0.3,0.1,0.5,0.2,0.7c0.1,0.2,0.3,0.2,0.6,0.2
				c0.3,0,0.5-0.1,0.7-0.3c0.1-0.2,0.2-0.5,0.2-0.8V100.6z"/>
		</g>
	</g>
	<g id="XMLID_754_">
		<g id="XMLID_807_">
			<path id="XMLID_1351_" class="st1" d="M107.6,196.6h1.2v-1.7h1v1.7h1.5v1h-1.5v1.9c0,0.2,0.1,0.2,0.2,0.2h1.1v1h-1.7
				c-0.2,0-0.3-0.1-0.5-0.2c-0.1-0.1-0.2-0.3-0.2-0.5v-2.5h-1.2V196.6z"/>
		</g>
		<g id="XMLID_804_">
			<path id="XMLID_1347_" class="st1" d="M113.7,199c0,0.1,0,0.2,0.1,0.3c0.1,0.1,0.1,0.2,0.2,0.3c0.1,0.1,0.2,0.1,0.3,0.2
				c0.1,0,0.2,0.1,0.4,0.1c0.3,0,0.5,0,0.6-0.1c0.1-0.1,0.2-0.2,0.3-0.3l0.9,0.5c-0.1,0.1-0.1,0.2-0.2,0.3s-0.2,0.2-0.3,0.3
				c-0.1,0.1-0.3,0.2-0.5,0.2c-0.2,0.1-0.4,0.1-0.7,0.1c-0.3,0-0.6,0-0.8-0.1c-0.3-0.1-0.5-0.2-0.7-0.4c-0.2-0.2-0.3-0.4-0.4-0.7
				s-0.2-0.6-0.2-0.9v0c0-0.3,0.1-0.6,0.2-0.9c0.1-0.3,0.3-0.5,0.4-0.7c0.2-0.2,0.4-0.3,0.7-0.4c0.3-0.1,0.5-0.2,0.8-0.2
				c0.4,0,0.7,0.1,0.9,0.2c0.3,0.1,0.5,0.3,0.6,0.5c0.2,0.2,0.3,0.4,0.4,0.6c0.1,0.2,0.1,0.5,0.1,0.7v0.6H113.7z M114.7,197.4
				c-0.3,0-0.5,0.1-0.6,0.2c-0.2,0.1-0.3,0.3-0.3,0.5h1.9c0-0.2-0.1-0.4-0.3-0.5C115.2,197.5,115,197.4,114.7,197.4z"/>
		</g>
		<g id="XMLID_802_">
			<path id="XMLID_1344_" class="st1" d="M117.7,196.6h1.7v0.6h0.1c0.1-0.2,0.2-0.4,0.4-0.5c0.2-0.1,0.4-0.2,0.7-0.2
				c0.4,0,0.7,0.1,1,0.4c0.2,0.3,0.4,0.6,0.4,1.2v0.2l-1.1,0.1v-0.1c0-0.2-0.1-0.4-0.2-0.5c-0.1-0.1-0.3-0.2-0.5-0.2
				c-0.2,0-0.4,0.1-0.5,0.2s-0.2,0.4-0.2,0.7v1.3h0.9v1h-2.8v-1h0.8v-2.1h-0.7V196.6z"/>
		</g>
		<g id="XMLID_800_">
			<path id="XMLID_1341_" class="st1" d="M122.7,196.6h1.7v0.6h0.1c0.1-0.2,0.2-0.4,0.4-0.5c0.2-0.1,0.4-0.2,0.7-0.2
				c0.4,0,0.7,0.1,1,0.4c0.2,0.3,0.4,0.6,0.4,1.2v0.2l-1.1,0.1v-0.1c0-0.2-0.1-0.4-0.2-0.5c-0.1-0.1-0.3-0.2-0.5-0.2
				c-0.2,0-0.4,0.1-0.5,0.2c-0.1,0.2-0.2,0.4-0.2,0.7v1.3h0.9v1h-2.8v-1h0.8v-2.1h-0.7V196.6z"/>
		</g>
		<g id="XMLID_797_">
			<path id="XMLID_1337_" class="st1" d="M130.7,200.1c-0.1,0.3-0.3,0.4-0.5,0.6c-0.2,0.1-0.4,0.2-0.7,0.2c-0.2,0-0.5,0-0.7-0.1
				c-0.2-0.1-0.4-0.2-0.6-0.4c-0.2-0.2-0.3-0.4-0.4-0.7s-0.1-0.6-0.1-0.9v-0.1c0-0.3,0-0.6,0.1-0.9c0.1-0.3,0.2-0.5,0.4-0.7
				c0.2-0.2,0.3-0.3,0.6-0.4c0.2-0.1,0.4-0.1,0.7-0.1c0.3,0,0.5,0,0.7,0.1c0.2,0.1,0.3,0.3,0.4,0.5h0.1v-0.5h1v2.9
				c0,0.2,0.1,0.2,0.2,0.2h0.2v1h-0.7c-0.2,0-0.3-0.1-0.5-0.2c-0.1-0.1-0.2-0.3-0.2-0.4H130.7z M129.8,199.8c0.3,0,0.5-0.1,0.7-0.3
				c0.2-0.2,0.3-0.5,0.3-0.8v-0.1c0-0.3-0.1-0.6-0.3-0.8c-0.2-0.2-0.4-0.3-0.7-0.3c-0.3,0-0.5,0.1-0.7,0.3c-0.2,0.2-0.3,0.5-0.3,0.8
				v0.1c0,0.3,0.1,0.6,0.3,0.8C129.2,199.7,129.5,199.8,129.8,199.8z"/>
		</g>
		<g id="XMLID_795_">
			<path id="XMLID_1334_" class="st1" d="M133.1,196.6h1.2v-0.8c0-0.2,0.1-0.4,0.2-0.6c0.2-0.2,0.4-0.2,0.6-0.2h1.7v1h-1.2
				c-0.1,0-0.2,0.1-0.2,0.2v0.4h1.6v1h-1.6v3.1h-1v-3.1h-1.2V196.6z"/>
		</g>
		<g id="XMLID_792_">
			<path id="XMLID_1330_" class="st1" d="M142.2,198.7c0,0.3-0.1,0.6-0.2,0.9c-0.1,0.3-0.3,0.5-0.5,0.7c-0.2,0.2-0.4,0.3-0.7,0.4
				c-0.3,0.1-0.5,0.1-0.8,0.1c-0.3,0-0.6,0-0.8-0.1c-0.3-0.1-0.5-0.2-0.7-0.4c-0.2-0.2-0.4-0.4-0.5-0.7c-0.1-0.3-0.2-0.6-0.2-0.9
				v-0.1c0-0.3,0.1-0.6,0.2-0.9c0.1-0.3,0.3-0.5,0.5-0.7c0.2-0.2,0.4-0.3,0.7-0.4c0.3-0.1,0.5-0.1,0.8-0.1c0.3,0,0.6,0,0.8,0.1
				c0.3,0.1,0.5,0.2,0.7,0.4c0.2,0.2,0.4,0.4,0.5,0.7C142.2,198,142.2,198.3,142.2,198.7L142.2,198.7z M140.1,199.8
				c0.1,0,0.3,0,0.4-0.1c0.1,0,0.2-0.1,0.3-0.2c0.1-0.1,0.2-0.2,0.2-0.3c0.1-0.1,0.1-0.3,0.1-0.5v-0.2c0-0.2,0-0.3-0.1-0.5
				c-0.1-0.1-0.1-0.3-0.2-0.3c-0.1-0.1-0.2-0.2-0.3-0.2c-0.1-0.1-0.3-0.1-0.4-0.1c-0.1,0-0.3,0-0.4,0.1c-0.1,0-0.2,0.1-0.3,0.2
				c-0.1,0.1-0.2,0.2-0.2,0.3c-0.1,0.1-0.1,0.3-0.1,0.5v0.2c0,0.2,0,0.3,0.1,0.5c0.1,0.1,0.1,0.3,0.2,0.3c0.1,0.1,0.2,0.2,0.3,0.2
				C139.8,199.8,139.9,199.8,140.1,199.8z"/>
		</g>
		<g id="XMLID_790_">
			<path id="XMLID_1327_" class="st1" d="M143.1,196.6h1.7v0.6h0.1c0.1-0.2,0.2-0.4,0.4-0.5c0.2-0.1,0.4-0.2,0.7-0.2
				c0.4,0,0.7,0.1,1,0.4c0.2,0.3,0.4,0.6,0.4,1.2v0.2l-1.1,0.1v-0.1c0-0.2-0.1-0.4-0.2-0.5c-0.1-0.1-0.3-0.2-0.5-0.2
				c-0.2,0-0.4,0.1-0.5,0.2s-0.2,0.4-0.2,0.7v1.3h0.9v1H143v-1h0.8v-2.1h-0.7V196.6z"/>
		</g>
		<g id="XMLID_788_">
			<path id="XMLID_1324_" class="st1" d="M152.5,200.7h-1v-2.9c0-0.1,0-0.2-0.1-0.3c-0.1-0.1-0.1-0.1-0.2-0.1c-0.1,0-0.2,0-0.3,0.1
				c-0.1,0.1-0.1,0.2-0.1,0.3v2.8h-1v-2.9c0-0.1,0-0.2-0.1-0.3c-0.1-0.1-0.1-0.1-0.2-0.1c-0.1,0-0.2,0-0.2,0.1
				c-0.1,0.1-0.1,0.2-0.1,0.3v2.8h-1v-4.1h1v0.4h0.1c0-0.1,0.1-0.3,0.2-0.4c0.1-0.1,0.3-0.1,0.5-0.1c0.2,0,0.3,0,0.5,0.1
				c0.1,0.1,0.2,0.2,0.3,0.4h0.1c0-0.1,0.1-0.3,0.3-0.4c0.1-0.1,0.3-0.1,0.5-0.1c0.3,0,0.5,0.1,0.7,0.3c0.2,0.2,0.2,0.4,0.2,0.8
				V200.7z"/>
		</g>
		<g id="XMLID_786_">
			<path id="XMLID_1321_" class="st1" d="M154,198h2.6v0.9H154V198z"/>
		</g>
		<g id="XMLID_783_">
			<path id="XMLID_1317_" class="st1" d="M161.2,200.1c-0.1,0.3-0.3,0.4-0.5,0.6c-0.2,0.1-0.4,0.2-0.7,0.2c-0.2,0-0.5,0-0.7-0.1
				c-0.2-0.1-0.4-0.2-0.6-0.4c-0.2-0.2-0.3-0.4-0.4-0.7s-0.1-0.6-0.1-0.9v-0.1c0-0.3,0-0.6,0.1-0.9c0.1-0.3,0.2-0.5,0.4-0.7
				c0.2-0.2,0.3-0.3,0.6-0.4c0.2-0.1,0.4-0.1,0.7-0.1c0.3,0,0.5,0,0.7,0.1s0.3,0.3,0.4,0.5h0.1v-0.5h1v2.9c0,0.2,0.1,0.2,0.2,0.2
				h0.2v1H162c-0.2,0-0.3-0.1-0.5-0.2c-0.1-0.1-0.2-0.3-0.2-0.4H161.2z M160.3,199.8c0.3,0,0.5-0.1,0.7-0.3c0.2-0.2,0.3-0.5,0.3-0.8
				v-0.1c0-0.3-0.1-0.6-0.3-0.8c-0.2-0.2-0.4-0.3-0.7-0.3s-0.5,0.1-0.7,0.3c-0.2,0.2-0.3,0.5-0.3,0.8v0.1c0,0.3,0.1,0.6,0.3,0.8
				C159.7,199.7,159.9,199.8,160.3,199.8z"/>
		</g>
		<g id="XMLID_781_">
			<path id="XMLID_1314_" class="st1" d="M167.6,200.7h-1.8l-0.2-3.1v-0.5h-0.2v0.5l-0.2,3.1h-1.8l-0.3-4.1h1l0.2,3.1v0.5h0.2v-0.5
				l0.2-3.1h1.7l0.2,3.1v0.5h0.2v-0.5l0.2-3.1h1L167.6,200.7z"/>
		</g>
		<g id="XMLID_779_">
			<path id="XMLID_1311_" class="st1" d="M170,197.8c0,0.1,0.1,0.2,0.2,0.3c0.1,0.1,0.4,0.1,0.8,0.1c0.4,0,0.8,0.2,1,0.4
				c0.3,0.2,0.4,0.5,0.4,0.9v0c0,0.4-0.1,0.7-0.4,1c-0.3,0.2-0.7,0.4-1.3,0.4c-0.3,0-0.6,0-0.8-0.1c-0.2-0.1-0.4-0.2-0.6-0.3
				c-0.1-0.1-0.3-0.3-0.3-0.4c-0.1-0.2-0.1-0.3-0.2-0.4l1-0.3c0,0.2,0.1,0.3,0.3,0.5c0.1,0.1,0.4,0.2,0.7,0.2c0.3,0,0.4,0,0.5-0.1
				s0.1-0.2,0.1-0.3c0-0.1,0-0.1,0-0.2c0,0-0.1-0.1-0.1-0.1c-0.1,0-0.2-0.1-0.3-0.1s-0.3,0-0.4-0.1c-0.5,0-0.8-0.2-1.1-0.4
				c-0.3-0.2-0.4-0.5-0.4-0.9v0c0-0.2,0-0.4,0.1-0.5c0.1-0.2,0.2-0.3,0.3-0.4c0.1-0.1,0.3-0.2,0.5-0.2c0.2-0.1,0.4-0.1,0.6-0.1
				c0.3,0,0.5,0,0.7,0.1c0.2,0.1,0.4,0.1,0.5,0.2c0.1,0.1,0.2,0.2,0.3,0.3c0.1,0.1,0.1,0.2,0.2,0.4l-0.9,0.4c0-0.1-0.1-0.3-0.3-0.4
				c-0.1-0.1-0.3-0.1-0.5-0.1c-0.2,0-0.3,0-0.4,0.1C170,197.6,170,197.7,170,197.8z"/>
		</g>
		<g id="XMLID_777_">
			<path id="XMLID_1308_" class="st1" d="M174.4,198h2.6v0.9h-2.6V198z"/>
		</g>
		<g id="XMLID_775_">
			<path id="XMLID_1305_" class="st1" d="M178.6,196.6h1.1l1,3.6h0.1l1-3.6h1.1l-1.2,4.1h-2L178.6,196.6z"/>
		</g>
		<g id="XMLID_772_">
			<path id="XMLID_1301_" class="st1" d="M184.8,202.4h-1v-5.8h1v0.6h0.1c0.1-0.2,0.3-0.4,0.5-0.5c0.2-0.1,0.5-0.2,0.8-0.2
				c0.2,0,0.5,0,0.7,0.1c0.2,0.1,0.4,0.2,0.6,0.4c0.2,0.2,0.3,0.4,0.4,0.7c0.1,0.3,0.1,0.6,0.1,0.9v0.1c0,0.3,0,0.6-0.1,0.9
				c-0.1,0.3-0.2,0.5-0.4,0.7c-0.2,0.2-0.4,0.3-0.6,0.4c-0.2,0.1-0.5,0.1-0.7,0.1c-0.2,0-0.4,0-0.5-0.1c-0.1,0-0.3-0.1-0.4-0.2
				s-0.2-0.1-0.3-0.2c-0.1-0.1-0.1-0.2-0.2-0.3h-0.1V202.4z M185.9,199.8c0.3,0,0.6-0.1,0.8-0.3c0.2-0.2,0.3-0.5,0.3-0.8v-0.1
				c0-0.3-0.1-0.6-0.3-0.8c-0.2-0.2-0.5-0.3-0.8-0.3c-0.3,0-0.6,0.1-0.8,0.3c-0.2,0.2-0.3,0.5-0.3,0.8v0.1c0,0.3,0.1,0.6,0.3,0.8
				C185.3,199.7,185.5,199.8,185.9,199.8z"/>
		</g>
		<g id="XMLID_770_">
			<path id="XMLID_1298_" class="st1" d="M193,199.2c-0.1,0.5-0.3,0.9-0.7,1.2c-0.4,0.3-0.8,0.4-1.4,0.4c-0.3,0-0.6,0-0.9-0.1
				c-0.3-0.1-0.5-0.2-0.7-0.4c-0.2-0.2-0.3-0.4-0.5-0.7c-0.1-0.3-0.2-0.6-0.2-0.9v-0.1c0-0.3,0.1-0.6,0.2-0.9
				c0.1-0.3,0.3-0.5,0.5-0.7c0.2-0.2,0.4-0.3,0.7-0.4c0.3-0.1,0.5-0.1,0.8-0.1c0.6,0,1,0.1,1.4,0.4c0.4,0.3,0.6,0.7,0.7,1.2l-1,0.3
				c0-0.2-0.1-0.5-0.3-0.6c-0.2-0.2-0.4-0.3-0.7-0.3c-0.1,0-0.3,0-0.4,0.1c-0.1,0.1-0.2,0.1-0.3,0.2c-0.1,0.1-0.2,0.2-0.2,0.4
				c-0.1,0.1-0.1,0.3-0.1,0.5v0c0,0.2,0,0.3,0.1,0.5c0.1,0.1,0.1,0.3,0.2,0.4c0.1,0.1,0.2,0.2,0.3,0.2c0.1,0,0.3,0.1,0.4,0.1
				c0.3,0,0.6-0.1,0.7-0.2s0.3-0.4,0.3-0.6L193,199.2z"/>
		</g>
		<g id="XMLID_768_">
			<path id="XMLID_1295_" class="st1" d="M203.3,200.7h-1v-2.9c0-0.1,0-0.2-0.1-0.3c-0.1-0.1-0.1-0.1-0.2-0.1c-0.1,0-0.2,0-0.3,0.1
				c-0.1,0.1-0.1,0.2-0.1,0.3v2.8h-1v-2.9c0-0.1,0-0.2-0.1-0.3c-0.1-0.1-0.1-0.1-0.2-0.1c-0.1,0-0.2,0-0.2,0.1
				c-0.1,0.1-0.1,0.2-0.1,0.3v2.8h-1v-4.1h1v0.4h0.1c0-0.1,0.1-0.3,0.2-0.4c0.1-0.1,0.3-0.1,0.5-0.1c0.2,0,0.3,0,0.5,0.1
				c0.1,0.1,0.2,0.2,0.3,0.4h0.1c0-0.1,0.1-0.3,0.3-0.4c0.1-0.1,0.3-0.1,0.5-0.1c0.3,0,0.5,0.1,0.7,0.3c0.2,0.2,0.2,0.4,0.2,0.8
				V200.7z"/>
		</g>
		<g id="XMLID_765_">
			<path id="XMLID_1291_" class="st1" d="M208.3,198.7c0,0.3-0.1,0.6-0.2,0.9c-0.1,0.3-0.3,0.5-0.5,0.7c-0.2,0.2-0.4,0.3-0.7,0.4
				c-0.3,0.1-0.5,0.1-0.8,0.1c-0.3,0-0.6,0-0.8-0.1c-0.3-0.1-0.5-0.2-0.7-0.4c-0.2-0.2-0.4-0.4-0.5-0.7c-0.1-0.3-0.2-0.6-0.2-0.9
				v-0.1c0-0.3,0.1-0.6,0.2-0.9c0.1-0.3,0.3-0.5,0.5-0.7c0.2-0.2,0.4-0.3,0.7-0.4c0.3-0.1,0.5-0.1,0.8-0.1c0.3,0,0.6,0,0.8,0.1
				c0.3,0.1,0.5,0.2,0.7,0.4c0.2,0.2,0.4,0.4,0.5,0.7C208.2,198,208.3,198.3,208.3,198.7L208.3,198.7z M206.1,199.8
				c0.1,0,0.3,0,0.4-0.1s0.2-0.1,0.3-0.2c0.1-0.1,0.2-0.2,0.2-0.3c0.1-0.1,0.1-0.3,0.1-0.5v-0.2c0-0.2,0-0.3-0.1-0.5
				c-0.1-0.1-0.1-0.3-0.2-0.3c-0.1-0.1-0.2-0.2-0.3-0.2c-0.1-0.1-0.3-0.1-0.4-0.1c-0.1,0-0.3,0-0.4,0.1c-0.1,0-0.2,0.1-0.3,0.2
				c-0.1,0.1-0.2,0.2-0.2,0.3c-0.1,0.1-0.1,0.3-0.1,0.5v0.2c0,0.2,0,0.3,0.1,0.5c0.1,0.1,0.1,0.3,0.2,0.3c0.1,0.1,0.2,0.2,0.3,0.2
				S206,199.8,206.1,199.8z"/>
		</g>
		<g id="XMLID_762_">
			<path id="XMLID_1287_" class="st1" d="M212.3,200.1h-0.1c0,0.1-0.1,0.2-0.2,0.3c-0.1,0.1-0.1,0.2-0.2,0.2
				c-0.1,0.1-0.2,0.1-0.4,0.2c-0.1,0-0.3,0.1-0.5,0.1c-0.3,0-0.5,0-0.7-0.1c-0.2-0.1-0.4-0.2-0.6-0.4s-0.3-0.4-0.4-0.7
				c-0.1-0.3-0.1-0.6-0.1-0.9v-0.1c0-0.3,0-0.6,0.1-0.9c0.1-0.3,0.2-0.5,0.4-0.7c0.2-0.2,0.4-0.3,0.6-0.4c0.2-0.1,0.5-0.1,0.7-0.1
				c0.3,0,0.6,0.1,0.8,0.2c0.2,0.1,0.3,0.3,0.5,0.5h0.1v-2.3h1v5.8h-1V200.1z M211.2,199.8c0.3,0,0.6-0.1,0.8-0.3
				c0.2-0.2,0.3-0.5,0.3-0.8v-0.1c0-0.3-0.1-0.6-0.3-0.8c-0.2-0.2-0.5-0.3-0.8-0.3c-0.3,0-0.6,0.1-0.8,0.3c-0.2,0.2-0.3,0.5-0.3,0.8
				v0.1c0,0.3,0.1,0.6,0.3,0.8C210.6,199.7,210.9,199.8,211.2,199.8z"/>
		</g>
		<g id="XMLID_760_">
			<path id="XMLID_1284_" class="st1" d="M217.2,196.6h1v4.1h-1v-0.6h-0.1c-0.2,0.5-0.6,0.7-1.2,0.7c-0.2,0-0.4,0-0.6-0.1
				c-0.2-0.1-0.3-0.2-0.5-0.3c-0.1-0.1-0.2-0.3-0.3-0.5c-0.1-0.2-0.1-0.5-0.1-0.7v-2.6h1v2.4c0,0.3,0.1,0.5,0.2,0.7
				c0.1,0.2,0.3,0.2,0.6,0.2c0.3,0,0.5-0.1,0.7-0.3c0.1-0.2,0.2-0.5,0.2-0.8V196.6z"/>
		</g>
		<g id="XMLID_758_">
			<path id="XMLID_1281_" class="st1" d="M219.5,199.7h1.4v-3.8h-1.4v-1h2.4v4.8h1.3v1h-3.8V199.7z"/>
		</g>
		<g id="XMLID_755_">
			<path id="XMLID_1277_" class="st1" d="M225.5,199c0,0.1,0,0.2,0.1,0.3c0.1,0.1,0.1,0.2,0.2,0.3c0.1,0.1,0.2,0.1,0.3,0.2
				c0.1,0,0.2,0.1,0.4,0.1c0.3,0,0.5,0,0.6-0.1c0.1-0.1,0.2-0.2,0.3-0.3l0.9,0.5c-0.1,0.1-0.1,0.2-0.2,0.3c-0.1,0.1-0.2,0.2-0.3,0.3
				c-0.1,0.1-0.3,0.2-0.5,0.2c-0.2,0.1-0.4,0.1-0.7,0.1c-0.3,0-0.6,0-0.8-0.1c-0.3-0.1-0.5-0.2-0.7-0.4c-0.2-0.2-0.3-0.4-0.4-0.7
				c-0.1-0.3-0.2-0.6-0.2-0.9v0c0-0.3,0.1-0.6,0.2-0.9c0.1-0.3,0.3-0.5,0.4-0.7c0.2-0.2,0.4-0.3,0.7-0.4c0.3-0.1,0.5-0.2,0.8-0.2
				c0.4,0,0.7,0.1,0.9,0.2c0.3,0.1,0.5,0.3,0.6,0.5s0.3,0.4,0.4,0.6c0.1,0.2,0.1,0.5,0.1,0.7v0.6H225.5z M226.5,197.4
				c-0.3,0-0.5,0.1-0.6,0.2c-0.2,0.1-0.3,0.3-0.3,0.5h1.9c0-0.2-0.1-0.4-0.3-0.5C227,197.5,226.8,197.4,226.5,197.4z"/>
		</g>
	</g>
	<g id="XMLID_738_">
		<g id="XMLID_752_">
			<g id="XMLID_753_">
				<rect id="XMLID_1274_" x="139.3" y="118.6" class="st3" width="57.5" height="28"/>
			</g>
		</g>
		<g id="XMLID_739_">
			<g id="XMLID_750_">
				<path id="XMLID_1270_" class="st1" d="M153.2,131.4h1.1l1,3.6h0.1l1-3.6h1.1l-1.2,4.1h-2L153.2,131.4z"/>
			</g>
			<g id="XMLID_748_">
				<path id="XMLID_1267_" class="st1" d="M160.1,134.5v-4.2H160l-0.5,2h-1v-0.1l0.7-2.4h2.1v4.8h1.4v1h-4.2v-1H160.1z"/>
			</g>
			<g id="XMLID_746_">
				<path id="XMLID_1264_" class="st1" d="M166.3,134.9c0,0.1,0,0.2-0.1,0.3c0,0.1-0.1,0.2-0.2,0.2s-0.2,0.1-0.3,0.2
					c-0.1,0-0.2,0.1-0.3,0.1c-0.1,0-0.2,0-0.3-0.1c-0.1,0-0.2-0.1-0.2-0.2c-0.1-0.1-0.1-0.2-0.2-0.2c0-0.1-0.1-0.2-0.1-0.3
					c0-0.1,0-0.2,0.1-0.3c0-0.1,0.1-0.2,0.2-0.2c0.1-0.1,0.2-0.1,0.2-0.2c0.1,0,0.2-0.1,0.3-0.1c0.1,0,0.2,0,0.3,0.1
					c0.1,0,0.2,0.1,0.3,0.2c0.1,0.1,0.1,0.2,0.2,0.2C166.3,134.6,166.3,134.7,166.3,134.9z"/>
			</g>
			<g id="XMLID_744_">
				<path id="XMLID_1261_" class="st1" d="M168.6,132.9v-3.2h3.9v1h-2.8v1.6h0.1c0.1-0.2,0.2-0.4,0.4-0.6c0.2-0.2,0.5-0.2,0.9-0.2
					c0.3,0,0.5,0,0.7,0.1c0.2,0.1,0.4,0.2,0.5,0.4c0.1,0.2,0.3,0.4,0.3,0.6c0.1,0.2,0.1,0.5,0.1,0.8v0.1c0,0.3,0,0.6-0.1,0.8
					c-0.1,0.3-0.2,0.5-0.4,0.7c-0.2,0.2-0.4,0.4-0.7,0.5c-0.3,0.1-0.6,0.2-0.9,0.2c-0.4,0-0.7,0-0.9-0.1c-0.3-0.1-0.5-0.2-0.7-0.4
					c-0.2-0.2-0.3-0.4-0.4-0.6c-0.1-0.2-0.1-0.5-0.1-0.8v-0.2h1.1v0.1c0,0.3,0.1,0.5,0.3,0.7s0.4,0.3,0.8,0.3c0.3,0,0.6-0.1,0.8-0.3
					c0.2-0.2,0.3-0.4,0.3-0.8c0-0.3-0.1-0.6-0.2-0.7c-0.2-0.2-0.3-0.2-0.6-0.2c-0.2,0-0.3,0-0.4,0.1c-0.1,0.1-0.2,0.2-0.2,0.2H168.6
					z"/>
			</g>
			<g id="XMLID_742_">
				<path id="XMLID_1258_" class="st1" d="M176.5,134.9c0,0.1,0,0.2-0.1,0.3c0,0.1-0.1,0.2-0.2,0.2c-0.1,0.1-0.2,0.1-0.3,0.2
					c-0.1,0-0.2,0.1-0.3,0.1c-0.1,0-0.2,0-0.3-0.1c-0.1,0-0.2-0.1-0.2-0.2c-0.1-0.1-0.1-0.2-0.2-0.2c0-0.1-0.1-0.2-0.1-0.3
					c0-0.1,0-0.2,0.1-0.3c0-0.1,0.1-0.2,0.2-0.2c0.1-0.1,0.2-0.1,0.2-0.2c0.1,0,0.2-0.1,0.3-0.1c0.1,0,0.2,0,0.3,0.1
					c0.1,0,0.2,0.1,0.3,0.2c0.1,0.1,0.1,0.2,0.2,0.2C176.5,134.6,176.5,134.7,176.5,134.9z"/>
			</g>
			<g id="XMLID_740_">
				<path id="XMLID_1255_" class="st1" d="M182.9,134.5v1h-4.1v-1.1c0-0.3,0-0.6,0.1-0.8c0.1-0.2,0.2-0.4,0.4-0.5
					c0.2-0.1,0.4-0.3,0.6-0.4c0.2-0.1,0.5-0.2,0.8-0.2c0.2,0,0.4-0.1,0.5-0.2c0.1-0.1,0.3-0.1,0.3-0.2c0.1-0.1,0.1-0.2,0.2-0.3
					s0-0.2,0-0.3c0-0.2-0.1-0.4-0.3-0.6c-0.2-0.2-0.4-0.2-0.7-0.2c-0.3,0-0.6,0.1-0.8,0.3c-0.2,0.2-0.3,0.5-0.3,0.8v0.4h-1.1v-0.5
					c0-0.3,0-0.5,0.1-0.8c0.1-0.2,0.2-0.5,0.4-0.6c0.2-0.2,0.4-0.3,0.7-0.4c0.3-0.1,0.6-0.2,0.9-0.2c0.3,0,0.7,0.1,0.9,0.2
					c0.3,0.1,0.5,0.2,0.7,0.4c0.2,0.2,0.3,0.4,0.4,0.6c0.1,0.2,0.1,0.4,0.1,0.7v0.1c0,0.5-0.1,0.9-0.4,1.2c-0.3,0.3-0.7,0.6-1.3,0.7
					c-0.3,0.1-0.5,0.1-0.6,0.2c-0.2,0.1-0.3,0.1-0.4,0.2s-0.2,0.2-0.2,0.3c0,0.1-0.1,0.2-0.1,0.3v0.1H182.9z"/>
			</g>
		</g>
	</g>
	<g id="XMLID_697_">
		<g id="XMLID_718_">
			<g id="XMLID_736_">
				<g id="XMLID_737_">
					<rect id="XMLID_1251_" x="63.8" y="118.6" class="st3" width="57.5" height="28"/>
				</g>
			</g>
			<g id="XMLID_719_">
				<g id="XMLID_734_">
					<path id="XMLID_1247_" class="st1" d="M77.7,131.4h1.1l1,3.6H80l1-3.6h1.1l-1.2,4.1h-2L77.7,131.4z"/>
				</g>
				<g id="XMLID_732_">
					<path id="XMLID_1244_" class="st1" d="M87.1,134.5v1H83v-1.1c0-0.3,0-0.6,0.1-0.8c0.1-0.2,0.2-0.4,0.4-0.5
						c0.2-0.1,0.4-0.3,0.6-0.4c0.2-0.1,0.5-0.2,0.8-0.2c0.2,0,0.4-0.1,0.5-0.2c0.1-0.1,0.3-0.1,0.3-0.2c0.1-0.1,0.1-0.2,0.2-0.3
						c0-0.1,0-0.2,0-0.3c0-0.2-0.1-0.4-0.3-0.6c-0.2-0.2-0.4-0.2-0.7-0.2c-0.3,0-0.6,0.1-0.8,0.3c-0.2,0.2-0.3,0.5-0.3,0.8v0.4h-1.1
						v-0.5c0-0.3,0-0.5,0.1-0.8c0.1-0.2,0.2-0.5,0.4-0.6c0.2-0.2,0.4-0.3,0.7-0.4c0.3-0.1,0.6-0.2,0.9-0.2c0.3,0,0.7,0.1,0.9,0.2
						c0.3,0.1,0.5,0.2,0.7,0.4c0.2,0.2,0.3,0.4,0.4,0.6c0.1,0.2,0.1,0.4,0.1,0.7v0.1c0,0.5-0.1,0.9-0.4,1.2
						c-0.3,0.3-0.7,0.6-1.3,0.7c-0.3,0.1-0.5,0.1-0.6,0.2c-0.2,0.1-0.3,0.1-0.4,0.2c-0.1,0.1-0.2,0.2-0.2,0.3c0,0.1-0.1,0.2-0.1,0.3
						v0.1H87.1z"/>
				</g>
				<g id="XMLID_730_">
					<path id="XMLID_1241_" class="st1" d="M90.9,134.9c0,0.1,0,0.2-0.1,0.3c0,0.1-0.1,0.2-0.2,0.2s-0.2,0.1-0.3,0.2
						c-0.1,0-0.2,0.1-0.3,0.1c-0.1,0-0.2,0-0.3-0.1c-0.1,0-0.2-0.1-0.2-0.2c-0.1-0.1-0.1-0.2-0.2-0.2c0-0.1-0.1-0.2-0.1-0.3
						c0-0.1,0-0.2,0.1-0.3c0-0.1,0.1-0.2,0.2-0.2c0.1-0.1,0.2-0.1,0.2-0.2c0.1,0,0.2-0.1,0.3-0.1c0.1,0,0.2,0,0.3,0.1
						c0.1,0,0.2,0.1,0.3,0.2c0.1,0.1,0.1,0.2,0.2,0.2C90.8,134.6,90.9,134.7,90.9,134.9z"/>
				</g>
				<g id="XMLID_726_">
					<path id="XMLID_1236_" class="st1" d="M93,132c0-0.8,0.2-1.3,0.6-1.8c0.4-0.4,0.9-0.6,1.6-0.6c0.7,0,1.2,0.2,1.6,0.6
						c0.4,0.4,0.6,1,0.6,1.8v1.3c0,0.8-0.2,1.4-0.6,1.8c-0.4,0.4-0.9,0.6-1.6,0.6c-0.7,0-1.2-0.2-1.6-0.6c-0.4-0.4-0.6-1-0.6-1.8
						V132z M95.2,134.6c0.2,0,0.4,0,0.5-0.1s0.2-0.2,0.3-0.3c0.1-0.1,0.1-0.3,0.2-0.4c0-0.2,0-0.3,0-0.5v-1.4c0-0.2,0-0.4-0.1-0.5
						c0-0.2-0.1-0.3-0.2-0.4c-0.1-0.1-0.2-0.2-0.3-0.3c-0.1-0.1-0.3-0.1-0.5-0.1c-0.2,0-0.3,0-0.5,0.1c-0.1,0.1-0.2,0.2-0.3,0.3
						c-0.1,0.1-0.1,0.3-0.2,0.4c0,0.2-0.1,0.3-0.1,0.5v1.4c0,0.2,0,0.4,0,0.5c0,0.2,0.1,0.3,0.2,0.4c0.1,0.1,0.2,0.2,0.3,0.3
						S95,134.6,95.2,134.6z M94.5,132.6c0-0.2,0.1-0.4,0.2-0.5c0.1-0.1,0.3-0.2,0.5-0.2c0.2,0,0.4,0.1,0.5,0.2
						c0.1,0.1,0.2,0.3,0.2,0.5c0,0.2-0.1,0.4-0.2,0.5c-0.1,0.1-0.3,0.2-0.5,0.2c-0.2,0-0.4-0.1-0.5-0.2
						C94.5,133,94.5,132.8,94.5,132.6z"/>
				</g>
				<g id="XMLID_724_">
					<path id="XMLID_1233_" class="st1" d="M101,134.9c0,0.1,0,0.2-0.1,0.3c0,0.1-0.1,0.2-0.2,0.2s-0.2,0.1-0.3,0.2
						c-0.1,0-0.2,0.1-0.3,0.1c-0.1,0-0.2,0-0.3-0.1c-0.1,0-0.2-0.1-0.2-0.2c-0.1-0.1-0.1-0.2-0.2-0.2c0-0.1-0.1-0.2-0.1-0.3
						c0-0.1,0-0.2,0.1-0.3c0-0.1,0.1-0.2,0.2-0.2c0.1-0.1,0.2-0.1,0.2-0.2c0.1,0,0.2-0.1,0.3-0.1c0.1,0,0.2,0,0.3,0.1
						c0.1,0,0.2,0.1,0.3,0.2c0.1,0.1,0.1,0.2,0.2,0.2C101,134.6,101,134.7,101,134.9z"/>
				</g>
				<g id="XMLID_720_">
					<path id="XMLID_1228_" class="st1" d="M103.2,132c0-0.8,0.2-1.3,0.6-1.8c0.4-0.4,0.9-0.6,1.6-0.6s1.2,0.2,1.6,0.6
						c0.4,0.4,0.6,1,0.6,1.8v1.3c0,0.8-0.2,1.4-0.6,1.8c-0.4,0.4-0.9,0.6-1.6,0.6s-1.2-0.2-1.6-0.6c-0.4-0.4-0.6-1-0.6-1.8V132z
						 M105.3,134.6c0.2,0,0.4,0,0.5-0.1c0.1-0.1,0.2-0.2,0.3-0.3c0.1-0.1,0.1-0.3,0.2-0.4c0-0.2,0-0.3,0-0.5v-1.4
						c0-0.2,0-0.4-0.1-0.5s-0.1-0.3-0.2-0.4c-0.1-0.1-0.2-0.2-0.3-0.3c-0.1-0.1-0.3-0.1-0.5-0.1c-0.2,0-0.3,0-0.5,0.1
						c-0.1,0.1-0.2,0.2-0.3,0.3c-0.1,0.1-0.1,0.3-0.2,0.4c0,0.2-0.1,0.3-0.1,0.5v1.4c0,0.2,0,0.4,0,0.5c0,0.2,0.1,0.3,0.2,0.4
						c0.1,0.1,0.2,0.2,0.3,0.3C105,134.6,105.1,134.6,105.3,134.6z M104.6,132.6c0-0.2,0.1-0.4,0.2-0.5c0.1-0.1,0.3-0.2,0.5-0.2
						c0.2,0,0.4,0.1,0.5,0.2c0.1,0.1,0.2,0.3,0.2,0.5c0,0.2-0.1,0.4-0.2,0.5c-0.1,0.1-0.3,0.2-0.5,0.2c-0.2,0-0.4-0.1-0.5-0.2
						C104.7,133,104.6,132.8,104.6,132.6z"/>
				</g>
			</g>
		</g>
		<g id="XMLID_698_">
			<g id="XMLID_716_">
				<g id="XMLID_717_">
					<rect id="XMLID_1224_" x="214.7" y="118.6" class="st3" width="57.5" height="28"/>
				</g>
			</g>
			<g id="XMLID_699_">
				<g id="XMLID_714_">
					<path id="XMLID_1220_" class="st1" d="M228.6,131.4h1.1l1,3.6h0.1l1-3.6h1.1l-1.2,4.1h-2L228.6,131.4z"/>
				</g>
				<g id="XMLID_712_">
					<path id="XMLID_1217_" class="st1" d="M235.6,134.5v-4.2h-0.1l-0.5,2h-1v-0.1l0.7-2.4h2.1v4.8h1.4v1h-4.2v-1H235.6z"/>
				</g>
				<g id="XMLID_710_">
					<path id="XMLID_1214_" class="st1" d="M241.8,134.9c0,0.1,0,0.2-0.1,0.3c0,0.1-0.1,0.2-0.2,0.2c-0.1,0.1-0.2,0.1-0.3,0.2
						c-0.1,0-0.2,0.1-0.3,0.1c-0.1,0-0.2,0-0.3-0.1c-0.1,0-0.2-0.1-0.2-0.2c-0.1-0.1-0.1-0.2-0.2-0.2c0-0.1-0.1-0.2-0.1-0.3
						c0-0.1,0-0.2,0.1-0.3c0-0.1,0.1-0.2,0.2-0.2c0.1-0.1,0.2-0.1,0.2-0.2c0.1,0,0.2-0.1,0.3-0.1c0.1,0,0.2,0,0.3,0.1
						c0.1,0,0.2,0.1,0.3,0.2c0.1,0.1,0.1,0.2,0.2,0.2C241.8,134.6,241.8,134.7,241.8,134.9z"/>
				</g>
				<g id="XMLID_706_">
					<path id="XMLID_1209_" class="st1" d="M243.9,132c0-0.8,0.2-1.3,0.6-1.8c0.4-0.4,0.9-0.6,1.6-0.6c0.7,0,1.2,0.2,1.6,0.6
						c0.4,0.4,0.6,1,0.6,1.8v1.3c0,0.8-0.2,1.4-0.6,1.8c-0.4,0.4-0.9,0.6-1.6,0.6c-0.7,0-1.2-0.2-1.6-0.6c-0.4-0.4-0.6-1-0.6-1.8
						V132z M246.1,134.6c0.2,0,0.4,0,0.5-0.1s0.2-0.2,0.3-0.3c0.1-0.1,0.1-0.3,0.2-0.4c0-0.2,0.1-0.3,0.1-0.5v-1.4
						c0-0.2,0-0.4-0.1-0.5c0-0.2-0.1-0.3-0.2-0.4c-0.1-0.1-0.2-0.2-0.3-0.3c-0.1-0.1-0.3-0.1-0.5-0.1c-0.2,0-0.3,0-0.5,0.1
						c-0.1,0.1-0.2,0.2-0.3,0.3c-0.1,0.1-0.1,0.3-0.2,0.4c0,0.2-0.1,0.3-0.1,0.5v1.4c0,0.2,0,0.4,0,0.5c0,0.2,0.1,0.3,0.2,0.4
						c0.1,0.1,0.2,0.2,0.3,0.3S245.9,134.6,246.1,134.6z M245.4,132.6c0-0.2,0.1-0.4,0.2-0.5c0.1-0.1,0.3-0.2,0.5-0.2
						c0.2,0,0.4,0.1,0.5,0.2c0.1,0.1,0.2,0.3,0.2,0.5c0,0.2-0.1,0.4-0.2,0.5c-0.1,0.1-0.3,0.2-0.5,0.2c-0.2,0-0.4-0.1-0.5-0.2
						C245.4,133,245.4,132.8,245.4,132.6z"/>
				</g>
				<g id="XMLID_704_">
					<path id="XMLID_1206_" class="st1" d="M251.9,134.9c0,0.1,0,0.2-0.1,0.3c0,0.1-0.1,0.2-0.2,0.2c-0.1,0.1-0.2,0.1-0.3,0.2
						c-0.1,0-0.2,0.1-0.3,0.1c-0.1,0-0.2,0-0.3-0.1c-0.1,0-0.2-0.1-0.2-0.2c-0.1-0.1-0.1-0.2-0.2-0.2c0-0.1-0.1-0.2-0.1-0.3
						c0-0.1,0-0.2,0.1-0.3c0-0.1,0.1-0.2,0.2-0.2c0.1-0.1,0.2-0.1,0.2-0.2c0.1,0,0.2-0.1,0.3-0.1c0.1,0,0.2,0,0.3,0.1
						c0.1,0,0.2,0.1,0.3,0.2c0.1,0.1,0.1,0.2,0.2,0.2C251.9,134.6,251.9,134.7,251.9,134.9z"/>
				</g>
				<g id="XMLID_700_">
					<path id="XMLID_1201_" class="st1" d="M254.1,132c0-0.8,0.2-1.3,0.6-1.8c0.4-0.4,0.9-0.6,1.6-0.6c0.7,0,1.2,0.2,1.6,0.6
						c0.4,0.4,0.6,1,0.6,1.8v1.3c0,0.8-0.2,1.4-0.6,1.8c-0.4,0.4-0.9,0.6-1.6,0.6c-0.7,0-1.2-0.2-1.6-0.6c-0.4-0.4-0.6-1-0.6-1.8
						V132z M256.2,134.6c0.2,0,0.4,0,0.5-0.1s0.2-0.2,0.3-0.3c0.1-0.1,0.1-0.3,0.2-0.4c0-0.2,0.1-0.3,0.1-0.5v-1.4
						c0-0.2,0-0.4-0.1-0.5s-0.1-0.3-0.2-0.4c-0.1-0.1-0.2-0.2-0.3-0.3c-0.1-0.1-0.3-0.1-0.5-0.1c-0.2,0-0.3,0-0.5,0.1
						c-0.1,0.1-0.2,0.2-0.3,0.3c-0.1,0.1-0.1,0.3-0.2,0.4c0,0.2-0.1,0.3-0.1,0.5v1.4c0,0.2,0,0.4,0,0.5c0,0.2,0.1,0.3,0.2,0.4
						c0.1,0.1,0.2,0.2,0.3,0.3S256,134.6,256.2,134.6z M255.5,132.6c0-0.2,0.1-0.4,0.2-0.5c0.1-0.1,0.3-0.2,0.5-0.2
						c0.2,0,0.4,0.1,0.5,0.2c0.1,0.1,0.2,0.3,0.2,0.5c0,0.2-0.1,0.4-0.2,0.5c-0.1,0.1-0.3,0.2-0.5,0.2c-0.2,0-0.4-0.1-0.5-0.2
						C255.6,133,255.5,132.8,255.5,132.6z"/>
				</g>
			</g>
		</g>
	</g>
	<g id="XMLID_636_">
		<g id="XMLID_670_">
			<g id="XMLID_694_">
				<g id="XMLID_695_">
					<g id="XMLID_696_">
						<rect id="XMLID_1196_" x="102" y="211.5" class="st3" width="57.5" height="28"/>
					</g>
				</g>
			</g>
			<g id="XMLID_671_">
				<g id="XMLID_691_">
					<g id="XMLID_692_">
						<path id="XMLID_1191_" class="st1" d="M115.9,224.3h1.1l1,3.6h0.1l1-3.6h1.1l-1.2,4.1h-2L115.9,224.3z"/>
					</g>
				</g>
				<g id="XMLID_688_">
					<g id="XMLID_689_">
						<path id="XMLID_1187_" class="st1" d="M125.2,227.4v1h-4.1v-1.1c0-0.3,0-0.6,0.1-0.8c0.1-0.2,0.2-0.4,0.4-0.5
							c0.2-0.1,0.4-0.3,0.6-0.4c0.2-0.1,0.5-0.2,0.8-0.2c0.2,0,0.4-0.1,0.5-0.2c0.1-0.1,0.3-0.1,0.3-0.2c0.1-0.1,0.1-0.2,0.2-0.3
							c0-0.1,0-0.2,0-0.3c0-0.2-0.1-0.4-0.3-0.6c-0.2-0.2-0.4-0.2-0.7-0.2c-0.3,0-0.6,0.1-0.8,0.3c-0.2,0.2-0.3,0.5-0.3,0.8v0.4
							h-1.1v-0.5c0-0.3,0-0.5,0.1-0.8c0.1-0.2,0.2-0.5,0.4-0.6c0.2-0.2,0.4-0.3,0.7-0.4c0.3-0.1,0.6-0.2,0.9-0.2
							c0.3,0,0.7,0.1,0.9,0.2c0.3,0.1,0.5,0.2,0.7,0.4c0.2,0.2,0.3,0.4,0.4,0.6c0.1,0.2,0.1,0.4,0.1,0.7v0.1c0,0.5-0.1,0.9-0.4,1.2
							c-0.3,0.3-0.7,0.6-1.3,0.7c-0.3,0.1-0.5,0.1-0.6,0.2c-0.2,0.1-0.3,0.1-0.4,0.2c-0.1,0.1-0.2,0.2-0.2,0.3
							c0,0.1-0.1,0.2-0.1,0.3v0.1H125.2z"/>
					</g>
				</g>
				<g id="XMLID_685_">
					<g id="XMLID_686_">
						<path id="XMLID_1183_" class="st1" d="M129,227.8c0,0.1,0,0.2-0.1,0.3c0,0.1-0.1,0.2-0.2,0.2c-0.1,0.1-0.2,0.1-0.3,0.2
							c-0.1,0-0.2,0.1-0.3,0.1c-0.1,0-0.2,0-0.3-0.1c-0.1,0-0.2-0.1-0.2-0.2c-0.1-0.1-0.1-0.2-0.2-0.2c0-0.1-0.1-0.2-0.1-0.3
							c0-0.1,0-0.2,0.1-0.3c0-0.1,0.1-0.2,0.2-0.2c0.1-0.1,0.2-0.1,0.2-0.2c0.1,0,0.2-0.1,0.3-0.1c0.1,0,0.2,0,0.3,0.1
							c0.1,0,0.2,0.1,0.3,0.2c0.1,0.1,0.1,0.2,0.2,0.2C129,227.6,129,227.7,129,227.8z"/>
					</g>
				</g>
				<g id="XMLID_680_">
					<g id="XMLID_681_">
						<path id="XMLID_1177_" class="st1" d="M131.2,224.9c0-0.8,0.2-1.3,0.6-1.8c0.4-0.4,0.9-0.6,1.6-0.6s1.2,0.2,1.6,0.6
							c0.4,0.4,0.6,1,0.6,1.8v1.3c0,0.8-0.2,1.4-0.6,1.8c-0.4,0.4-0.9,0.6-1.6,0.6s-1.2-0.2-1.6-0.6c-0.4-0.4-0.6-1-0.6-1.8V224.9z
							 M133.3,227.6c0.2,0,0.4,0,0.5-0.1c0.1-0.1,0.2-0.2,0.3-0.3c0.1-0.1,0.1-0.3,0.2-0.4c0-0.2,0-0.3,0-0.5v-1.4
							c0-0.2,0-0.4-0.1-0.5c0-0.2-0.1-0.3-0.2-0.4c-0.1-0.1-0.2-0.2-0.3-0.3c-0.1-0.1-0.3-0.1-0.5-0.1c-0.2,0-0.3,0-0.5,0.1
							c-0.1,0.1-0.2,0.2-0.3,0.3c-0.1,0.1-0.1,0.3-0.2,0.4c0,0.2-0.1,0.3-0.1,0.5v1.4c0,0.2,0,0.4,0,0.5c0,0.2,0.1,0.3,0.2,0.4
							c0.1,0.1,0.2,0.2,0.3,0.3C132.9,227.5,133.1,227.6,133.3,227.6z M132.6,225.5c0-0.2,0.1-0.4,0.2-0.5c0.1-0.1,0.3-0.2,0.5-0.2
							c0.2,0,0.4,0.1,0.5,0.2c0.1,0.1,0.2,0.3,0.2,0.5c0,0.2-0.1,0.4-0.2,0.5c-0.1,0.1-0.3,0.2-0.5,0.2c-0.2,0-0.4-0.1-0.5-0.2
							C132.7,225.9,132.6,225.7,132.6,225.5z"/>
					</g>
				</g>
				<g id="XMLID_677_">
					<g id="XMLID_678_">
						<path id="XMLID_1173_" class="st1" d="M139.2,227.8c0,0.1,0,0.2-0.1,0.3c0,0.1-0.1,0.2-0.2,0.2c-0.1,0.1-0.2,0.1-0.3,0.2
							c-0.1,0-0.2,0.1-0.3,0.1c-0.1,0-0.2,0-0.3-0.1c-0.1,0-0.2-0.1-0.2-0.2c-0.1-0.1-0.1-0.2-0.2-0.2c0-0.1-0.1-0.2-0.1-0.3
							c0-0.1,0-0.2,0.1-0.3c0-0.1,0.1-0.2,0.2-0.2c0.1-0.1,0.2-0.1,0.2-0.2c0.1,0,0.2-0.1,0.3-0.1c0.1,0,0.2,0,0.3,0.1
							c0.1,0,0.2,0.1,0.3,0.2c0.1,0.1,0.1,0.2,0.2,0.2C139.2,227.6,139.2,227.7,139.2,227.8z"/>
					</g>
				</g>
				<g id="XMLID_672_">
					<g id="XMLID_673_">
						<path id="XMLID_1167_" class="st1" d="M141.3,224.9c0-0.8,0.2-1.3,0.6-1.8c0.4-0.4,0.9-0.6,1.6-0.6s1.2,0.2,1.6,0.6
							c0.4,0.4,0.6,1,0.6,1.8v1.3c0,0.8-0.2,1.4-0.6,1.8c-0.4,0.4-0.9,0.6-1.6,0.6s-1.2-0.2-1.6-0.6c-0.4-0.4-0.6-1-0.6-1.8V224.9z
							 M143.5,227.6c0.2,0,0.4,0,0.5-0.1c0.1-0.1,0.2-0.2,0.3-0.3c0.1-0.1,0.1-0.3,0.2-0.4c0-0.2,0-0.3,0-0.5v-1.4
							c0-0.2,0-0.4-0.1-0.5s-0.1-0.3-0.2-0.4c-0.1-0.1-0.2-0.2-0.3-0.3c-0.1-0.1-0.3-0.1-0.5-0.1c-0.2,0-0.3,0-0.5,0.1
							c-0.1,0.1-0.2,0.2-0.3,0.3c-0.1,0.1-0.1,0.3-0.2,0.4c0,0.2-0.1,0.3-0.1,0.5v1.4c0,0.2,0,0.4,0,0.5c0,0.2,0.1,0.3,0.2,0.4
							c0.1,0.1,0.2,0.2,0.3,0.3C143.1,227.5,143.3,227.6,143.5,227.6z M142.8,225.5c0-0.2,0.1-0.4,0.2-0.5c0.1-0.1,0.3-0.2,0.5-0.2
							c0.2,0,0.4,0.1,0.5,0.2c0.1,0.1,0.2,0.3,0.2,0.5c0,0.2-0.1,0.4-0.2,0.5c-0.1,0.1-0.3,0.2-0.5,0.2c-0.2,0-0.4-0.1-0.5-0.2
							C142.8,225.9,142.8,225.7,142.8,225.5z"/>
					</g>
				</g>
			</g>
		</g>
		<g id="XMLID_637_">
			<g id="XMLID_667_">
				<g id="XMLID_668_">
					<g id="XMLID_669_">
						<rect id="XMLID_1162_" x="176.6" y="211.5" class="st3" width="57.5" height="28"/>
					</g>
				</g>
			</g>
			<g id="XMLID_638_">
				<g id="XMLID_664_">
					<g id="XMLID_665_">
						<path id="XMLID_1157_" class="st1" d="M190.5,224.3h1.1l1,3.6h0.1l1-3.6h1.1l-1.2,4.1h-2L190.5,224.3z"/>
					</g>
				</g>
				<g id="XMLID_661_">
					<g id="XMLID_662_">
						<path id="XMLID_1153_" class="st1" d="M197.4,227.4v-4.2h-0.1l-0.5,2h-1v-0.1l0.7-2.4h2.1v4.8h1.4v1h-4.2v-1H197.4z"/>
					</g>
				</g>
				<g id="XMLID_657_">
					<g id="XMLID_659_">
						<path id="XMLID_1149_" class="st1" d="M203.6,227.8c0,0.1,0,0.2-0.1,0.3c0,0.1-0.1,0.2-0.2,0.2c-0.1,0.1-0.2,0.1-0.3,0.2
							c-0.1,0-0.2,0.1-0.3,0.1c-0.1,0-0.2,0-0.3-0.1c-0.1,0-0.2-0.1-0.2-0.2c-0.1-0.1-0.1-0.2-0.2-0.2c0-0.1-0.1-0.2-0.1-0.3
							c0-0.1,0-0.2,0.1-0.3c0-0.1,0.1-0.2,0.2-0.2c0.1-0.1,0.2-0.1,0.2-0.2c0.1,0,0.2-0.1,0.3-0.1c0.1,0,0.2,0,0.3,0.1
							c0.1,0,0.2,0.1,0.3,0.2c0.1,0.1,0.1,0.2,0.2,0.2C203.6,227.6,203.6,227.7,203.6,227.8z"/>
					</g>
				</g>
				<g id="XMLID_650_">
					<g id="XMLID_651_">
						<path id="XMLID_1143_" class="st1" d="M205.8,224.9c0-0.8,0.2-1.3,0.6-1.8c0.4-0.4,0.9-0.6,1.6-0.6c0.7,0,1.2,0.2,1.6,0.6
							c0.4,0.4,0.6,1,0.6,1.8v1.3c0,0.8-0.2,1.4-0.6,1.8c-0.4,0.4-0.9,0.6-1.6,0.6c-0.7,0-1.2-0.2-1.6-0.6c-0.4-0.4-0.6-1-0.6-1.8
							V224.9z M207.9,227.6c0.2,0,0.4,0,0.5-0.1c0.1-0.1,0.2-0.2,0.3-0.3c0.1-0.1,0.1-0.3,0.2-0.4c0-0.2,0.1-0.3,0.1-0.5v-1.4
							c0-0.2,0-0.4-0.1-0.5c0-0.2-0.1-0.3-0.2-0.4c-0.1-0.1-0.2-0.2-0.3-0.3c-0.1-0.1-0.3-0.1-0.5-0.1c-0.2,0-0.3,0-0.5,0.1
							c-0.1,0.1-0.2,0.2-0.3,0.3c-0.1,0.1-0.1,0.3-0.2,0.4c0,0.2-0.1,0.3-0.1,0.5v1.4c0,0.2,0,0.4,0,0.5c0,0.2,0.1,0.3,0.2,0.4
							c0.1,0.1,0.2,0.2,0.3,0.3C207.6,227.5,207.7,227.6,207.9,227.6z M207.2,225.5c0-0.2,0.1-0.4,0.2-0.5c0.1-0.1,0.3-0.2,0.5-0.2
							c0.2,0,0.4,0.1,0.5,0.2c0.1,0.1,0.2,0.3,0.2,0.5c0,0.2-0.1,0.4-0.2,0.5c-0.1,0.1-0.3,0.2-0.5,0.2c-0.2,0-0.4-0.1-0.5-0.2
							C207.3,225.9,207.2,225.7,207.2,225.5z"/>
					</g>
				</g>
				<g id="XMLID_646_">
					<g id="XMLID_648_">
						<path id="XMLID_1139_" class="st1" d="M213.8,227.8c0,0.1,0,0.2-0.1,0.3c0,0.1-0.1,0.2-0.2,0.2c-0.1,0.1-0.2,0.1-0.3,0.2
							c-0.1,0-0.2,0.1-0.3,0.1c-0.1,0-0.2,0-0.3-0.1c-0.1,0-0.2-0.1-0.2-0.2c-0.1-0.1-0.1-0.2-0.2-0.2c0-0.1-0.1-0.2-0.1-0.3
							c0-0.1,0-0.2,0.1-0.3c0-0.1,0.1-0.2,0.2-0.2c0.1-0.1,0.2-0.1,0.2-0.2c0.1,0,0.2-0.1,0.3-0.1c0.1,0,0.2,0,0.3,0.1
							c0.1,0,0.2,0.1,0.3,0.2c0.1,0.1,0.1,0.2,0.2,0.2C213.8,227.6,213.8,227.7,213.8,227.8z"/>
					</g>
				</g>
				<g id="XMLID_640_">
					<g id="XMLID_641_">
						<path id="XMLID_1133_" class="st1" d="M215.9,224.9c0-0.8,0.2-1.3,0.6-1.8c0.4-0.4,0.9-0.6,1.6-0.6c0.7,0,1.2,0.2,1.6,0.6
							c0.4,0.4,0.6,1,0.6,1.8v1.3c0,0.8-0.2,1.4-0.6,1.8c-0.4,0.4-0.9,0.6-1.6,0.6c-0.7,0-1.2-0.2-1.6-0.6c-0.4-0.4-0.6-1-0.6-1.8
							V224.9z M218.1,227.6c0.2,0,0.4,0,0.5-0.1c0.1-0.1,0.2-0.2,0.3-0.3c0.1-0.1,0.1-0.3,0.2-0.4c0-0.2,0.1-0.3,0.1-0.5v-1.4
							c0-0.2,0-0.4-0.1-0.5c0-0.2-0.1-0.3-0.2-0.4c-0.1-0.1-0.2-0.2-0.3-0.3c-0.1-0.1-0.3-0.1-0.5-0.1c-0.2,0-0.3,0-0.5,0.1
							c-0.1,0.1-0.2,0.2-0.3,0.3c-0.1,0.1-0.1,0.3-0.2,0.4c0,0.2-0.1,0.3-0.1,0.5v1.4c0,0.2,0,0.4,0,0.5c0,0.2,0.1,0.3,0.2,0.4
							c0.1,0.1,0.2,0.2,0.3,0.3C217.7,227.5,217.9,227.6,218.1,227.6z M217.4,225.5c0-0.2,0.1-0.4,0.2-0.5c0.1-0.1,0.3-0.2,0.5-0.2
							c0.2,0,0.4,0.1,0.5,0.2c0.1,0.1,0.2,0.3,0.2,0.5c0,0.2-0.1,0.4-0.2,0.5s-0.3,0.2-0.5,0.2c-0.2,0-0.4-0.1-0.5-0.2
							C217.5,225.9,217.4,225.7,217.4,225.5z"/>
					</g>
				</g>
			</g>
		</g>
	</g>
	<g id="XMLID_635_">
		<polygon id="XMLID_1103_" class="st4" points="58.8,134.2 36.6,134.2 36.6,54.2 37.9,54.2 37.9,132.9 58.8,132.9 		"/>
	</g>
	<g id="XMLID_634_">
		<rect id="XMLID_1102_" x="165.7" y="54.2" class="st4" width="1.3" height="59.8"/>
	</g>
	<g id="XMLID_633_">
		<polygon id="XMLID_1101_" class="st4" points="132.8,205.3 131.5,205.3 131.5,167.6 89.7,167.6 89.7,149.3 91.1,149.3 91.1,166.2 
			132.8,166.2 		"/>
	</g>
	<g id="XMLID_632_">
		<polygon id="XMLID_1100_" class="st4" points="208.9,205.3 207.6,205.3 207.6,165.4 165.7,165.4 165.7,151.9 167,151.9 167,164 
			208.9,164 		"/>
	</g>
	<g id="XMLID_630_">
		<polygon id="XMLID_1099_" class="st4" points="246.1,165.4 212.7,165.4 212.7,164 244.8,164 244.8,151.9 246.1,151.9 		"/>
	</g>
	<g id="XMLID_629_">
		<polygon id="XMLID_1117_" class="st4" points="54.5,131.1 54.5,136 60.9,133.5 		"/>
	</g>
	<g id="XMLID_627_">
		<polygon id="XMLID_1098_" class="st4" points="299.7,134.2 277.4,134.2 277.4,132.9 298.3,132.9 298.3,54.2 299.7,54.2 		"/>
	</g>
	<g id="XMLID_626_">
		<polygon id="XMLID_1113_" class="st4" points="281.7,131.1 281.7,136 275.4,133.5 		"/>
	</g>
	<g id="XMLID_624_">
		<polygon id="XMLID_1111_" class="st4" points="163.5,111 168.5,111 166,117.4 		"/>
	</g>
	<g id="XMLID_623_">
		<polygon id="XMLID_1109_" class="st4" points="129.7,202.4 134.6,202.4 132.2,208.7 		"/>
	</g>
	<g id="XMLID_622_">
		<polygon id="XMLID_1107_" class="st4" points="205.8,202.4 210.8,202.4 208.3,208.7 		"/>
	</g>
</g>
</svg>
